<?xml version="1.0" standalone="no"?>
<!DOCTYPE svg PUBLIC "-//W3C//DTD SVG 20010904//EN"
 "http://www.w3.org/TR/2001/REC-SVG-20010904/DTD/svg10.dtd">
<svg version="1.0" xmlns="http://www.w3.org/2000/svg"
 width="638.000000pt" height="359.000000pt" viewBox="0 0 638.000000 359.000000"
 preserveAspectRatio="xMidYMid meet">

<g transform="translate(0.000000,359.000000) scale(0.100000,-0.100000)"
fill="#000000" stroke="none">
<path d="M482 3248 c-40 -107 -92 -256 -92 -262 0 -3 8 -6 18 -6 13 0 23 13
32 40 l13 40 58 0 58 0 12 -40 c9 -28 18 -40 31 -40 10 0 18 6 18 13 -1 6 -22
71 -48 142 -40 110 -50 130 -69 133 -17 2 -25 -3 -31 -20z m62 -125 c7 -21 4
-23 -34 -23 -46 0 -46 2 -13 80 l15 35 13 -35 c6 -19 15 -45 19 -57z"/>
<path d="M1930 3264 c0 -5 39 -162 61 -247 8 -31 14 -38 31 -35 18 2 26 20 49
107 15 57 30 105 33 108 2 2 11 -21 20 -51 9 -31 23 -81 31 -111 12 -42 20
-55 35 -55 20 0 19 -5 66 175 28 106 29 115 9 115 -20 0 -29 -22 -50 -120 -9
-47 -20 -89 -23 -94 -3 -5 -19 40 -36 100 -26 92 -34 109 -51 109 -17 0 -24
-17 -51 -115 l-31 -115 -27 118 c-23 99 -30 117 -47 117 -10 0 -19 -3 -19 -6z"/>
<path d="M2533 3263 c-10 -4 -13 -41 -13 -144 0 -117 2 -139 15 -139 8 0 15 5
15 11 0 5 10 3 22 -5 34 -24 66 -19 99 13 25 26 29 37 29 86 0 46 -4 60 -25
80 -28 29 -70 32 -102 10 -22 -15 -22 -15 -25 38 -2 38 -7 52 -15 50z m107
-113 c25 -13 36 -72 20 -110 -28 -69 -103 -40 -103 39 0 64 37 96 83 71z"/>
<path d="M2905 3258 c-32 -17 -45 -39 -45 -75 0 -39 20 -54 102 -77 31 -9 61
-24 66 -33 16 -27 2 -52 -37 -64 -46 -14 -88 1 -101 36 -10 27 -40 34 -40 9 0
-50 60 -89 127 -81 57 6 93 39 93 83 0 41 -31 67 -100 85 -63 16 -86 39 -71
68 23 42 103 39 123 -4 20 -44 49 -26 32 20 -15 37 -104 58 -149 33z"/>
<path d="M3660 3246 c0 -17 5 -26 16 -26 10 0 14 7 12 22 -5 32 -28 35 -28 4z"/>
<path d="M4495 3219 c-36 -67 -44 -156 -20 -228 16 -48 30 -69 41 -58 3 3 -2
31 -12 63 -20 69 -14 148 16 218 23 54 23 56 12 56 -5 0 -21 -23 -37 -51z"/>
<path d="M4662 3248 c-40 -107 -92 -256 -92 -262 0 -3 8 -6 18 -6 12 0 23 14
33 42 15 41 17 43 60 43 61 2 67 -2 80 -46 9 -27 18 -39 31 -39 24 0 23 6 -30
155 -40 110 -51 130 -70 133 -16 2 -24 -3 -30 -20z m47 -79 c7 -23 15 -47 18
-55 4 -11 -5 -14 -37 -14 -32 0 -41 3 -37 14 3 8 11 32 18 55 7 23 15 41 19
41 4 0 12 -18 19 -41z"/>
<path d="M4820 3264 c0 -5 39 -162 61 -247 8 -31 14 -38 31 -35 17 2 26 21 50
108 16 57 31 106 33 108 2 2 9 -16 15 -39 38 -145 51 -179 70 -179 20 0 27 20
69 187 26 100 26 103 1 103 -11 0 -20 -2 -20 -5 0 -11 -41 -191 -46 -205 -4
-8 -20 35 -38 95 -26 92 -34 110 -51 110 -17 0 -24 -17 -49 -108 -17 -61 -32
-103 -36 -95 -4 7 -17 57 -29 111 -19 81 -26 97 -42 97 -10 0 -19 -3 -19 -6z"/>
<path d="M5253 3260 c-27 -11 -43 -40 -43 -78 0 -38 13 -48 96 -75 65 -21 69
-24 69 -52 0 -62 -104 -72 -133 -12 -14 29 -42 37 -42 11 0 -76 133 -112 196
-53 55 52 10 128 -86 144 -47 8 -74 38 -59 66 21 40 102 36 121 -6 20 -44 49
-26 32 20 -14 37 -98 56 -151 35z"/>
<path d="M5460 3264 c0 -6 9 -31 19 -55 35 -80 36 -149 5 -258 -13 -46 20 -16
38 35 22 61 22 116 3 182 -15 48 -64 121 -65 96z"/>
<path d="M670 3085 c0 -87 3 -105 15 -105 12 0 15 15 15 74 0 79 13 106 51
106 26 0 39 -37 39 -116 0 -50 3 -64 15 -64 12 0 15 15 15 74 0 81 15 110 54
104 19 -3 21 -10 24 -90 3 -80 5 -88 22 -88 18 0 20 7 20 88 0 73 -3 92 -18
105 -23 21 -61 22 -89 2 -18 -13 -22 -13 -33 0 -14 17 -53 20 -80 5 -13 -7
-21 -7 -25 0 -18 28 -25 0 -25 -95z"/>
<path d="M1022 3174 c-24 -16 -30 -54 -9 -54 7 0 18 9 25 20 21 34 88 21 80
-15 -2 -13 -19 -22 -57 -31 -60 -13 -72 -26 -69 -69 4 -44 45 -64 93 -46 27 9
40 10 48 2 16 -16 47 -14 47 3 0 8 -6 16 -14 19 -10 4 -14 26 -13 83 0 64 -3
80 -18 91 -25 18 -85 17 -113 -3z m98 -117 c0 -50 -69 -75 -94 -35 -16 26 15
47 87 57 4 1 7 -10 7 -22z"/>
<path d="M1210 3175 c0 -10 17 -15 56 -17 l57 -3 -62 -73 c-33 -41 -61 -80
-61 -88 0 -11 19 -14 85 -14 68 0 85 3 85 15 0 10 -16 15 -61 17 l-61 3 56 68
c31 38 56 77 56 88 0 17 -8 19 -75 18 -56 -1 -75 -4 -75 -14z"/>
<path d="M1433 3175 c-56 -39 -51 -160 9 -191 45 -23 94 -11 119 29 29 46 22
122 -15 154 -32 27 -81 30 -113 8z m89 -32 c24 -21 25 -99 1 -125 -37 -41 -93
-5 -93 60 0 69 49 104 92 65z"/>
<path d="M1630 3085 c0 -87 3 -105 15 -105 12 0 15 14 15 68 0 76 17 112 54
112 37 0 46 -19 46 -102 0 -63 3 -78 15 -78 12 0 15 16 15 88 0 73 -3 92 -18
105 -23 21 -61 22 -89 2 -19 -13 -22 -13 -27 0 -3 8 -10 15 -16 15 -6 0 -10
-40 -10 -105z"/>
<path d="M2329 3161 c-25 -25 -29 -37 -29 -81 0 -44 4 -56 29 -81 19 -19 40
-29 59 -29 33 0 82 34 82 56 0 20 -23 17 -43 -6 -9 -11 -26 -20 -37 -20 -23 0
-60 33 -60 55 0 12 15 15 75 15 l75 0 0 31 c0 42 -47 89 -90 89 -22 0 -41 -9
-61 -29z m95 -17 c31 -31 20 -44 -39 -44 -59 0 -67 8 -35 40 24 24 53 26 74 4z"/>
<path d="M3139 3161 c-25 -25 -29 -37 -29 -81 0 -44 4 -56 29 -81 19 -19 40
-29 59 -29 33 0 82 34 82 56 0 20 -23 17 -43 -6 -9 -11 -26 -20 -37 -20 -23 0
-60 33 -60 55 0 12 15 15 75 15 l75 0 0 31 c0 42 -47 89 -90 89 -22 0 -41 -9
-61 -29z m95 -17 c31 -31 20 -44 -39 -44 -59 0 -67 8 -35 40 24 24 53 26 74 4z"/>
<path d="M3337 3184 c-4 -4 -7 -52 -7 -106 0 -80 3 -98 15 -98 12 0 15 14 15
68 0 72 11 98 45 104 27 4 33 38 7 38 -11 0 -25 -7 -32 -15 -11 -14 -14 -14
-24 0 -6 9 -15 13 -19 9z"/>
<path d="M3440 3178 c0 -6 15 -54 33 -105 27 -79 35 -93 52 -91 13 2 25 18 36
48 9 25 26 69 38 98 20 50 20 52 2 52 -14 0 -25 -18 -46 -75 -15 -41 -29 -75
-31 -75 -1 0 -12 30 -25 68 -12 37 -26 73 -32 80 -12 15 -27 16 -27 0z"/>
<path d="M3765 3166 c-30 -30 -40 -84 -25 -130 14 -42 29 -55 72 -62 37 -7 82
21 91 56 7 27 -29 28 -38 0 -9 -28 -51 -37 -75 -15 -27 24 -28 105 -2 128 25
22 48 21 72 -3 11 -11 25 -20 30 -20 17 0 11 29 -10 50 -28 28 -84 27 -115 -4z"/>
<path d="M3959 3161 c-25 -25 -29 -37 -29 -81 0 -44 4 -56 29 -81 19 -19 40
-29 59 -29 33 0 82 34 82 56 0 20 -23 17 -43 -6 -9 -11 -26 -20 -37 -20 -23 0
-60 33 -60 55 0 12 15 15 75 15 l75 0 0 31 c0 42 -47 89 -90 89 -22 0 -41 -9
-61 -29z m95 -17 c31 -31 20 -44 -39 -44 -59 0 -67 8 -35 40 24 24 53 26 74 4z"/>
<path d="M4172 3174 c-25 -17 -30 -65 -8 -83 8 -6 33 -17 57 -24 33 -10 45
-18 47 -35 2 -16 -3 -23 -21 -27 -26 -7 -67 9 -67 25 0 6 -9 10 -20 10 -27 0
-25 -16 5 -45 30 -31 82 -33 119 -4 50 39 28 85 -51 108 -48 13 -60 26 -43 46
16 19 59 19 66 0 8 -19 44 -20 44 -1 0 22 -40 46 -75 46 -17 0 -41 -7 -53 -16z"/>
<path d="M3660 3080 c0 -82 3 -100 15 -100 12 0 15 18 15 100 0 82 -3 100 -15
100 -12 0 -15 -18 -15 -100z"/>
<path d="M3421 2730 c-1 -21 4 -26 24 -26 20 0 25 5 25 26 -1 22 -2 23 -13 8
-12 -15 -14 -15 -24 0 -10 15 -12 14 -12 -8z"/>
<path d="M3530 2726 c0 -21 5 -26 25 -26 14 0 25 4 25 9 0 10 26 9 36 -2 11
-11 26 -8 19 3 -3 6 -1 10 5 10 6 0 8 5 5 11 -4 6 -13 8 -20 5 -8 -3 -16 0
-19 7 -5 9 -7 9 -12 0 -3 -7 -12 -13 -19 -13 -7 0 -16 -6 -19 -12 -3 -7 -4 -4
-3 6 1 10 -4 21 -10 23 -8 3 -13 -5 -13 -21z"/>
<path d="M3675 2741 c-3 -5 0 -13 6 -17 8 -5 8 -9 -1 -14 -8 -5 2 -8 23 -7 20
0 34 5 31 9 -3 4 0 8 5 8 6 0 11 -4 11 -10 0 -5 5 -10 11 -10 5 0 7 5 4 10 -3
6 -1 10 4 10 6 0 11 4 11 9 0 10 -50 9 -67 -2 -12 -8 -17 -2 -14 16 2 10 -17
9 -24 -2z"/>
<path d="M4650 2725 c0 -14 4 -25 8 -25 4 0 8 11 8 25 0 14 -4 25 -8 25 -4 0
-8 -11 -8 -25z"/>
<path d="M5013 2733 c-3 -10 -8 -21 -10 -25 -1 -3 6 -4 17 -1 11 3 20 1 20 -5
0 -6 9 -8 20 -5 24 6 23 38 0 38 -8 0 -21 4 -28 8 -8 5 -15 2 -19 -10z"/>
<path d="M5121 2728 c-7 -14 -10 -16 -6 -5 3 12 1 17 -7 15 -7 -3 -15 -15 -16
-28 -3 -18 0 -21 13 -16 9 3 28 6 41 6 17 0 23 4 18 13 -6 10 -4 10 7 0 14
-13 51 -17 62 -7 8 8 -3 34 -15 34 -5 0 -7 -4 -4 -9 3 -5 -1 -12 -10 -15 -24
-9 -27 -7 -13 10 11 13 9 14 -14 9 -17 -5 -27 -3 -27 4 0 19 -16 12 -29 -11z"/>
<path d="M1721 2721 c-15 -27 -14 -30 9 -24 11 3 20 1 20 -5 0 -6 9 -8 20 -5
24 6 23 38 0 38 -8 0 -20 4 -27 8 -7 5 -16 0 -22 -12z"/>
<path d="M1834 2718 c-12 -17 -15 -18 -10 -5 4 12 2 17 -6 15 -7 -3 -14 -15
-16 -27 -3 -20 -1 -22 20 -15 13 4 46 7 74 6 47 -1 51 1 47 18 -3 11 -10 20
-15 20 -5 0 -7 -4 -4 -9 7 -10 -24 -25 -33 -16 -3 3 1 10 9 15 19 12 8 13 -24
0 -20 -7 -24 -6 -19 5 8 22 -4 18 -23 -7z"/>
<path d="M2105 2731 c-3 -5 0 -13 6 -17 8 -5 8 -9 -1 -14 -8 -5 2 -8 23 -7 20
0 34 5 31 9 -3 4 0 8 5 8 6 0 11 -5 11 -12 0 -6 6 -3 14 8 14 18 15 18 21 2 4
-10 11 -18 16 -18 5 0 9 8 10 18 0 14 2 14 7 2 4 -9 22 -16 45 -17 21 -1 35 2
32 8 -4 5 1 9 10 9 9 0 13 -4 10 -10 -3 -5 1 -10 9 -10 8 0 14 8 13 18 -1 16
-9 19 -62 17 -33 -1 -66 -5 -73 -9 -7 -4 -12 -3 -12 3 0 11 -59 10 -77 -2 -12
-8 -17 -2 -14 16 2 10 -17 9 -24 -2z m195 -21 c0 -5 -4 -10 -10 -10 -5 0 -10
5 -10 10 0 6 5 10 10 10 6 0 10 -4 10 -10z"/>
<path d="M3484 2729 c-10 -17 13 -36 27 -22 12 12 4 33 -11 33 -5 0 -12 -5
-16 -11z m26 -9 c0 -5 -4 -10 -10 -10 -5 0 -10 5 -10 10 0 6 5 10 10 10 6 0
10 -4 10 -10z"/>
<path d="M3792 2728 c-15 -15 -15 -28 -2 -28 6 0 10 8 11 18 0 14 2 14 7 2 4
-9 22 -16 45 -17 21 -1 35 2 32 8 -4 5 1 9 10 9 9 0 13 -4 10 -10 -3 -5 1 -10
9 -10 8 0 14 8 13 18 -1 15 -9 19 -43 18 -23 -1 -46 -4 -50 -8 -4 -4 -12 -3
-19 2 -7 6 -16 5 -23 -2z m68 -8 c0 -5 -4 -10 -10 -10 -5 0 -10 5 -10 10 0 6
5 10 10 10 6 0 10 -4 10 -10z"/>
<path d="M4685 2732 c-3 -3 -5 -12 -5 -21 1 -13 3 -12 15 3 15 20 15 20 16 0
0 -18 1 -18 8 1 l8 20 5 -20 c5 -19 6 -19 7 1 1 16 -5 22 -24 22 -13 0 -27 -3
-30 -6z"/>
<path d="M4754 2728 c-7 -10 4 -28 17 -28 6 0 7 5 4 10 -3 6 -1 10 4 10 6 0
11 -4 11 -10 0 -17 17 -11 22 8 4 15 -1 19 -24 19 -16 0 -31 -4 -34 -9z"/>
<path d="M4827 2733 c-4 -3 -7 -14 -7 -23 0 -22 57 -15 63 9 4 14 5 14 6 -1 1
-14 9 -18 41 -16 21 1 37 5 34 10 -3 4 0 8 7 8 10 0 10 3 1 12 -8 8 -15 8 -28
-3 -10 -8 -15 -9 -11 -3 10 17 -73 10 -85 -7 -8 -11 -9 -10 -4 4 5 17 -5 23
-17 10z"/>
<path d="M5247 2720 c3 -11 7 -20 9 -20 2 0 4 9 4 20 0 11 -4 20 -9 20 -5 0
-7 -9 -4 -20z"/>
<path d="M5288 2732 c-34 -7 -19 -29 21 -30 30 -1 41 2 44 16 4 16 5 16 6 0 1
-11 9 -18 20 -18 13 0 19 6 18 18 -1 15 -10 18 -46 18 -26 0 -54 -2 -63 -4z
m32 -12 c0 -5 -4 -10 -10 -10 -5 0 -10 5 -10 10 0 6 5 10 10 10 6 0 10 -4 10
-10z"/>
<path d="M1957 2710 c3 -11 7 -20 9 -20 2 0 4 9 4 20 0 11 -4 20 -9 20 -5 0
-7 -9 -4 -20z"/>
<path d="M1998 2722 c-34 -7 -19 -27 22 -28 30 -1 40 3 41 15 0 12 3 11 10 -4
9 -20 9 -20 6 0 -2 19 -37 27 -79 17z m32 -12 c0 -5 -4 -10 -10 -10 -5 0 -10
5 -10 10 0 6 5 10 10 10 6 0 10 -4 10 -10z"/>
<path d="M1191 2624 l-31 -26 0 -218 0 -218 31 -26 31 -26 823 0 824 0 28 24
28 24 0 222 0 222 -28 24 -28 24 -824 0 -823 0 -31 -26z m1682 5 c42 -19 47
-48 47 -249 0 -201 -5 -230 -47 -249 -17 -8 -263 -11 -839 -11 l-815 0 -24 25
c-25 24 -25 24 -25 235 0 211 0 211 25 235 l24 25 815 0 c576 0 822 -3 839
-11z"/>
<path d="M2715 2552 l-50 -27 2 -50 c0 -28 2 -55 2 -62 1 -6 17 -17 36 -23 23
-8 35 -18 35 -30 0 -10 7 -21 16 -24 12 -5 15 2 12 37 -3 38 -6 42 -33 47 -27
5 -30 9 -33 47 l-3 42 46 7 c26 3 43 9 37 13 -5 3 -12 16 -13 28 l-4 22 -50
-27z"/>
<path d="M1263 2547 l-43 -21 0 -67 0 -67 40 -21 c49 -26 50 -26 50 -3 0 13
-13 23 -40 32 -39 13 -40 15 -40 57 0 42 1 43 29 41 25 -2 28 -6 27 -31 0 -17
5 -32 12 -34 8 -3 12 6 12 25 0 28 3 30 48 37 l47 8 -47 14 c-31 9 -48 20 -50
32 -3 18 -5 18 -45 -2z"/>
<path d="M1553 2550 c-32 -19 -33 -22 -33 -82 l0 -63 40 -22 40 -21 0 104 c0
57 -3 104 -7 104 -5 0 -23 -9 -40 -20z m27 -91 c0 -43 -3 -50 -16 -45 -9 3
-20 6 -25 6 -5 0 -9 20 -9 45 0 41 2 45 25 45 23 0 25 -3 25 -51z"/>
<path d="M1848 2544 c-52 -27 -59 -39 -27 -49 23 -8 149 -8 156 -1 3 3 -13 10
-35 17 -30 9 -42 18 -44 34 l-3 23 -47 -24z"/>
<path d="M2483 2555 c-21 -15 -23 -24 -23 -99 0 -62 4 -87 15 -96 13 -11 15 0
15 91 l0 104 27 -47 c14 -27 29 -48 33 -48 9 0 32 51 26 57 -2 2 -7 -5 -11
-16 -9 -31 -18 -26 -40 25 -20 44 -21 44 -42 29z"/>
<path d="M2180 2530 c0 -27 3 -30 33 -29 17 1 24 3 15 6 -11 3 -18 14 -18 29
0 15 -6 24 -15 24 -10 0 -15 -10 -15 -30z"/>
<path d="M1630 2471 c0 -44 5 -83 10 -86 6 -4 10 25 10 79 0 51 -4 86 -10 86
-6 0 -10 -33 -10 -79z"/>
<path d="M1663 2475 c0 -38 2 -53 4 -32 2 20 2 52 0 70 -2 17 -4 1 -4 -38z"/>
<path d="M2150 2515 c0 -14 4 -25 10 -25 5 0 9 11 8 25 -1 14 -6 25 -10 25 -4
0 -8 -11 -8 -25z"/>
<path d="M2416 2499 c-18 -34 -18 -36 0 -70 l19 -34 3 38 c2 20 2 52 0 69 l-3
32 -19 -35z"/>
<path d="M2121 2504 c0 -11 3 -14 6 -6 3 7 2 16 -1 19 -3 4 -6 -2 -5 -13z"/>
<path d="M2253 2510 c2 -8 12 -16 23 -17 13 -2 15 -1 4 4 -8 3 -19 11 -23 17
-6 7 -7 6 -4 -4z"/>
<path d="M2843 2470 c0 -25 2 -35 4 -22 2 12 2 32 0 45 -2 12 -4 2 -4 -23z"/>
<path d="M2163 2483 c-34 -3 -43 -8 -43 -23 0 -21 19 -30 61 -30 26 0 29 4 29
30 0 17 -1 29 -2 28 -2 -1 -22 -3 -45 -5z"/>
<path d="M1250 2453 c0 -22 2 -25 10 -13 13 20 13 40 0 40 -5 0 -10 -12 -10
-27z"/>
<path d="M1845 2461 c-3 -5 -2 -12 3 -15 5 -3 9 1 9 9 0 17 -3 19 -12 6z"/>
<path d="M1880 2436 c0 -19 5 -38 10 -41 6 -4 10 10 10 34 0 23 -4 41 -10 41
-5 0 -10 -15 -10 -34z"/>
<path d="M1931 2414 c0 -11 3 -14 6 -6 3 7 2 16 -1 19 -3 4 -6 -2 -5 -13z"/>
<path d="M2121 2404 c0 -11 3 -14 6 -6 3 7 2 16 -1 19 -3 4 -6 -2 -5 -13z"/>
<path d="M2150 2392 c0 -12 4 -22 9 -22 10 0 9 26 -2 36 -4 4 -7 -2 -7 -14z"/>
<path d="M2252 2390 c0 -14 2 -19 5 -12 2 6 2 18 0 25 -3 6 -5 1 -5 -13z"/>
<path d="M2182 2378 c5 -32 28 -35 28 -4 0 17 -5 26 -16 26 -10 0 -14 -7 -12
-22z"/>
<path d="M1840 2375 c0 -2 14 -11 30 -20 17 -9 30 -12 30 -7 0 5 -11 14 -25
20 -28 13 -35 14 -35 7z"/>
<path d="M2770 2280 c0 -5 5 -10 11 -10 5 0 7 5 4 10 -3 6 -8 10 -11 10 -2 0
-4 -4 -4 -10z"/>
<path d="M1320 2270 c0 -5 5 -10 11 -10 5 0 7 5 4 10 -3 6 -8 10 -11 10 -2 0
-4 -4 -4 -10z"/>
<path d="M1570 2270 c0 -5 5 -10 11 -10 5 0 7 5 4 10 -3 6 -8 10 -11 10 -2 0
-4 -4 -4 -10z"/>
<path d="M2515 2270 c-3 -5 -1 -10 4 -10 6 0 11 5 11 10 0 6 -2 10 -4 10 -3 0
-8 -4 -11 -10z"/>
<path d="M1536 2217 c3 -10 9 -15 12 -12 3 3 0 11 -7 18 -10 9 -11 8 -5 -6z"/>
<path d="M1945 2210 c-3 -5 -1 -10 4 -10 6 0 11 5 11 10 0 6 -2 10 -4 10 -3 0
-8 -4 -11 -10z"/>
<path d="M2770 2209 c0 -5 5 -7 10 -4 6 3 10 8 10 11 0 2 -4 4 -10 4 -5 0 -10
-5 -10 -11z"/>
<path d="M2165 2200 c-3 -5 -1 -10 4 -10 6 0 11 5 11 10 0 6 -2 10 -4 10 -3 0
-8 -4 -11 -10z"/>
<path d="M3234 2638 c-44 -21 -49 -49 -49 -258 0 -212 5 -238 52 -259 16 -7
156 -11 439 -11 l416 0 29 29 29 29 0 212 0 212 -29 29 -29 29 -419 -1 c-266
0 -426 -4 -439 -11z m881 -23 c25 -24 25 -24 25 -235 0 -211 0 -211 -25 -235
l-24 -25 -420 0 -420 0 -26 23 -27 23 0 214 0 214 26 23 27 23 420 0 420 0 24
-25z"/>
<path d="M3348 2549 c-37 -19 -38 -20 -38 -79 0 -32 5 -62 10 -65 6 -4 10 15
10 49 l0 55 53 8 c28 4 44 9 35 11 -10 2 -18 12 -18 23 0 23 -5 23 -52 -2z"/>
<path d="M3906 2562 c-4 -7 -9 -84 -7 -133 1 -15 8 -29 16 -33 13 -4 15 9 15
84 0 79 -8 107 -24 82z"/>
<path d="M3573 2548 c-33 -11 -44 -32 -20 -40 6 -2 44 -2 82 1 58 5 67 8 50
17 -11 6 -26 9 -32 7 -7 -3 -13 2 -13 11 0 18 -19 19 -67 4z"/>
<path d="M3850 2475 c0 -37 4 -65 10 -65 6 0 10 28 10 65 0 37 -4 65 -10 65
-6 0 -10 -28 -10 -65z"/>
<path d="M3450 2480 c0 -27 5 -50 10 -50 11 0 12 4 12 50 0 46 -1 50 -12 50
-5 0 -10 -22 -10 -50z"/>
<path d="M3823 2470 c0 -30 2 -43 4 -27 2 15 2 39 0 55 -2 15 -4 2 -4 -28z"/>
<path d="M3370 2471 c0 -10 7 -21 15 -25 11 -4 15 1 15 19 0 16 -6 25 -15 25
-8 0 -15 -9 -15 -19z"/>
<path d="M3540 2481 c0 -5 15 -14 33 -19 38 -12 97 -24 80 -16 -7 3 -13 14
-13 25 0 16 -7 19 -50 19 -27 0 -50 -4 -50 -9z"/>
<path d="M3540 2437 c0 -10 77 -57 95 -57 3 0 5 9 5 20 0 20 -16 30 -72 44
-20 4 -28 3 -28 -7z"/>
<path d="M3711 2434 c0 -11 3 -14 6 -6 3 7 2 16 -1 19 -3 4 -6 -2 -5 -13z"/>
<path d="M3670 2426 c0 -8 5 -18 10 -21 6 -3 10 3 10 14 0 12 -4 21 -10 21 -5
0 -10 -6 -10 -14z"/>
<path d="M3350 2406 c0 -8 9 -20 19 -26 27 -14 31 -13 31 10 0 11 -4 20 -9 20
-5 0 -16 3 -25 6 -10 4 -16 1 -16 -10z"/>
<path d="M3395 2300 c-3 -5 1 -10 10 -10 9 0 13 5 10 10 -3 6 -8 10 -10 10 -2
0 -7 -4 -10 -10z"/>
<path d="M3635 2300 c-3 -5 1 -10 10 -10 9 0 13 5 10 10 -3 6 -8 10 -10 10 -2
0 -7 -4 -10 -10z"/>
<path d="M3925 2300 c-3 -5 -1 -10 4 -10 6 0 11 5 11 10 0 6 -2 10 -4 10 -3 0
-8 -4 -11 -10z"/>
<path d="M3956 2247 c3 -10 9 -15 12 -12 3 3 0 11 -7 18 -10 9 -11 8 -5 -6z"/>
<path d="M3605 2170 c-3 -5 -1 -10 4 -10 6 0 11 5 11 10 0 6 -2 10 -4 10 -3 0
-8 -4 -11 -10z"/>
<path d="M4439 2621 l-29 -29 0 -212 0 -212 29 -29 29 -29 497 0 c358 0 502 3
518 12 45 23 46 33 46 258 0 225 -1 235 -46 258 -16 9 -160 12 -518 12 l-497
0 -29 -29z m1056 -6 c25 -24 25 -24 25 -239 l0 -215 -26 -20 c-26 -21 -36 -21
-526 -21 l-499 0 -24 25 c-25 24 -25 24 -25 235 0 211 0 211 25 235 l24 25
501 0 501 0 24 -25z"/>
<path d="M4956 2511 c-4 -7 -5 -15 -2 -18 9 -9 19 4 14 18 -4 11 -6 11 -12 0z"/>
<path d="M4608 2498 c17 -17 40 -18 46 -2 4 10 -3 14 -26 14 -25 0 -29 -3 -20
-12z"/>
<path d="M4670 2494 c0 -8 5 -12 10 -9 6 3 10 10 10 16 0 5 -4 9 -10 9 -5 0
-10 -7 -10 -16z"/>
<path d="M4738 2498 c9 -9 15 -9 24 0 9 9 7 12 -12 12 -19 0 -21 -3 -12 -12z"/>
<path d="M4990 2500 c0 -5 5 -10 10 -10 6 0 10 5 10 10 0 6 -4 10 -10 10 -5 0
-10 -4 -10 -10z"/>
<path d="M5050 2500 c0 -5 4 -10 9 -10 6 0 13 5 16 10 3 6 -1 10 -9 10 -9 0
-16 -4 -16 -10z"/>
<path d="M5175 2420 c-3 -5 1 -10 9 -10 8 0 18 5 21 10 3 6 -1 10 -9 10 -8 0
-18 -4 -21 -10z"/>
<path d="M5280 2420 c0 -5 5 -10 10 -10 6 0 10 5 10 10 0 6 -4 10 -10 10 -5 0
-10 -4 -10 -10z"/>
<path d="M5228 2413 c7 -3 16 -2 19 1 4 3 -2 6 -13 5 -11 0 -14 -3 -6 -6z"/>
<path d="M5015 2260 c-3 -5 -1 -10 4 -10 6 0 11 5 11 10 0 6 -2 10 -4 10 -3 0
-8 -4 -11 -10z"/>
<path d="M5370 2260 c0 -5 5 -10 11 -10 5 0 7 5 4 10 -3 6 -8 10 -11 10 -2 0
-4 -4 -4 -10z"/>
<path d="M4725 2190 c-3 -5 -1 -10 4 -10 6 0 11 5 11 10 0 6 -2 10 -4 10 -3 0
-8 -4 -11 -10z"/>
<path d="M120 2319 c0 -38 1 -40 28 -37 47 5 39 78 -9 78 -16 0 -19 -8 -19
-41z m38 -1 c-2 -13 -7 -23 -13 -23 -5 0 -11 10 -13 23 -2 15 2 22 13 22 11 0
15 -7 13 -22z"/>
<path d="M333 2320 c0 -25 2 -35 4 -22 2 12 2 32 0 45 -2 12 -4 2 -4 -23z"/>
<path d="M788 2353 c-3 -4 -5 -23 -6 -40 -2 -31 0 -33 32 -33 29 0 33 3 29 20
-3 11 -9 17 -14 14 -5 -3 -8 5 -6 18 2 22 -26 39 -35 21z m22 -53 c0 -5 -4
-10 -10 -10 -5 0 -10 5 -10 10 0 6 5 10 10 10 6 0 10 -4 10 -10z"/>
<path d="M708 2344 c-11 -11 6 -64 20 -64 12 0 13 3 4 12 -7 7 -8 17 -2 29 7
12 6 19 -4 22 -8 3 -16 4 -18 1z"/>
<path d="M201 2326 c-16 -19 -3 -46 23 -45 20 0 20 1 2 8 -19 7 -18 8 4 14 20
5 21 8 10 21 -15 20 -24 20 -39 2z"/>
<path d="M260 2296 c0 -22 4 -36 8 -30 4 6 15 13 25 17 27 10 19 52 -10 53
-20 1 -23 -3 -23 -40z m30 8 c0 -8 -4 -12 -10 -9 -5 3 -10 10 -10 16 0 5 5 9
10 9 6 0 10 -7 10 -16z"/>
<path d="M361 2327 c-17 -21 -3 -49 23 -45 15 2 21 10 21 28 0 28 -26 38 -44
17z m29 -22 c0 -8 -4 -15 -10 -15 -5 0 -10 7 -10 15 0 8 5 15 10 15 6 0 10 -7
10 -15z"/>
<path d="M421 2335 c0 -5 6 -26 14 -45 l13 -35 13 35 c13 34 13 35 20 10 7
-24 7 -24 8 -2 1 27 21 30 21 2 0 -27 18 -25 23 3 4 22 4 22 15 -3 l12 -25 -3
30 c-2 29 -4 30 -49 30 -33 1 -49 -4 -53 -14 -5 -11 -8 -11 -20 5 -8 10 -14
15 -14 9z"/>
<path d="M597 2333 c-4 -3 -7 -17 -7 -30 0 -17 5 -23 23 -22 20 0 21 1 3 8
-19 7 -18 8 4 14 20 5 21 8 10 21 -14 17 -23 20 -33 9z m23 -13 c0 -5 -5 -10
-11 -10 -5 0 -7 5 -4 10 3 6 8 10 11 10 2 0 4 -4 4 -10z"/>
<path d="M651 2306 c1 -23 3 -26 6 -8 5 27 23 29 23 2 0 -11 5 -20 11 -20 6 0
9 12 7 28 -2 20 -9 27 -25 28 -20 1 -23 -4 -22 -30z"/>
<path d="M121 2173 c1 -33 2 -35 8 -13 l7 25 8 -22 c9 -27 23 -30 29 -5 4 16
5 16 6 0 2 -34 21 -18 21 17 0 40 -24 49 -34 13 l-7 -23 -9 23 c-14 34 -30 26
-29 -15z"/>
<path d="M717 2194 c-11 -11 7 -54 22 -53 10 0 11 2 4 6 -16 6 -17 30 -1 35 8
3 6 6 -4 10 -9 4 -18 5 -21 2z"/>
<path d="M228 2181 c11 -7 10 -9 -3 -15 -21 -8 -10 -26 16 -26 14 0 19 7 19
25 0 19 -5 25 -22 25 -17 0 -19 -3 -10 -9z"/>
<path d="M281 2163 c2 -24 2 -25 6 -5 2 12 8 22 13 22 5 0 11 -10 13 -22 4
-20 4 -19 6 5 1 21 -4 27 -19 27 -15 0 -20 -6 -19 -27z"/>
<path d="M348 2181 c11 -7 10 -9 -3 -15 -21 -8 -10 -26 16 -26 14 0 19 7 19
25 0 19 -5 25 -22 25 -17 0 -19 -3 -10 -9z"/>
<path d="M397 2183 c-2 -5 -3 -19 -3 -33 1 -18 7 -25 20 -25 11 0 21 6 24 13
2 6 -4 12 -13 12 -15 0 -15 1 -1 16 9 8 16 17 16 20 0 7 -39 4 -43 -3z"/>
<path d="M446 2181 c-11 -17 6 -41 28 -40 20 0 20 1 1 9 -17 7 -17 9 -2 9 24
1 22 31 -2 31 -11 0 -22 -4 -25 -9z"/>
<path d="M511 2163 c2 -24 2 -25 6 -5 2 12 8 22 13 22 5 0 11 -10 13 -22 l4
-23 2 23 c0 12 5 22 10 22 5 0 12 -10 14 -22 4 -20 4 -19 6 5 1 25 -2 27 -34
27 -32 0 -35 -2 -34 -27z"/>
<path d="M598 2178 c-8 -22 3 -38 25 -37 21 0 21 1 2 9 -17 7 -17 9 -2 9 9 1
17 8 17 16 0 18 -36 20 -42 3z"/>
<path d="M661 2163 c2 -24 2 -25 6 -5 2 12 8 22 13 22 5 0 11 -10 13 -22 4
-20 4 -19 6 5 1 21 -4 27 -19 27 -15 0 -20 -6 -19 -27z"/>
<path d="M3450 1976 c0 -21 4 -24 34 -23 19 0 33 5 30 9 -3 4 0 8 5 8 6 0 11
-6 11 -14 0 -9 7 -12 20 -9 36 10 20 38 -22 38 -20 0 -40 4 -44 8 -15 15 -34
6 -34 -17z m25 5 c3 -5 1 -12 -5 -16 -5 -3 -10 1 -10 9 0 18 6 21 15 7z"/>
<path d="M3580 1978 c0 -18 6 -23 30 -25 18 -1 30 3 31 10 0 7 4 3 9 -8 7 -19
8 -19 15 -1 9 22 -8 35 -41 31 -13 -1 -24 2 -24 6 0 5 -4 9 -10 9 -5 0 -10
-10 -10 -22z m50 -8 c0 -5 -4 -10 -10 -10 -5 0 -10 5 -10 10 0 6 5 10 10 10 6
0 10 -4 10 -10z"/>
<path d="M3877 1981 c-6 -24 0 -31 25 -31 19 0 22 8 12 34 -9 22 -31 20 -37
-3z"/>
<path d="M3961 1980 c-1 -21 4 -26 24 -26 20 0 25 5 25 26 -1 22 -2 23 -13 8
-12 -15 -14 -15 -24 0 -10 15 -12 14 -12 -8z"/>
<path d="M1841 1971 c-6 -11 -11 -21 -11 -23 0 -2 23 -3 50 -3 34 0 54 5 60
15 8 12 10 12 11 -5 l0 -20 9 20 c7 17 9 17 9 3 1 -12 9 -18 26 -18 17 0 25 6
26 18 0 14 2 14 9 -3 7 -16 9 -17 9 -3 1 23 -15 31 -39 18 -15 -8 -20 -8 -20
1 0 7 -11 10 -30 7 -16 -2 -31 0 -33 6 -2 5 -13 0 -25 -12 -16 -16 -22 -18
-22 -8 0 24 -18 28 -29 7z m69 -11 c0 -5 -4 -10 -10 -10 -5 0 -10 5 -10 10 0
6 5 10 10 10 6 0 10 -4 10 -10z"/>
<path d="M2357 1971 c-6 -24 0 -31 25 -31 19 0 22 8 12 34 -9 22 -31 20 -37
-3z m28 -11 c-3 -5 -12 -10 -18 -10 -7 0 -6 4 3 10 19 12 23 12 15 0z"/>
<path d="M2425 1981 c-3 -5 0 -13 6 -17 8 -4 7 -9 -2 -15 -11 -7 -10 -9 3 -9
13 0 17 7 16 25 -2 25 -12 32 -23 16z"/>
<path d="M3685 1982 c-9 -10 -5 -32 6 -32 5 0 8 4 4 9 -3 5 -1 12 5 16 5 3 10
-2 11 -12 0 -16 1 -16 9 2 6 14 9 15 9 5 1 -9 10 -16 21 -17 12 -1 18 3 14 9
-4 6 1 8 15 3 14 -4 21 -2 22 7 0 7 4 4 9 -7 l9 -20 1 20 1 20 9 -20 c8 -20 9
-20 9 1 1 19 -5 20 -74 20 -41 0 -77 -2 -80 -4z"/>
<path d="M4035 1980 c3 -5 1 -10 -4 -10 -6 0 -11 -4 -11 -10 0 -5 9 -10 19
-10 14 0 18 5 14 20 -3 11 -10 20 -15 20 -5 0 -6 -4 -3 -10z"/>
<path d="M4065 1980 c-3 -5 -3 -15 1 -22 5 -8 10 -6 15 8 7 17 8 17 8 2 1 -26
41 -24 41 2 0 11 -5 20 -11 20 -5 0 -7 -4 -4 -10 3 -5 2 -10 -4 -10 -5 0 -13
5 -16 10 -3 6 -10 10 -15 10 -5 0 -12 -4 -15 -10z"/>
<path d="M4147 1983 c-13 -12 -7 -40 8 -40 9 0 15 10 15 24 0 22 -10 30 -23
16z"/>
<path d="M4184 1978 c-7 -10 4 -28 17 -28 6 0 7 5 4 10 -3 6 -1 10 4 10 6 0
11 -6 11 -12 0 -8 7 -5 15 6 15 20 15 20 16 0 0 -18 1 -18 9 1 6 14 9 15 9 5
1 -9 10 -16 21 -17 11 -1 18 2 15 8 -9 13 9 11 23 -3 9 -9 12 -8 13 8 0 18 1
18 9 -1 l9 -20 1 20 1 20 9 -20 c8 -20 9 -20 9 1 1 19 -5 20 -94 20 -53 1 -98
-3 -101 -8z"/>
<path d="M4913 1973 c-3 -10 -7 -20 -9 -23 -1 -3 13 -6 31 -7 24 -1 35 3 38
15 4 15 5 15 6 0 1 -14 10 -18 37 -18 28 0 35 3 30 15 -9 24 4 17 14 -7 l9
-23 7 23 c8 26 21 29 27 5 3 -13 5 -11 6 6 1 20 -3 22 -23 17 -14 -3 -28 -2
-31 4 -10 16 -25 12 -26 -7 0 -11 -3 -13 -6 -5 -2 6 -9 12 -14 12 -6 0 -7 -4
-4 -10 9 -14 -9 -12 -24 3 -10 10 -15 8 -27 -7 -12 -17 -14 -17 -14 -4 0 25
-19 32 -27 11z"/>
<path d="M2055 1970 c-8 -14 3 -30 21 -30 16 0 16 2 8 24 -7 18 -20 21 -29 6z"/>
<path d="M2107 1960 c3 -11 11 -20 18 -20 7 0 15 9 18 20 4 16 0 20 -18 20
-18 0 -22 -4 -18 -20z"/>
<path d="M2164 1971 c4 -5 0 -11 -6 -14 -7 -2 -10 -8 -6 -12 12 -13 38 3 32
20 -3 8 -10 15 -16 15 -5 0 -7 -4 -4 -9z"/>
<path d="M2197 1960 c3 -11 7 -20 9 -20 2 0 4 9 4 20 0 11 -4 20 -9 20 -5 0
-7 -9 -4 -20z"/>
<path d="M2238 1972 c-32 -7 -19 -29 17 -30 25 -1 38 4 42 15 6 15 7 14 15 -3
8 -18 8 -18 5 1 -2 19 -37 27 -79 17z m32 -12 c0 -5 -4 -10 -10 -10 -5 0 -10
5 -10 10 0 6 5 10 10 10 6 0 10 -4 10 -10z"/>
<path d="M2464 1969 c-7 -11 4 -29 17 -29 6 0 7 5 4 10 -3 6 -2 10 4 10 5 0
12 -4 15 -8 3 -5 19 -9 36 -10 25 -1 30 3 29 21 -1 18 -2 19 -6 4 -4 -15 -7
-16 -20 -5 -18 15 -71 20 -79 7z m66 -9 c0 -5 -5 -10 -11 -10 -5 0 -7 5 -4 10
3 6 8 10 11 10 2 0 4 -4 4 -10z"/>
<path d="M2584 1969 c-10 -17 13 -36 27 -22 12 12 4 33 -11 33 -5 0 -12 -5
-16 -11z"/>
<path d="M2627 1960 c3 -11 7 -20 9 -20 2 0 4 9 4 20 0 11 -4 20 -9 20 -5 0
-7 -9 -4 -20z"/>
<path d="M2654 1964 c3 -8 6 -20 6 -25 0 -6 5 -7 10 -4 15 10 12 32 -6 39 -12
5 -15 2 -10 -10z"/>
<path d="M5137 1968 c-28 -15 -19 -25 22 -26 33 -2 40 1 38 17 -1 20 -32 25
-60 9z m38 -8 c3 -5 -1 -10 -9 -10 -9 0 -16 5 -16 10 0 6 4 10 9 10 6 0 13 -4
16 -10z"/>
<path d="M1197 1866 c-35 -32 -39 -65 -35 -272 3 -191 8 -212 55 -233 17 -8
330 -11 1009 -11 1070 0 1026 -2 1052 55 8 17 12 90 12 216 0 201 -7 236 -49
259 -13 7 -353 10 -1019 10 l-999 0 -26 -24z m2057 -17 l26 -31 0 -200 0 -200
-29 -29 -29 -29 -996 0 -995 0 -28 24 -28 24 0 212 0 212 28 24 28 24 999 0
998 0 26 -31z"/>
<path d="M1602 1790 c-27 -25 -28 -44 -4 -67 12 -11 19 -35 21 -62 4 -82 20
-82 21 1 0 50 -4 78 -12 80 -14 5 -3 38 13 38 6 0 13 -9 16 -20 7 -26 23 -26
23 -1 0 11 -9 23 -20 26 -11 4 -18 11 -15 16 11 17 -21 9 -43 -11z"/>
<path d="M2716 1793 c-5 -13 -15 -23 -22 -23 -10 0 -14 -16 -14 -60 0 -33 -4
-60 -10 -60 -23 0 -7 -18 35 -38 55 -26 59 -27 46 -5 -5 10 -22 22 -38 28 -27
10 -28 11 -22 70 l6 60 1 -57 c1 -32 6 -58 11 -58 5 0 16 -3 25 -6 12 -4 16 0
16 15 0 12 -4 21 -10 21 -5 0 -11 30 -13 68 -2 49 -5 61 -11 45z"/>
<path d="M2997 1803 c-2 -5 -3 -48 -2 -98 l2 -90 71 -3 72 -3 0 101 0 100 -69
0 c-39 0 -72 -3 -74 -7z m123 -43 c0 -24 -4 -30 -22 -30 -21 -1 -21 -2 -5 -11
25 -14 22 -65 -4 -79 -16 -9 -26 -8 -45 5 -30 19 -31 49 -2 69 l22 16 -22 0
c-18 0 -22 6 -22 30 0 29 1 30 50 30 49 0 50 -1 50 -30z"/>
<path d="M1324 1786 c-9 -24 1 -99 14 -104 9 -3 12 13 12 57 0 57 -13 81 -26
47z"/>
<path d="M1883 1793 c-7 -2 -13 -16 -13 -29 0 -20 5 -24 33 -24 20 0 27 3 19
9 -7 4 -14 18 -15 29 -1 23 -3 24 -24 15z"/>
<path d="M2161 1777 c-8 -19 -8 -82 -2 -159 0 -10 8 -18 16 -18 12 0 15 18 15
100 0 99 -10 126 -29 77z"/>
<path d="M2426 1785 c-8 -8 -22 -15 -30 -15 -21 0 -20 -10 2 -26 16 -13 16
-13 0 -14 -10 0 -18 -4 -18 -10 0 -5 20 -10 44 -10 39 0 44 2 39 19 -3 13 -11
18 -21 14 -10 -4 -14 -3 -10 1 10 12 42 14 55 4 7 -5 21 -7 32 -3 16 5 18 9 9
19 -7 7 -20 11 -29 9 -9 -3 -23 3 -32 11 -19 20 -22 20 -41 1z"/>
<path d="M1290 1735 c0 -25 4 -45 8 -45 4 0 8 20 8 45 1 25 -3 45 -7 45 -5 0
-9 -20 -9 -45z"/>
<path d="M1273 1725 c0 -22 2 -30 4 -17 2 12 2 30 0 40 -3 9 -5 -1 -4 -23z"/>
<path d="M2122 1730 c0 -14 2 -19 5 -12 2 6 2 18 0 25 -3 6 -5 1 -5 -13z"/>
<path d="M1873 1723 c-13 -2 -23 -12 -24 -21 0 -14 -2 -14 -8 2 -7 18 -8 18
-14 2 -4 -10 -1 -19 8 -22 8 -4 15 -16 15 -28 0 -15 9 -27 26 -35 15 -6 28
-10 29 -9 4 3 7 74 6 101 -1 9 -4 16 -8 16 -5 -1 -18 -4 -30 -6z"/>
<path d="M1960 1700 c0 -11 4 -20 8 -20 4 0 8 9 8 20 0 11 -4 20 -8 20 -4 0
-8 -9 -8 -20z"/>
<path d="M1370 1700 c0 -5 5 -10 11 -10 5 0 7 5 4 10 -3 6 -8 10 -11 10 -2 0
-4 -4 -4 -10z"/>
<path d="M2380 1669 c0 -18 10 -28 40 -41 l40 -17 0 35 c0 29 -3 34 -24 34
-13 0 -31 3 -40 6 -12 5 -16 0 -16 -17z"/>
<path d="M2120 1660 c0 -11 4 -20 9 -20 5 0 7 9 4 20 -3 11 -7 20 -9 20 -2 0
-4 -9 -4 -20z"/>
<path d="M1270 1653 c0 -8 62 -43 75 -43 8 0 6 28 -2 33 -18 11 -73 18 -73 10z"/>
<path d="M2750 1510 c0 -5 5 -10 11 -10 5 0 7 5 4 10 -3 6 -8 10 -11 10 -2 0
-4 -4 -4 -10z"/>
<path d="M2800 1455 c-7 -9 -8 -15 -2 -15 5 0 12 7 16 15 3 8 4 15 2 15 -2 0
-9 -7 -16 -15z"/>
<path d="M2265 1450 c-3 -5 -1 -10 4 -10 6 0 11 5 11 10 0 6 -2 10 -4 10 -3 0
-8 -4 -11 -10z"/>
<path d="M1555 1380 c-3 -5 -1 -10 4 -10 6 0 11 5 11 10 0 6 -2 10 -4 10 -3 0
-8 -4 -11 -10z"/>
<path d="M3377 1866 c-35 -32 -39 -65 -35 -272 3 -191 8 -212 55 -233 16 -7
195 -11 543 -11 l518 0 31 26 31 26 0 216 c-1 227 -2 237 -47 260 -16 9 -167
12 -546 12 l-524 0 -26 -24z m1107 -7 l26 -20 0 -215 c0 -215 0 -215 -25 -239
l-24 -25 -525 0 -525 0 -28 24 -28 24 0 212 0 212 28 24 28 24 523 0 c514 0
524 0 550 -21z"/>
<path d="M4023 1819 l-43 -20 0 -63 0 -63 40 -18 c22 -10 43 -16 45 -13 3 3 4
48 3 101 l-3 95 -42 -19z m17 -89 c0 -54 -1 -55 -31 -40 -13 7 -19 21 -19 45
0 32 6 38 43 44 4 0 7 -21 7 -49z"/>
<path d="M4303 1827 c-14 -6 -23 -19 -23 -33 0 -16 7 -24 23 -27 l22 -4 -22
-2 c-17 -1 -23 -7 -23 -26 0 -20 5 -25 25 -25 20 0 25 5 25 24 0 22 5 25 43
28 l42 3 -42 13 c-32 9 -42 18 -45 36 -3 20 -6 22 -25 13z"/>
<path d="M3512 1817 c-15 -18 -18 -115 -4 -129 9 -9 8 -16 -5 -30 -17 -19 -11
-34 16 -40 11 -2 14 14 14 77 0 44 2 72 4 62 7 -29 57 -19 61 12 4 22 1 24
-33 18 -33 -5 -37 -4 -32 13 6 24 -7 35 -21 17z"/>
<path d="M3749 1814 c-11 -13 -9 -23 11 -59 13 -24 22 -47 19 -50 -3 -3 -18
18 -33 45 -15 28 -33 49 -39 47 -8 -2 -12 -28 -12 -67 l0 -63 43 -24 42 -24 0
32 c0 18 14 56 30 86 34 60 35 63 17 63 -7 0 -21 -15 -30 -32 l-16 -33 0 48
c-1 49 -10 58 -32 31z m-31 -145 c-3 -8 -7 -3 -11 10 -4 17 -3 21 5 13 5 -5 8
-16 6 -23z"/>
<path d="M4253 1803 c-9 -3 -13 -26 -13 -68 0 -61 14 -91 30 -65 5 8 9 6 12
-8 3 -10 15 -21 27 -25 17 -4 21 -1 21 18 0 18 -7 25 -30 30 -28 6 -29 9 -32
64 -2 41 -7 57 -15 54z"/>
<path d="M4090 1791 c0 -5 7 -11 15 -15 9 -3 15 -19 15 -41 0 -19 5 -35 10
-35 6 0 10 17 10 38 0 32 -5 41 -25 50 -14 6 -25 8 -25 3z"/>
<path d="M3846 1706 c-3 -13 -9 -31 -12 -40 -3 -9 -2 -16 3 -16 13 0 33 69 23
75 -4 3 -11 -6 -14 -19z"/>
<path d="M3450 1671 c0 -11 5 -23 10 -26 6 -4 10 5 10 19 0 14 -4 26 -10 26
-5 0 -10 -9 -10 -19z"/>
<path d="M3566 1517 c3 -10 9 -15 12 -12 3 3 0 11 -7 18 -10 9 -11 8 -5 -6z"/>
<path d="M4021 1454 c0 -11 3 -14 6 -6 3 7 2 16 -1 19 -3 4 -6 -2 -5 -13z"/>
<path d="M4155 1459 c-4 -6 -5 -12 -2 -15 2 -3 7 2 10 11 7 17 1 20 -8 4z"/>
<path d="M3495 1380 c-3 -5 -1 -10 4 -10 6 0 11 5 11 10 0 6 -2 10 -4 10 -3 0
-8 -4 -11 -10z"/>
<path d="M4599 1861 l-29 -29 0 -215 0 -215 31 -26 31 -26 418 0 418 0 31 26
31 26 0 218 0 217 -26 27 -27 26 -424 0 -425 0 -29 -29z m895 -2 l26 -20 0
-215 c0 -215 0 -215 -25 -239 l-24 -25 -421 0 -421 0 -24 25 c-25 24 -25 24
-25 235 0 211 0 211 25 235 l24 25 419 0 c409 0 420 -1 446 -21z"/>
<path d="M4988 1794 c-43 -22 -48 -28 -48 -59 l0 -35 55 0 55 0 0 60 c0 33 -3
60 -7 60 -5 -1 -29 -12 -55 -26z"/>
<path d="M4700 1787 c-57 -28 -66 -61 -19 -71 49 -9 147 -7 154 4 4 6 -10 10
-34 10 l-41 0 0 40 c0 22 -3 40 -7 40 -5 0 -28 -10 -53 -23z"/>
<path d="M5287 1769 c-21 -11 -37 -25 -34 -32 5 -17 80 -27 130 -18 42 8 41
10 -17 31 -19 7 -26 15 -22 25 7 20 -11 18 -57 -6z"/>
<path d="M5077 1773 c-11 -10 -8 -73 3 -73 6 0 10 18 10 40 0 41 -2 45 -13 33z"/>
<path d="M5137 1753 c-11 -10 -8 -53 3 -53 6 0 10 14 10 30 0 31 -2 35 -13 23z"/>
<path d="M5109 1748 c-7 -25 -7 -48 1 -48 6 0 10 11 10 25 0 20 -7 35 -11 23z"/>
<path d="M5288 1693 c-31 -8 -21 -33 12 -33 17 0 33 0 38 0 4 -1 8 8 10 20 3
20 -16 25 -60 13z"/>
<path d="M4650 1655 c0 -19 5 -35 10 -35 6 0 10 16 10 35 0 19 -4 35 -10 35
-5 0 -10 -16 -10 -35z"/>
<path d="M4681 1648 c-1 -27 3 -48 7 -48 4 0 6 17 4 38 -5 58 -10 62 -11 10z"/>
<path d="M4713 1640 c0 -30 2 -43 4 -27 2 15 2 39 0 55 -2 15 -4 2 -4 -28z"/>
<path d="M4740 1630 c0 -33 4 -60 10 -60 6 0 10 27 10 60 0 33 -4 60 -10 60
-6 0 -10 -27 -10 -60z"/>
<path d="M4946 1661 c11 -10 97 -32 102 -26 3 2 2 11 -1 20 -5 11 -21 15 -59
15 -30 0 -48 -4 -42 -9z"/>
<path d="M4940 1630 c0 -8 90 -60 105 -60 3 0 5 7 5 15 0 8 -2 15 -5 15 -2 0
-27 9 -55 20 -27 11 -50 15 -50 10z"/>
<path d="M5300 1610 c0 -9 31 -30 44 -30 9 0 2 24 -9 32 -14 11 -35 10 -35 -2z"/>
<path d="M4775 1500 c-3 -5 -1 -10 4 -10 6 0 11 5 11 10 0 6 -2 10 -4 10 -3 0
-8 -4 -11 -10z"/>
<path d="M5050 1500 c0 -5 5 -10 11 -10 5 0 7 5 4 10 -3 6 -8 10 -11 10 -2 0
-4 -4 -4 -10z"/>
<path d="M323 1630 c0 -25 2 -35 4 -22 2 12 2 32 0 45 -2 12 -4 2 -4 -23z"/>
<path d="M131 1629 c-6 -18 -11 -33 -11 -33 0 -1 15 -2 34 -2 33 0 33 0 21 30
-18 41 -31 43 -44 5z"/>
<path d="M700 1640 c0 -11 5 -20 10 -20 17 0 11 -18 -7 -23 -14 -4 -13 -5 4
-6 30 -1 38 16 18 39 -13 14 -13 19 -3 23 8 4 7 6 -4 6 -12 1 -18 -6 -18 -19z"/>
<path d="M478 1644 c-11 -11 5 -54 21 -54 13 0 13 2 2 9 -8 5 -11 16 -8 25 6
15 -5 30 -15 20z"/>
<path d="M201 1603 c0 -21 3 -32 6 -25 2 6 11 12 18 12 7 0 15 6 17 13 8 20
-2 37 -23 37 -15 0 -19 -7 -18 -37z m29 12 c0 -8 -4 -15 -10 -15 -5 0 -10 7
-10 15 0 8 5 15 10 15 6 0 10 -7 10 -15z"/>
<path d="M261 1603 c0 -21 3 -32 6 -25 2 6 11 12 18 12 7 0 15 6 17 13 8 20
-2 37 -23 37 -15 0 -19 -7 -18 -37z m29 12 c0 -8 -4 -15 -10 -15 -5 0 -10 7
-10 15 0 8 5 15 10 15 6 0 10 -7 10 -15z"/>
<path d="M352 1615 c0 -16 2 -22 5 -12 2 9 2 23 0 30 -3 6 -5 -1 -5 -18z"/>
<path d="M376 1624 c-9 -25 0 -32 44 -32 37 -1 41 2 38 21 -2 13 -11 23 -23
24 -11 2 -14 0 -7 -3 10 -5 9 -9 -5 -20 -10 -7 -21 -14 -25 -14 -13 0 -9 28 5
33 7 4 6 6 -4 6 -9 1 -20 -6 -23 -15z"/>
<path d="M522 1615 c0 -16 2 -22 5 -12 2 9 2 23 0 30 -3 6 -5 -1 -5 -18z"/>
<path d="M548 1628 c-8 -21 2 -38 22 -38 19 0 30 17 23 38 -3 6 -13 12 -23 12
-10 0 -20 -6 -22 -12z m32 -13 c0 -8 -4 -15 -10 -15 -5 0 -10 7 -10 15 0 8 5
15 10 15 6 0 10 -7 10 -15z"/>
<path d="M611 1613 c2 -24 2 -25 6 -5 2 12 8 22 13 22 5 0 11 -10 13 -22 4
-20 4 -19 6 5 1 21 -4 27 -19 27 -15 0 -20 -6 -19 -27z"/>
<path d="M758 1628 c-8 -22 3 -38 25 -37 21 0 21 1 2 9 -17 7 -17 9 -2 9 9 1
17 8 17 16 0 18 -36 20 -42 3z"/>
<path d="M811 1613 c2 -24 2 -25 6 -5 5 24 33 31 33 8 0 -14 18 -32 24 -25 2
2 7 15 10 29 7 24 6 24 -8 6 -14 -17 -16 -18 -16 -3 0 11 -8 17 -25 17 -21 0
-25 -4 -24 -27z"/>
<path d="M912 1615 c0 -16 2 -22 5 -12 2 9 2 23 0 30 -3 6 -5 -1 -5 -18z"/>
<path d="M937 1625 c-9 -21 7 -32 48 -33 31 0 35 2 20 8 -17 7 -17 9 -2 9 9 1
17 7 17 15 0 19 -77 19 -83 1z m33 -10 c0 -8 -4 -15 -10 -15 -5 0 -10 7 -10
15 0 8 5 15 10 15 6 0 10 -7 10 -15z"/>
<path d="M1035 1630 c-3 -6 2 -13 11 -17 16 -6 16 -7 -2 -14 -17 -7 -17 -8 4
-8 13 -1 22 5 22 14 0 8 -6 15 -12 15 -9 0 -8 4 2 10 13 8 13 10 -2 10 -9 0
-20 -5 -23 -10z"/>
<path d="M1334 1245 c-10 -24 5 -34 51 -32 33 1 45 5 46 17 0 10 3 9 9 -5 l9
-20 1 20 1 20 9 -20 c8 -20 9 -19 9 1 1 19 -4 21 -46 20 -27 -1 -48 -7 -51
-14 -2 -6 -8 -12 -13 -12 -14 0 -11 28 4 33 7 3 5 6 -6 6 -10 1 -20 -6 -23
-14z m66 -15 c0 -5 -4 -10 -10 -10 -5 0 -10 5 -10 10 0 6 5 10 10 10 6 0 10
-4 10 -10z"/>
<path d="M2145 1251 c-3 -5 0 -13 6 -17 8 -4 7 -9 -2 -15 -10 -6 -5 -8 14 -7
19 2 27 8 27 21 0 13 -5 17 -16 13 -8 -3 -12 -2 -9 4 3 6 2 10 -4 10 -5 0 -12
-4 -16 -9z"/>
<path d="M2417 1241 c-6 -24 0 -31 25 -31 19 0 22 8 12 34 -9 22 -31 20 -37
-3z"/>
<path d="M2484 1245 c-8 -19 3 -35 24 -35 13 0 13 2 -3 14 -18 13 -18 13 1 24
17 10 18 11 1 12 -10 0 -20 -7 -23 -15z"/>
<path d="M2780 1236 c0 -21 4 -24 34 -23 19 0 33 5 30 9 -3 4 0 8 5 8 6 0 11
-4 11 -8 0 -4 9 -8 20 -9 11 -1 18 2 15 8 -4 5 -1 9 4 9 6 0 11 5 11 10 0 7
-6 7 -20 0 -16 -9 -18 -8 -14 5 4 8 1 15 -5 15 -6 0 -11 -4 -11 -8 0 -10 -36
-9 -46 1 -16 15 -34 6 -34 -17z m25 5 c3 -5 1 -12 -5 -16 -5 -3 -10 1 -10 9 0
18 6 21 15 7z"/>
<path d="M3796 1244 c-9 -24 0 -32 39 -32 28 0 35 4 35 19 0 10 -5 19 -11 19
-5 0 -7 -4 -4 -10 3 -5 2 -10 -3 -10 -6 0 -12 7 -16 15 -7 20 -32 19 -40 -1z
m29 -3 c3 -5 1 -12 -5 -16 -5 -3 -10 1 -10 9 0 18 6 21 15 7z"/>
<path d="M3939 1243 c0 -10 -3 -13 -6 -5 -2 6 -15 12 -28 12 -18 0 -22 -4 -18
-19 4 -16 15 -19 83 -20 73 -1 79 0 77 19 -1 11 -6 18 -12 16 -5 -2 -9 -10 -7
-17 1 -9 -3 -8 -11 4 -16 19 -32 24 -21 5 5 -7 2 -9 -9 -5 -9 3 -18 1 -21 -6
-3 -7 -4 -3 -3 7 1 10 -4 21 -10 23 -7 3 -13 -4 -14 -14z"/>
<path d="M4860 1234 c0 -22 3 -26 10 -14 5 8 10 10 10 4 0 -6 11 -11 25 -11
13 0 22 3 20 7 -3 4 2 10 9 13 9 4 17 -1 19 -11 3 -12 5 -11 6 5 1 19 -3 22
-29 19 -16 -2 -31 2 -34 8 -3 6 -5 5 -5 -3 -1 -11 -4 -11 -16 -1 -13 11 -15 8
-15 -16z"/>
<path d="M5098 1253 c-10 -3 -18 -9 -18 -15 0 -7 -4 -7 -12 -1 -15 12 -48 13
-48 2 0 -25 61 -32 72 -9 5 12 7 12 7 -2 1 -14 10 -18 41 -18 31 0 40 4 41 18
0 15 1 15 8 -2 11 -29 41 -29 41 0 0 13 -5 24 -11 24 -5 0 -7 -5 -3 -11 5 -8
1 -8 -14 0 -21 11 -52 5 -64 -13 -5 -7 -8 -4 -8 6 0 20 -9 26 -32 21z m-38
-23 c0 -5 -4 -10 -10 -10 -5 0 -10 5 -10 10 0 6 5 10 10 10 6 0 10 -4 10 -10z"/>
<path d="M1486 1234 c-10 -27 -7 -36 12 -29 9 4 27 7 40 6 14 0 22 5 23 17 0
14 2 14 9 -3 8 -19 9 -19 9 3 1 13 -5 22 -14 22 -8 0 -15 -7 -15 -16 0 -14 -2
-14 -22 0 -28 20 -34 20 -42 0z"/>
<path d="M1595 1240 c-7 -12 2 -30 16 -30 6 0 7 5 4 10 -3 6 -1 10 5 10 6 0 8
5 5 10 -3 6 -10 10 -15 10 -5 0 -12 -4 -15 -10z"/>
<path d="M2205 1241 c-8 -15 3 -31 21 -31 9 0 14 7 12 17 -4 20 -24 28 -33 14z
m25 -11 c0 -5 -4 -10 -10 -10 -5 0 -10 5 -10 10 0 6 5 10 10 10 6 0 10 -4 10
-10z"/>
<path d="M2253 1235 c-7 -21 -5 -22 45 -28 39 -4 42 -3 42 19 0 28 -15 31 -29
7 -10 -17 -10 -17 -11 0 0 22 -38 23 -47 2z"/>
<path d="M2355 1240 c-7 -12 2 -30 16 -30 6 0 7 5 4 10 -3 6 -1 10 5 10 6 0 8
5 5 10 -3 6 -10 10 -15 10 -5 0 -12 -4 -15 -10z"/>
<path d="M2534 1238 c-9 -14 5 -25 31 -25 16 0 25 5 26 16 0 12 2 11 9 -4 l9
-20 1 20 1 20 9 -20 c8 -20 9 -20 9 1 1 18 -5 21 -45 20 -25 0 -48 -4 -50 -8z
m26 -8 c0 -5 -4 -10 -10 -10 -5 0 -10 5 -10 10 0 6 5 10 10 10 6 0 10 -4 10
-10z"/>
<path d="M2644 1238 c-7 -10 4 -28 17 -28 6 0 7 5 4 10 -9 14 8 13 23 -2 9 -9
12 -8 13 8 0 18 1 18 9 -1 l9 -20 1 20 1 20 9 -20 c8 -20 9 -20 9 1 1 18 -5
21 -45 20 -25 0 -48 -4 -50 -8z"/>
<path d="M2921 1237 c-17 -17 -13 -24 14 -24 13 0 22 3 19 8 -3 5 0 9 5 9 6 0
11 -4 11 -10 0 -17 18 -11 23 8 3 14 6 13 14 -8 10 -24 11 -24 19 -5 4 11 8
22 10 25 5 10 -105 7 -115 -3z"/>
<path d="M4065 1240 c-7 -12 2 -30 16 -30 6 0 7 5 4 10 -3 6 -1 10 5 10 6 0 8
5 5 10 -3 6 -10 10 -15 10 -5 0 -12 -4 -15 -10z"/>
<path d="M4970 1245 c0 -16 14 -30 34 -33 11 -2 17 1 14 10 -3 7 -11 13 -19
13 -8 0 -17 5 -21 10 -5 7 -8 7 -8 0z"/>
<path d="M1207 1149 c-40 -24 -47 -59 -47 -252 0 -203 7 -240 51 -262 40 -21
507 -22 548 -1 45 24 51 51 51 252 0 196 -8 242 -48 263 -27 14 -530 14 -555
0z m560 -23 l28 -24 3 -206 3 -206 -30 -30 -29 -30 -256 0 -255 0 -28 24 -28
24 -3 205 -3 204 26 32 27 31 258 0 259 0 28 -24z"/>
<path d="M1597 1053 c-11 -10 -8 -191 3 -198 10 -6 12 12 11 134 0 64 -3 76
-14 64z"/>
<path d="M1367 1042 c-10 -15 -12 -190 -3 -200 14 -13 17 11 14 109 -2 62 -6
99 -11 91z"/>
<path d="M1327 1023 c-11 -11 -8 -163 3 -163 6 0 10 35 10 85 0 85 -1 91 -13
78z"/>
<path d="M1557 1023 c-11 -10 -8 -141 3 -148 6 -4 10 23 10 74 0 81 -1 87 -13
74z"/>
<path d="M1303 945 c0 -44 2 -61 4 -37 2 23 2 59 0 80 -2 20 -4 1 -4 -43z"/>
<path d="M1283 945 c0 -38 2 -53 4 -32 2 20 2 52 0 70 -2 17 -4 1 -4 -38z"/>
<path d="M1533 950 c0 -36 2 -50 4 -32 2 17 2 47 0 65 -2 17 -4 3 -4 -33z"/>
<path d="M1676 960 c2 -58 14 -63 14 -7 0 26 -4 47 -8 47 -4 0 -7 -18 -6 -40z"/>
<path d="M1640 949 c0 -18 3 -29 7 -25 10 10 11 46 1 52 -4 3 -8 -9 -8 -27z"/>
<path d="M1345 770 c-3 -5 -1 -10 4 -10 6 0 11 5 11 10 0 6 -2 10 -4 10 -3 0
-8 -4 -11 -10z"/>
<path d="M1565 700 c-3 -5 -2 -10 4 -10 5 0 13 5 16 10 3 6 2 10 -4 10 -5 0
-13 -4 -16 -10z"/>
<path d="M1886 1135 l-26 -24 0 -220 0 -219 31 -26 31 -26 660 0 660 0 29 29
29 29 0 212 0 212 -29 29 -29 29 -665 0 -664 0 -27 -25z m1379 -10 c25 -24 25
-25 25 -229 0 -112 -3 -212 -6 -221 -17 -44 -25 -45 -714 -45 l-651 0 -24 25
c-25 24 -25 24 -25 239 l0 215 26 20 c26 21 34 21 686 21 l659 0 24 -25z"/>
<path d="M2017 1088 c-9 -5 -17 -16 -17 -24 0 -11 -8 -14 -27 -12 l-28 3 -3
-73 -3 -73 28 3 c20 2 31 -3 38 -17 6 -11 19 -20 30 -20 11 0 24 9 30 20 7 14
18 19 38 17 l27 -3 0 70 0 71 -30 0 c-17 0 -30 5 -30 13 0 20 -34 36 -53 25z
m39 -157 c-3 -5 -15 -7 -26 -4 -28 7 -25 13 6 13 14 0 23 -4 20 -9z"/>
<path d="M2256 1072 l-46 -24 0 -69 0 -69 46 -20 c51 -24 74 -21 74 10 0 17 6
20 33 18 l32 -3 2 65 2 65 -48 26 -48 25 -47 -24z"/>
<path d="M2797 1089 c-9 -6 -17 -18 -17 -27 0 -15 -7 -17 -35 -14 l-35 4 0
-77 0 -77 35 6 c30 6 35 4 35 -13 0 -22 28 -35 54 -25 9 3 16 15 16 25 0 15 5
17 30 13 l30 -6 0 76 0 76 -30 0 c-20 0 -30 5 -30 15 0 21 -32 35 -53 24z"/>
<path d="M3073 1086 c-13 -6 -23 -16 -23 -22 0 -6 -10 -10 -22 -10 -18 1 -24
-5 -26 -26 l-3 -28 96 0 96 0 -3 27 c-2 18 -10 29 -23 32 -11 2 -22 6 -25 10
-15 18 -46 26 -67 17z"/>
<path d="M2510 1075 c-11 -13 -2 -15 61 -15 56 0 70 3 61 12 -18 18 -108 20
-122 3z"/>
<path d="M2494 1036 c-3 -7 -4 -46 -2 -87 l3 -74 73 -3 73 -3 -3 88 -3 88 -68
1 c-46 1 -70 -2 -73 -10z"/>
<path d="M3000 931 c0 -25 4 -31 20 -31 12 0 30 -9 42 -20 27 -25 39 -25 65
-1 11 10 29 21 39 23 10 2 20 13 22 25 3 17 -3 24 -23 29 -18 4 -30 2 -35 -6
-8 -12 -48 -10 -107 6 -20 6 -23 3 -23 -25z"/>
<path d="M2275 779 c-4 -6 -5 -12 -2 -15 2 -3 7 2 10 11 7 17 1 20 -8 4z"/>
<path d="M2020 770 c0 -5 5 -10 11 -10 5 0 7 5 4 10 -3 6 -8 10 -11 10 -2 0
-4 -4 -4 -10z"/>
<path d="M2360 770 c0 -5 5 -10 11 -10 5 0 7 5 4 10 -3 6 -8 10 -11 10 -2 0
-4 -4 -4 -10z"/>
<path d="M3110 770 c0 -5 5 -10 11 -10 5 0 7 5 4 10 -3 6 -8 10 -11 10 -2 0
-4 -4 -4 -10z"/>
<path d="M3211 704 c0 -11 3 -14 6 -6 3 7 2 16 -1 19 -3 4 -6 -2 -5 -13z"/>
<path d="M2335 700 c-3 -5 -1 -10 4 -10 6 0 11 5 11 10 0 6 -2 10 -4 10 -3 0
-8 -4 -11 -10z"/>
<path d="M2795 700 c-3 -5 -1 -10 4 -10 6 0 11 5 11 10 0 6 -2 10 -4 10 -3 0
-8 -4 -11 -10z"/>
<path d="M3387 1149 c-39 -23 -47 -69 -47 -260 0 -198 8 -236 56 -258 18 -8
177 -11 544 -11 l518 0 31 26 31 26 0 219 0 220 -26 24 -27 25 -531 0 c-359
-1 -537 -4 -549 -11z m1097 -20 l26 -20 0 -215 c0 -215 0 -215 -25 -239 l-24
-25 -525 0 -525 0 -28 24 -28 24 0 212 0 212 28 24 28 24 523 0 c514 0 524 0
550 -21z"/>
<path d="M3460 1063 c-39 -15 -50 -36 -50 -97 1 -79 15 -97 78 -104 l49 -4 -2
103 -2 104 -29 2 c-16 1 -36 -1 -44 -4z"/>
<path d="M3718 1054 c-26 -14 -28 -19 -28 -84 0 -60 3 -71 22 -84 12 -9 39
-16 59 -16 29 0 38 5 42 21 4 15 12 20 29 17 22 -3 23 0 23 62 l0 65 -27 -3
c-23 -3 -28 1 -28 17 0 17 -6 21 -32 21 -18 -1 -45 -8 -60 -16z m125 -59 c1
-5 -6 -11 -15 -13 -11 -2 -18 3 -18 13 0 17 30 18 33 0z m7 -44 c0 -5 -7 -12
-16 -15 -22 -9 -24 -8 -24 9 0 8 9 15 20 15 11 0 20 -4 20 -9z"/>
<path d="M4043 1049 c-23 -10 -45 -24 -49 -30 -8 -14 14 -29 46 -29 19 0 21
-3 12 -12 -17 -17 -15 -45 4 -52 28 -11 34 -6 34 28 0 33 2 35 38 38 l37 4
-37 17 c-21 9 -38 25 -40 36 -3 19 -3 19 -45 0z"/>
<path d="M4312 1052 c-9 -6 -12 -33 -10 -98 l3 -89 35 -3 35 -3 -3 101 c-3 95
-4 100 -25 100 -12 0 -28 -4 -35 -8z"/>
<path d="M3580 965 c0 -48 4 -74 10 -70 6 3 10 35 10 70 0 35 -4 67 -10 70 -6
4 -10 -22 -10 -70z"/>
<path d="M4261 963 c0 -40 2 -73 7 -73 4 0 6 24 4 52 -5 89 -9 97 -11 21z"/>
<path d="M4407 1024 c-4 -4 -7 -36 -7 -71 0 -53 3 -63 18 -63 14 0 17 10 16
67 0 61 -10 84 -27 67z"/>
<path d="M3992 898 c5 -16 88 -59 99 -52 16 9 -4 35 -38 49 -43 18 -66 19 -61
3z"/>
<path d="M3510 770 c0 -5 5 -10 11 -10 5 0 7 5 4 10 -3 6 -8 10 -11 10 -2 0
-4 -4 -4 -10z"/>
<path d="M4055 770 c-3 -5 -1 -10 4 -10 6 0 11 5 11 10 0 6 -2 10 -4 10 -3 0
-8 -4 -11 -10z"/>
<path d="M4360 770 c0 -5 5 -10 11 -10 5 0 7 5 4 10 -3 6 -8 10 -11 10 -2 0
-4 -4 -4 -10z"/>
<path d="M3536 707 c3 -10 9 -15 12 -12 3 3 0 11 -7 18 -10 9 -11 8 -5 -6z"/>
<path d="M4597 1132 l-27 -28 0 -213 0 -213 29 -29 29 -29 420 0 420 0 31 26
31 26 0 218 0 217 -26 27 -27 26 -426 0 -427 0 -27 -28z m897 -3 l26 -20 0
-215 0 -215 -25 -25 -25 -25 -426 3 -426 3 -19 24 c-17 21 -19 41 -19 233 0
208 0 209 25 233 l24 25 419 0 c409 0 420 -1 446 -21z"/>
<path d="M4731 1067 c-53 -26 -61 -42 -26 -51 29 -7 25 -26 -6 -26 -10 0 -19
-7 -19 -15 0 -8 6 -12 14 -9 7 3 20 -2 29 -10 9 -9 25 -16 36 -16 18 0 21 6
21 41 0 40 1 41 28 36 15 -3 34 -2 42 4 12 6 9 9 -11 9 -30 0 -56 18 -61 42
-3 16 -7 16 -47 -5z"/>
<path d="M5038 1083 c-14 -3 -18 -15 -18 -54 0 -46 2 -49 25 -49 24 0 25 3 25
55 0 30 -3 54 -7 54 -5 -1 -16 -3 -25 -6z"/>
<path d="M5303 1083 c-15 -5 -17 -43 -3 -43 6 0 10 -5 10 -11 0 -5 -5 -7 -10
-4 -7 5 -10 -16 -8 -62 2 -51 7 -68 18 -71 13 -2 15 12 14 93 -1 53 -3 97 -5
99 -2 2 -10 1 -16 -1z"/>
<path d="M4983 1053 c-19 -7 -17 -73 2 -73 11 0 15 11 15 40 0 22 -1 40 -2 39
-2 0 -9 -3 -15 -6z"/>
<path d="M5240 1040 c0 -11 4 -20 9 -20 5 0 7 9 4 20 -3 11 -7 20 -9 20 -2 0
-4 -9 -4 -20z"/>
<path d="M5100 1030 c0 -5 5 -10 10 -10 6 0 10 -9 10 -20 0 -26 26 -26 33 0 3
13 -1 24 -13 30 -24 13 -40 13 -40 0z"/>
<path d="M5358 1033 c-31 -8 -21 -32 12 -31 22 1 30 6 30 20 0 18 -8 20 -42
11z"/>
<path d="M4970 936 c0 -13 7 -26 15 -30 11 -4 15 1 15 18 0 13 -7 26 -15 30
-11 4 -15 -1 -15 -18z"/>
<path d="M5019 943 c0 -4 -2 -16 -4 -26 -3 -16 28 -47 48 -47 4 0 7 17 5 38
-2 30 -7 38 -25 40 -13 2 -23 0 -24 -5z"/>
<path d="M4680 924 c0 -7 20 -23 44 -34 54 -24 56 -24 56 -2 0 12 -16 22 -50
34 -41 13 -50 14 -50 2z"/>
<path d="M5330 770 c0 -5 5 -10 11 -10 5 0 7 5 4 10 -3 6 -8 10 -11 10 -2 0
-4 -4 -4 -10z"/>
<path d="M5056 703 c-6 -14 -5 -15 5 -6 7 7 10 15 7 18 -3 3 -9 -2 -12 -12z"/>
<path d="M390 976 c0 -7 -9 -16 -21 -19 -28 -7 -21 -41 9 -45 20 -3 22 1 22
37 0 23 -2 41 -5 41 -3 0 -5 -6 -5 -14z m0 -41 c0 -8 -4 -15 -10 -15 -5 0 -10
7 -10 15 0 8 5 15 10 15 6 0 10 -7 10 -15z"/>
<path d="M131 943 c1 -21 3 -30 6 -20 5 21 29 23 37 2 7 -19 42 -20 49 -2 10
26 -8 39 -47 32 -37 -7 -53 9 -18 18 13 4 11 5 -5 6 -20 1 -23 -4 -22 -36z
m79 -8 c0 -8 -4 -15 -10 -15 -5 0 -10 7 -10 15 0 8 5 15 10 15 6 0 10 -7 10
-15z"/>
<path d="M700 960 c0 -11 5 -20 10 -20 17 0 11 -18 -7 -23 -14 -4 -13 -5 4 -6
30 -1 40 19 17 36 -16 12 -17 15 -4 23 13 8 12 10 -2 10 -11 0 -18 -8 -18 -20z"/>
<path d="M478 964 c-11 -11 5 -54 21 -54 13 0 13 2 2 9 -8 5 -11 16 -8 25 6
15 -5 30 -15 20z"/>
<path d="M241 938 c-1 -22 4 -28 19 -28 15 0 20 6 19 28 l0 27 -11 -25 -11
-25 -7 25 -8 25 -1 -27z"/>
<path d="M301 933 c2 -24 2 -25 6 -5 2 12 8 22 13 22 5 0 11 -10 13 -22 4 -20
4 -19 6 5 1 21 -4 27 -19 27 -15 0 -20 -6 -19 -27z"/>
<path d="M438 952 c11 -7 10 -10 -3 -16 -21 -8 -10 -26 16 -26 28 0 22 44 -6
48 -15 2 -16 1 -7 -6z"/>
<path d="M522 935 c0 -16 2 -22 5 -12 2 9 2 23 0 30 -3 6 -5 -1 -5 -18z"/>
<path d="M546 951 c-10 -16 5 -41 24 -41 19 0 30 17 23 38 -5 14 -39 16 -47 3z
m34 -16 c0 -8 -4 -15 -10 -15 -5 0 -10 7 -10 15 0 8 5 15 10 15 6 0 10 -7 10
-15z"/>
<path d="M611 933 c2 -24 2 -25 6 -5 2 12 8 22 13 22 5 0 11 -10 13 -22 4 -20
4 -19 6 5 1 21 -4 27 -19 27 -15 0 -20 -6 -19 -27z"/>
<path d="M758 948 c-8 -22 3 -38 25 -37 21 0 21 1 2 9 -17 7 -17 9 -2 9 9 1
17 8 17 16 0 18 -36 20 -42 3z"/>
<path d="M811 933 c2 -24 2 -25 6 -5 5 24 33 31 33 8 0 -14 18 -32 24 -25 2 2
7 15 10 29 7 24 6 24 -8 6 -14 -17 -16 -18 -16 -3 0 11 -8 17 -25 17 -21 0
-25 -4 -24 -27z"/>
<path d="M912 935 c0 -16 2 -22 5 -12 2 9 2 23 0 30 -3 6 -5 -1 -5 -18z"/>
<path d="M937 945 c-9 -21 7 -32 48 -33 31 0 35 2 20 8 -17 7 -17 9 -2 9 9 1
17 7 17 15 0 19 -77 19 -83 1z m33 -10 c0 -8 -4 -15 -10 -15 -5 0 -10 7 -10
15 0 8 5 15 10 15 6 0 10 -7 10 -15z"/>
<path d="M1035 950 c-3 -6 2 -13 11 -17 16 -6 16 -7 -2 -14 -17 -7 -17 -8 4
-8 13 -1 22 5 22 14 0 8 -6 15 -12 15 -9 0 -8 4 2 10 13 8 13 10 -2 10 -9 0
-20 -5 -23 -10z"/>
<path d="M250 341 c0 -6 8 -11 18 -12 13 0 14 -2 2 -6 -37 -14 -33 -43 6 -43
22 0 25 4 22 33 -2 24 -8 33 -25 35 -13 2 -23 -1 -23 -7z"/>
<path d="M310 315 c0 -19 5 -35 10 -35 6 0 10 11 10 25 0 14 5 25 10 25 6 0
10 -11 10 -25 0 -34 18 -32 23 3 l4 27 2 -27 c2 -40 21 -34 21 6 0 33 -1 33
-45 34 -45 1 -45 1 -45 -33z"/>
<path d="M415 341 c-3 -7 3 -11 17 -12 l23 0 -22 -9 c-35 -14 -29 -40 8 -40
28 0 30 2 27 33 -2 24 -8 33 -25 35 -11 2 -24 -2 -28 -7z m35 -35 c0 -3 -4 -8
-10 -11 -5 -3 -10 -1 -10 4 0 6 5 11 10 11 6 0 10 -2 10 -4z"/>
<path d="M480 340 c0 -5 5 -10 12 -10 9 0 9 -3 0 -12 -20 -20 -14 -35 13 -35
14 0 25 3 25 8 0 5 -5 9 -10 9 -7 0 -7 6 0 19 14 28 13 31 -15 31 -14 0 -25
-4 -25 -10z"/>
<path d="M541 332 c-12 -23 4 -52 29 -52 10 0 21 6 23 13 4 10 6 10 6 0 2 -24
21 -13 21 12 0 14 5 25 10 25 6 0 10 -11 10 -25 0 -14 5 -25 11 -25 6 0 9 14
7 33 -2 27 -8 33 -30 35 -21 3 -28 -1 -28 -15 -1 -17 -1 -17 -11 0 -13 22 -36
22 -48 -1z m26 -34 c-3 -7 -5 -2 -5 12 0 14 2 19 5 13 2 -7 2 -19 0 -25z"/>
<path d="M1020 291 c0 -10 19 -25 25 -20 1 2 -3 10 -11 17 -8 7 -14 8 -14 3z"/>
<path d="M340 260 c0 -5 -7 -6 -17 -3 -12 5 -14 3 -8 -8 8 -12 6 -12 -8 0 -11
8 -17 9 -17 2 0 -7 -8 -8 -26 -1 -22 9 -25 8 -20 -6 3 -8 6 -20 6 -25 0 -14
38 -11 43 4 4 10 6 10 6 0 1 -7 7 -13 15 -13 8 0 17 6 19 13 4 10 6 10 6 0 2
-24 31 -14 31 11 0 13 -7 26 -15 30 -8 3 -15 1 -15 -4z m17 -32 c-3 -8 -6 -5
-6 6 -1 11 2 17 5 13 3 -3 4 -12 1 -19z"/>
<path d="M527 263 c-15 -24 7 -48 45 -49 21 -1 36 2 34 5 -3 4 4 7 14 7 10 0
16 -4 13 -9 -3 -5 0 -8 7 -5 18 6 22 20 11 37 -7 10 -13 11 -31 1 -12 -7 -20
-8 -17 -3 4 5 -7 10 -23 10 -17 0 -30 -5 -31 -11 0 -6 -4 -2 -8 8 -5 12 -10
16 -14 9z m48 -22 c3 -5 1 -12 -5 -16 -5 -3 -10 1 -10 9 0 18 6 21 15 7z"/>
<path d="M390 245 c0 -8 6 -15 13 -15 8 0 8 -3 -2 -9 -10 -6 -2 -9 23 -9 28 0
36 4 36 18 0 24 -20 37 -30 20 -5 -9 -9 -9 -14 -1 -10 16 -26 14 -26 -4z"/>
<path d="M471 233 l1 -28 8 25 8 25 7 -22 c8 -25 25 -31 25 -10 0 17 -20 37
-37 37 -8 0 -13 -11 -12 -27z"/>
<path d="M1568 213 c6 -2 18 -2 25 0 6 3 1 5 -13 5 -14 0 -19 -2 -12 -5z"/>
<path d="M1028 203 c7 -3 16 -2 19 1 4 3 -2 6 -13 5 -11 0 -14 -3 -6 -6z"/>
<path d="M1060 192 c0 -7 -15 -13 -32 -13 -32 -2 -33 -2 -4 -6 28 -5 56 11 43
24 -4 3 -7 1 -7 -5z"/>
<path d="M2132 180 c0 -14 2 -19 5 -12 2 6 2 18 0 25 -3 6 -5 1 -5 -13z"/>
<path d="M2381 174 c0 -11 3 -14 6 -6 3 7 2 16 -1 19 -3 4 -6 -2 -5 -13z"/>
<path d="M2018 173 c6 -2 18 -2 25 0 6 3 1 5 -13 5 -14 0 -19 -2 -12 -5z"/>
<path d="M2073 173 c9 -2 23 -2 30 0 6 3 -1 5 -18 5 -16 0 -22 -2 -12 -5z"/>
<path d="M2428 173 c6 -2 18 -2 25 0 6 3 1 5 -13 5 -14 0 -19 -2 -12 -5z"/>
<path d="M2488 173 c12 -2 30 -2 40 0 9 3 -1 5 -23 4 -22 0 -30 -2 -17 -4z"/>
<path d="M4182 151 c-9 -27 -8 -29 14 -27 26 1 26 1 18 34 -8 30 -20 28 -32
-7z"/>
<path d="M4237 157 c3 -15 9 -30 14 -33 14 -8 10 20 -5 41 -13 18 -14 18 -9
-8z"/>
<path d="M4260 169 c0 -8 6 -24 14 -34 13 -18 14 -18 20 3 4 12 12 20 17 17 5
-4 9 -1 9 5 0 7 7 9 16 6 8 -3 12 -2 9 4 -9 15 -55 8 -55 -9 0 -11 -4 -10 -15
5 -11 15 -14 16 -15 3z"/>
<path d="M4391 162 c-15 -28 0 -41 47 -40 35 0 42 4 42 20 0 16 -5 19 -22 14
-13 -3 -29 -6 -36 -6 -7 0 -10 -4 -7 -10 3 -5 1 -10 -4 -10 -6 0 -11 9 -11 21
0 15 5 19 15 15 8 -3 15 -1 15 4 0 17 -29 11 -39 -8z"/>
<path d="M4900 150 c0 -25 4 -30 23 -29 16 1 18 2 5 6 -10 2 -18 13 -18 23 0
10 8 21 18 23 13 4 11 5 -5 6 -19 1 -23 -4 -23 -29z"/>
<path d="M4966 159 c-24 -23 -13 -39 30 -39 29 0 34 3 33 23 0 21 -1 21 -9 2
-5 -11 -9 -14 -9 -7 -1 7 -7 19 -14 26 -10 10 -16 9 -31 -5z m14 -19 c0 -5 -4
-10 -10 -10 -5 0 -10 5 -10 10 0 6 5 10 10 10 6 0 10 -4 10 -10z"/>
<path d="M5436 160 c-19 -20 -15 -40 10 -40 9 0 14 11 14 30 0 35 1 34 -24 10z
m14 -20 c0 -5 -2 -10 -4 -10 -3 0 -8 5 -11 10 -3 6 -1 10 4 10 6 0 11 -4 11
-10z"/>
<path d="M5500 153 c0 -18 2 -33 4 -33 9 0 13 39 5 51 -6 10 -9 4 -9 -18z"/>
<path d="M5526 158 c-3 -13 -1 -27 4 -32 7 -7 10 1 10 22 0 37 -5 41 -14 10z"/>
<path d="M5777 168 c-2 -7 -1 -22 4 -33 6 -16 8 -14 8 13 1 33 -4 41 -12 20z"/>
<path d="M5880 163 c0 -15 2 -16 10 -3 7 12 12 12 22 2 9 -9 9 -12 -1 -12 -7
0 -10 -4 -6 -9 3 -5 -3 -12 -12 -14 -14 -4 -13 -5 4 -6 13 -1 23 6 26 17 3 10
5 6 6 -11 0 -16 5 -26 11 -22 16 10 11 33 -12 55 -27 25 -48 26 -48 3z"/>
<path d="M4827 163 c-3 -5 -1 -17 4 -28 7 -17 8 -17 8 8 1 27 -4 34 -12 20z"/>
<path d="M5122 163 c-19 -4 -21 -7 -11 -19 10 -12 9 -13 -6 -8 -13 5 -16 4
-11 -4 11 -18 36 -14 37 6 0 14 2 14 9 -3 8 -18 9 -17 9 8 1 15 0 26 -1 26 -2
-1 -13 -4 -26 -6z"/>
<path d="M5823 163 c-7 -2 -13 -14 -12 -26 0 -21 1 -21 8 -2 l8 20 5 -20 c5
-16 6 -14 7 8 0 15 0 27 -1 26 -2 0 -9 -3 -15 -6z"/>
<path d="M1420 150 c-24 -8 -24 -8 5 -9 17 0 37 4 45 9 12 8 11 10 -5 9 -11
-1 -31 -5 -45 -9z"/>
<path d="M1915 141 c-3 -12 -11 -19 -16 -16 -5 3 -6 -1 -3 -9 3 -9 8 -16 10
-16 7 0 25 52 20 57 -2 3 -7 -5 -11 -16z"/>
<path d="M2590 156 c0 -2 6 -16 14 -30 8 -17 15 -22 18 -14 3 7 -4 21 -14 31
-10 9 -18 15 -18 13z"/>
<path d="M4499 141 c9 -17 15 -20 21 -11 5 9 9 9 14 1 4 -6 13 -11 19 -11 7 0
6 4 -3 10 -13 8 -12 10 3 10 9 0 17 4 17 10 0 5 -11 9 -25 8 -14 -1 -25 -6
-25 -11 0 -5 -7 -3 -17 4 -15 13 -15 12 -4 -10z"/>
<path d="M4590 140 c0 -11 2 -20 4 -20 2 0 6 9 9 20 3 11 1 20 -4 20 -5 0 -9
-9 -9 -20z"/>
<path d="M4621 138 c0 -22 1 -22 8 -3 l8 20 5 -20 c5 -18 6 -18 7 3 1 13 -5
22 -14 22 -9 0 -15 -9 -14 -22z"/>
<path d="M4666 151 c-3 -4 -1 -13 5 -21 7 -12 9 -11 10 5 l0 20 9 -20 c8 -18
9 -18 9 -2 1 10 6 15 11 12 6 -4 8 -9 6 -13 -2 -4 14 -8 35 -10 32 -2 39 1 40
15 0 16 2 15 9 -2 8 -19 9 -19 9 3 1 13 -5 22 -14 22 -8 0 -15 -7 -15 -15 0
-9 -9 -15 -22 -14 -17 1 -19 2 -5 6 9 2 17 8 17 12 0 10 -98 12 -104 2z"/>
<path d="M5045 150 c-9 -14 3 -30 23 -30 14 1 14 2 -3 12 -19 11 -19 11 0 19
16 6 17 8 3 8 -9 1 -20 -3 -23 -9z"/>
<path d="M5170 140 c0 -9 10 -16 25 -18 19 -1 25 3 25 18 0 15 -6 19 -25 18
-15 -2 -25 -9 -25 -18z m40 0 c0 -5 -2 -10 -4 -10 -3 0 -8 5 -11 10 -3 6 -1
10 4 10 6 0 11 -4 11 -10z"/>
<path d="M5241 138 c0 -22 1 -22 8 -3 l8 20 5 -20 c5 -18 6 -18 7 3 1 13 -5
22 -14 22 -9 0 -15 -9 -14 -22z"/>
<path d="M5326 144 c-9 -23 -8 -24 14 -24 13 0 20 7 20 20 0 24 -25 27 -34 4z"/>
<path d="M5377 140 c-3 -11 -1 -20 4 -20 5 0 9 8 10 18 0 14 2 14 9 -3 8 -19
9 -19 9 3 1 28 -25 30 -32 2z"/>
<path d="M5555 150 c-10 -16 4 -30 31 -30 16 0 24 6 25 18 0 14 2 14 9 -3 8
-19 9 -19 9 3 1 19 -4 22 -33 22 -19 0 -38 -4 -41 -10z m25 -10 c0 -5 -2 -10
-4 -10 -3 0 -8 5 -11 10 -3 6 -1 10 4 10 6 0 11 -4 11 -10z"/>
<path d="M5640 135 c0 -29 12 -32 34 -9 19 19 12 34 -15 34 -14 0 -19 -7 -19
-25z"/>
<path d="M5700 140 c0 -11 2 -20 4 -20 2 0 6 9 9 20 3 11 1 20 -4 20 -5 0 -9
-9 -9 -20z"/>
<path d="M5725 150 c-8 -13 3 -30 20 -30 14 0 27 24 18 34 -10 9 -31 7 -38 -4z"/>
<path d="M5954 143 c4 -8 6 -17 6 -19 0 -14 20 -1 21 14 0 14 2 14 9 -3 8 -18
9 -18 9 -2 1 10 6 15 11 12 6 -4 8 -10 5 -15 -8 -13 25 -21 44 -10 10 5 27 6
39 3 13 -3 22 -1 22 6 0 6 0 14 0 19 0 4 -38 7 -85 8 -71 1 -85 -1 -81 -13z"/>
<path d="M6143 146 c3 -8 1 -17 -6 -20 -7 -2 -2 -5 10 -5 16 -1 21 4 20 19 -1
11 -8 20 -15 20 -8 0 -12 -6 -9 -14z"/>
<path d="M6185 149 c-9 -14 1 -22 30 -26 20 -3 25 1 24 19 0 22 -1 22 -9 3 -7
-17 -9 -17 -9 -2 -1 19 -26 23 -36 6z"/>
<path d="M6250 141 c0 -25 20 -28 21 -3 0 14 2 14 8 -3 l8 -20 5 20 c5 16 6
17 7 3 0 -10 6 -18 12 -18 6 0 9 8 7 18 -2 11 -14 18 -36 20 -27 3 -32 0 -32
-17z"/>
<path d="M950 146 c0 -2 8 -10 18 -17 15 -13 16 -12 3 4 -13 16 -21 21 -21 13z"/>
<path d="M1708 143 c12 -2 30 -2 40 0 9 3 -1 5 -23 4 -22 0 -30 -2 -17 -4z"/>
<path d="M4335 141 c3 -5 -2 -12 -10 -14 -12 -4 -12 -5 1 -3 19 1 32 26 14 26
-6 0 -9 -4 -5 -9z"/>
<path d="M825 130 c3 -5 8 -10 11 -10 2 0 4 5 4 10 0 6 -5 10 -11 10 -5 0 -7
-4 -4 -10z"/>
<path d="M1056 127 c3 -10 9 -15 12 -12 3 3 0 11 -7 18 -10 9 -11 8 -5 -6z"/>
<path d="M1220 136 c0 -2 7 -7 16 -10 8 -3 12 -2 9 4 -6 10 -25 14 -25 6z"/>
<path d="M1500 125 c0 -8 2 -15 4 -15 2 0 6 7 10 15 3 8 1 15 -4 15 -6 0 -10
-7 -10 -15z"/>
<path d="M1643 125 c0 -8 4 -15 9 -15 4 0 8 7 8 15 0 8 -4 15 -8 15 -5 0 -9
-7 -9 -15z"/>
<path d="M2200 130 c-9 -6 -10 -10 -3 -10 6 0 15 5 18 10 8 12 4 12 -15 0z"/>
<path d="M847 110 c-3 -11 -1 -20 4 -20 5 0 9 -7 9 -15 0 -8 5 -15 10 -15 6 0
10 7 10 15 0 8 -4 15 -10 15 -5 0 -7 6 -4 14 3 8 1 17 -4 20 -5 3 -12 -3 -15
-14z"/>
<path d="M1771 114 c0 -11 3 -14 6 -6 3 7 2 16 -1 19 -3 4 -6 -2 -5 -13z"/>
<path d="M606 112 c-3 -5 1 -9 9 -9 8 0 12 4 9 9 -3 4 -7 8 -9 8 -2 0 -6 -4
-9 -8z"/>
<path d="M1550 108 c0 -14 8 -18 33 -17 27 2 28 2 7 6 -14 3 -28 10 -32 17 -5
7 -8 5 -8 -6z"/>
<path d="M2168 108 c6 -6 18 -8 28 -6 14 3 12 5 -9 10 -19 3 -25 2 -19 -4z"/>
<path d="M1030 100 c0 -5 5 -10 11 -10 5 0 7 5 4 10 -3 6 -8 10 -11 10 -2 0
-4 -4 -4 -10z"/>
<path d="M2318 103 c7 -3 16 -2 19 1 4 3 -2 6 -13 5 -11 0 -14 -3 -6 -6z"/>
<path d="M1012 80 c0 -14 2 -19 5 -12 2 6 2 18 0 25 -3 6 -5 1 -5 -13z"/>
<path d="M1420 69 c0 -5 5 -7 10 -4 6 3 10 8 10 11 0 2 -4 4 -10 4 -5 0 -10
-5 -10 -11z"/>
<path d="M2220 70 c-12 -8 -10 -10 8 -10 13 0 20 4 17 10 -7 12 -6 12 -25 0z"/>
<path d="M2943 65 c0 -12 13 -15 56 -14 l56 2 -45 6 c-25 4 -50 10 -56 13 -6
4 -11 1 -11 -7z"/>
<path d="M4916 60 c8 -31 24 -50 24 -29 0 8 -7 24 -16 35 -14 18 -15 18 -8 -6z"/>
<path d="M4940 69 c0 -8 6 -23 14 -34 12 -17 13 -16 20 10 4 15 5 30 1 33 -3
3 -5 -3 -5 -13 0 -18 -1 -18 -15 1 -11 15 -14 16 -15 3z"/>
<path d="M5080 71 c0 -6 -9 -11 -19 -11 -13 0 -19 -6 -18 -20 2 -24 47 -24 48
0 0 10 3 9 9 -5 8 -18 9 -18 9 -2 1 10 -6 25 -14 33 -8 9 -15 11 -15 5z"/>
<path d="M5420 51 c0 -25 4 -31 21 -31 16 0 20 5 17 27 -2 17 -10 29 -20 31
-14 3 -18 -3 -18 -27z m30 -1 c0 -11 -4 -20 -10 -20 -5 0 -10 9 -10 20 0 11 5
20 10 20 6 0 10 -9 10 -20z"/>
<path d="M5481 66 c-15 -18 -3 -46 20 -46 10 0 19 4 19 10 0 5 -7 7 -15 4 -11
-4 -15 0 -15 16 0 16 4 20 16 16 8 -3 12 -2 9 4 -9 14 -21 12 -34 -4z"/>
<path d="M5596 57 c-5 -15 -6 -31 -2 -34 11 -11 18 5 14 34 l-4 28 -8 -28z"/>
<path d="M5710 54 c0 -19 -4 -25 -15 -20 -8 3 -15 1 -15 -4 0 -6 9 -10 20 -10
16 0 20 7 20 30 0 17 -2 30 -5 30 -3 0 -5 -12 -5 -26z"/>
<path d="M5894 68 c-5 -8 -2 -9 9 -5 22 8 22 -1 0 -25 -15 -17 -14 -18 25 -18
30 0 42 4 42 14 0 8 -5 18 -11 22 -8 4 -7 9 2 15 11 7 10 9 -3 9 -10 0 -18 -7
-18 -15 0 -8 5 -15 10 -15 6 0 10 -4 10 -10 0 -5 -12 -10 -26 -10 -22 0 -24 2
-14 15 12 14 6 35 -10 35 -5 0 -12 -5 -16 -12z"/>
<path d="M6013 67 c-4 -6 0 -8 10 -4 9 3 18 -1 21 -9 8 -21 8 -24 -5 -24 -5 0
-7 6 -3 13 5 8 2 8 -9 -2 -24 -19 -22 -20 23 -19 37 0 40 2 37 26 -3 20 -10
25 -35 27 -18 2 -35 -2 -39 -8z"/>
<path d="M6143 67 c-4 -6 0 -8 10 -4 9 3 18 -1 21 -9 8 -21 8 -24 -5 -24 -5 0
-7 6 -3 13 5 8 2 8 -9 -2 -24 -19 -22 -20 24 -19 37 0 40 2 37 26 -2 22 -8 27
-36 28 -18 1 -35 -3 -39 -9z m67 -18 c0 -11 -4 -18 -10 -14 -5 3 -7 12 -3 20
7 21 13 19 13 -6z"/>
<path d="M6247 73 c-2 -5 -1 -19 4 -33 7 -23 7 -23 8 8 1 31 -3 40 -12 25z"/>
<path d="M6276 65 c-3 -9 0 -15 9 -15 18 0 20 -16 3 -23 -8 -3 -6 -6 5 -6 19
-1 23 24 6 35 -8 4 -7 9 2 15 11 7 11 9 -2 9 -9 0 -19 -7 -23 -15z"/>
<path d="M2288 63 c7 -3 16 -2 19 1 4 3 -2 6 -13 5 -11 0 -14 -3 -6 -6z"/>
<path d="M3253 63 c20 -2 54 -2 75 0 20 2 3 4 -38 4 -41 0 -58 -2 -37 -4z"/>
<path d="M5247 63 c-3 -5 -1 -17 4 -28 7 -17 8 -17 8 8 1 27 -4 34 -12 20z"/>
<path d="M4996 44 c-9 -23 -8 -24 14 -24 13 0 20 7 20 20 0 24 -25 27 -34 4z"/>
<path d="M5129 58 c-6 -21 -5 -38 2 -38 5 0 9 9 9 20 0 16 -7 28 -11 18z"/>
<path d="M5155 42 c6 -28 6 -28 15 -7 7 17 9 17 9 3 1 -12 9 -18 24 -18 18 0
19 -2 7 -11 -13 -9 -13 -10 0 -6 8 2 16 15 18 29 3 24 0 26 -36 26 -32 1 -39
-3 -37 -16z m65 -2 c0 -5 -2 -10 -4 -10 -3 0 -8 5 -11 10 -3 6 -1 10 4 10 6 0
11 -4 11 -10z"/>
<path d="M5275 50 c-8 -14 3 -30 21 -30 8 0 14 9 14 20 0 21 -24 28 -35 10z"/>
<path d="M5323 40 c-1 -11 2 -20 8 -20 5 0 9 8 10 18 0 14 2 14 9 -3 8 -19 9
-19 9 3 1 29 -34 31 -36 2z"/>
<path d="M5732 43 c5 -26 58 -31 59 -6 0 16 1 16 9 -2 8 -19 9 -19 9 3 1 17
-5 22 -23 22 -15 0 -26 -7 -29 -17 -4 -17 -5 -17 -6 0 0 9 -6 17 -12 17 -6 0
-9 -8 -7 -17z"/>
<path d="M5825 50 c-9 -14 3 -30 23 -29 14 0 13 2 -3 9 -17 7 -17 9 -2 9 20 1
23 21 3 21 -8 0 -18 -4 -21 -10z"/>
<path d="M3560 40 c0 -5 5 -10 10 -10 6 0 10 5 10 10 0 6 -4 10 -10 10 -5 0
-10 -4 -10 -10z"/>
<path d="M143 23 c32 -2 81 -2 110 0 29 2 3 3 -58 3 -60 0 -84 -1 -52 -3z"/>
<path d="M860 20 c0 -5 5 -10 10 -10 6 0 10 5 10 10 0 6 -4 10 -10 10 -5 0
-10 -4 -10 -10z"/>
</g>
</svg>
