<?xml version="1.0" standalone="no"?>
<!DOCTYPE svg PUBLIC "-//W3C//DTD SVG 20010904//EN"
 "http://www.w3.org/TR/2001/REC-SVG-20010904/DTD/svg10.dtd">
<svg version="1.0" xmlns="http://www.w3.org/2000/svg"
 width="1024.000000pt" height="682.000000pt" viewBox="0 0 1024.000000 682.000000"
 preserveAspectRatio="xMidYMid meet">

<g transform="translate(0.000000,682.000000) scale(0.100000,-0.100000)"
fill="#000000" stroke="none">
<path d="M0 3410 l0 -3410 5120 0 5120 0 0 3410 0 3410 -5120 0 -5120 0 0
-3410z m6308 2923 c33 -46 16 -110 -38 -141 -20 -12 -28 -23 -27 -42 2 -21 -3
-25 -32 -28 -46 -5 -78 29 -62 64 6 13 8 37 5 53 -15 75 44 139 110 120 17 -5
37 -17 44 -26z m-2540 -69 c29 -33 29 -78 -3 -109 -50 -51 -134 -13 -135 61 0
77 85 107 138 48z m2791 -29 c32 -16 41 -33 41 -73 -1 -35 -19 -58 -61 -76
-29 -12 -37 -12 -61 0 -54 28 -47 121 12 151 32 16 35 16 69 -2z m-1827 -302
c20 -18 24 -63 6 -81 -19 -19 -55 -14 -72 10 -21 30 -20 44 4 68 24 24 38 25
62 3z m736 5 c7 -7 12 -20 12 -30 0 -24 14 -23 49 3 24 18 32 19 51 9 12 -6
28 -27 36 -47 9 -19 18 -33 21 -29 3 3 21 -1 41 -10 19 -8 51 -13 69 -12 54 3
70 -38 31 -79 -18 -20 -20 -26 -10 -48 18 -40 15 -51 -23 -74 -19 -11 -35 -26
-35 -33 0 -7 -5 -30 -10 -50 -16 -57 -100 -101 -100 -53 0 8 -10 17 -22 19
-87 19 -122 23 -139 19 -10 -3 -26 0 -35 8 -11 9 -69 13 -212 15 l-197 3 -13
37 c-7 21 -15 91 -18 155 -5 125 2 148 45 134 10 -3 22 -1 26 5 3 5 22 10 41
10 27 0 34 -4 34 -19 0 -21 -42 -35 -58 -19 -5 5 -22 -2 -41 -18 -25 -20 -29
-29 -20 -40 6 -7 15 -42 20 -76 22 -148 25 -153 64 -138 11 4 67 6 123 4 l102
-4 0 24 c0 25 31 52 44 39 3 -3 6 -19 6 -34 0 -18 7 -32 19 -39 22 -11 25 -8
35 33 12 49 61 31 61 -23 0 -22 5 -26 45 -31 25 -3 57 -9 71 -13 22 -6 32 -2
61 29 42 45 79 175 57 202 -20 23 -59 35 -112 34 -41 -1 -54 4 -76 27 -26 25
-28 26 -42 9 -21 -26 -71 -10 -80 28 -15 52 45 107 79 73z m626 -71 c-3 -8
-13 -14 -22 -12 -9 2 -20 4 -24 4 -15 2 -8 31 7 31 8 0 15 5 15 11 0 6 7 4 15
-5 8 -8 12 -21 9 -29z m-744 -7 c0 -25 -41 -28 -64 -4 -23 22 -21 24 24 24 33
0 40 -3 40 -20z m-134 -4 c18 -14 18 -15 -9 -21 -30 -8 -54 6 -43 24 10 15 28
14 52 -3z m1022 -33 c-23 -28 -77 -2 -65 31 5 12 11 12 41 -2 27 -12 33 -19
24 -29z m-1143 -74 c10 -30 -11 -48 -32 -27 -13 14 -14 20 -3 32 17 22 27 20
35 -5z m351 -13 c7 -30 -1 -46 -25 -46 -29 0 -45 25 -31 49 15 29 48 27 56 -3z
m-681 -2 c20 -20 16 -53 -7 -68 -37 -23 -76 35 -48 70 16 18 35 18 55 -2z
m440 -4 c0 -7 -6 -15 -12 -17 -8 -3 -13 4 -13 17 0 13 5 20 13 18 6 -3 12 -11
12 -18z m353 8 c25 -25 4 -78 -32 -78 -10 0 -36 32 -36 45 0 17 27 45 44 45 6
0 17 -5 24 -12z m-1990 -28 c34 -32 27 -75 -16 -91 -34 -13 -72 12 -72 47 0
61 45 84 88 44z m1090 -31 c2 -18 -3 -29 -15 -33 -25 -10 -46 20 -32 46 14 27
43 19 47 -13z m-118 -27 c0 -24 -8 -32 -26 -25 -22 8 -17 43 6 43 13 0 20 -7
20 -18z m390 -17 c15 -19 -1 -65 -23 -65 -29 0 -51 53 -30 73 11 12 40 7 53
-8z m1070 -26 c9 -16 8 -26 -5 -45 -24 -38 -65 -25 -65 21 0 44 50 62 70 24z
m-1290 -14 c15 -18 6 -45 -13 -45 -8 0 -20 7 -27 15 -10 12 -10 18 0 30 16 19
24 19 40 0z m-100 -20 c16 -19 3 -55 -19 -55 -29 0 -44 25 -31 49 13 25 33 27
50 6z m-1677 -12 c25 -29 26 -73 1 -97 -20 -21 -73 -20 -96 1 -22 20 -23 70
-1 95 21 23 75 24 96 1z m3151 -18 c3 -9 -1 -18 -10 -22 -19 -7 -28 2 -21 22
8 19 23 19 31 0z m410 -7 c23 -37 -36 -77 -64 -44 -10 13 -9 20 4 42 19 28 43
29 60 2z m-2987 5 c-4 -3 -2 -12 4 -19 14 -17 5 -44 -15 -44 -39 0 -54 54 -18
63 27 7 36 7 29 0z m514 -77 c26 -38 54 -75 62 -81 9 -6 25 -35 35 -63 l20
-52 -66 -46 c-113 -76 -136 -93 -159 -119 -12 -14 -26 -25 -32 -25 -5 0 -20
-13 -33 -29 -13 -15 -36 -36 -51 -46 -15 -9 -30 -28 -33 -41 -4 -14 -14 -24
-24 -24 -10 0 -25 -10 -33 -22 -8 -13 -31 -41 -51 -63 -20 -22 -36 -45 -36
-51 0 -7 -6 -14 -14 -17 -14 -6 -65 -76 -92 -128 -8 -17 -24 -39 -34 -49 -14
-14 -18 -28 -14 -48 5 -25 2 -30 -20 -36 -28 -7 -35 -33 -14 -54 15 -15 -7
-42 -33 -42 -12 0 -24 -11 -31 -27 -6 -16 -17 -42 -24 -60 -8 -17 -14 -35 -14
-41 0 -5 -9 -29 -19 -53 -11 -24 -17 -47 -14 -52 3 -5 1 -12 -5 -16 -8 -5 -52
-144 -52 -166 0 -7 41 -23 100 -40 62 -18 28 -18 -39 0 -30 8 -58 12 -62 10
-9 -6 -32 -136 -28 -162 1 -10 -1 -25 -4 -33 -4 -8 -8 -37 -9 -65 l-3 -50
-116 0 c-84 0 -121 -4 -133 -14 -13 -11 -22 -11 -41 -3 -28 13 -54 64 -35 70
8 3 8 8 -1 18 -7 9 -9 27 -3 51 4 21 9 58 10 83 8 133 11 156 17 167 12 20 37
121 37 151 0 15 9 45 20 67 11 22 20 51 20 65 0 14 11 41 25 60 14 19 25 42
25 51 0 9 9 34 19 56 11 21 31 65 46 98 14 33 31 69 37 80 6 11 24 46 40 78
16 31 35 57 42 57 7 0 19 12 25 28 6 15 22 41 36 57 19 23 27 27 33 17 16 -23
1 -61 -35 -88 -19 -14 -32 -31 -30 -37 5 -15 -20 -67 -32 -67 -5 0 -12 -13
-16 -28 -3 -15 -15 -43 -27 -62 -35 -55 -77 -144 -78 -160 0 -8 -9 -28 -20
-45 -28 -42 -25 -61 9 -68 53 -11 49 -77 -5 -77 -12 0 -26 5 -29 11 -18 28
-35 -7 -65 -141 -24 -103 -24 -114 2 -125 13 -6 23 -19 23 -30 0 -15 -8 -21
-35 -25 -46 -7 -56 -45 -16 -60 36 -13 35 -48 -1 -52 -39 -4 -45 -44 -9 -58
40 -15 27 -60 -16 -60 -10 0 -18 -5 -18 -10 0 -20 53 -30 161 -30 l109 0 2 38
c0 20 1 43 0 51 0 8 6 44 14 80 7 36 14 80 14 98 0 29 -4 33 -39 44 -28 8 -48
9 -69 1 -16 -5 -33 -7 -39 -3 -18 12 -22 40 -7 55 17 18 42 11 65 -18 11 -13
29 -19 60 -20 l44 -1 3 40 c2 22 7 44 12 50 4 5 11 28 16 49 4 22 13 51 20 65
8 14 14 32 14 40 0 15 27 78 61 142 10 20 19 45 19 56 0 10 9 26 20 35 11 10
22 29 26 44 4 14 17 37 30 51 13 14 24 33 24 43 0 9 11 27 24 40 19 17 24 29
19 50 -4 25 -2 29 26 35 17 4 31 10 31 14 0 4 30 43 68 86 37 42 73 88 80 101
7 13 17 24 22 24 4 0 37 28 73 63 35 34 79 73 98 87 19 13 39 28 44 32 18 15
113 83 131 94 16 9 17 14 6 35 -25 48 -48 79 -74 99 -15 11 -28 33 -30 47 -2
22 -12 31 -45 43 -40 15 -42 17 -25 32 34 33 64 18 113 -56z m469 58 c0 -8 -5
-12 -10 -9 -6 4 -8 11 -5 16 9 14 15 11 15 -7z m-355 -34 c10 -15 -14 -50 -34
-50 -29 0 -45 63 -18 73 13 5 43 -8 52 -23z m2065 1 c0 -32 -24 -48 -46 -30
-15 12 -19 41 -7 52 3 4 17 7 30 7 19 0 23 -5 23 -29z m-2310 -1 c13 -9 10
-15 -18 -41 -55 -49 -109 -25 -58 26 26 26 51 31 76 15z m-516 -26 c9 -22 -1
-34 -29 -34 -22 0 -51 31 -40 42 12 12 63 7 69 -8z m1543 -16 c-3 -8 -6 -5 -6
6 -1 11 2 17 5 13 3 -3 4 -12 1 -19z m1043 1 c0 -5 -7 -9 -15 -9 -15 0 -20 12
-9 23 8 8 24 -1 24 -14z m-1662 0 c-2 -6 -8 -10 -13 -10 -5 0 -11 4 -13 10 -2
6 4 11 13 11 9 0 15 -5 13 -11z m-90 -25 c13 -24 3 -54 -19 -54 -25 0 -44 37
-28 56 15 19 36 18 47 -2z m2643 -4 c37 -20 14 -90 -30 -90 -40 0 -54 49 -24
82 19 21 27 22 54 8z m-3072 -9 c11 -7 9 -14 -12 -35 -30 -30 -45 -33 -54 -9
-4 10 2 23 16 35 26 20 30 21 50 9z m1159 -131 l-1 -45 -7 50 c-5 28 -8 70 -8
95 l1 45 7 -50 c5 -27 8 -70 8 -95z m1460 104 c4 -25 -20 -47 -42 -38 -16 6
-22 45 -9 58 14 14 48 1 51 -20z m-244 0 c21 -8 20 -41 -1 -52 -26 -13 -43 -4
-43 23 0 13 6 26 13 28 6 3 13 6 14 6 1 1 8 -2 17 -5z m-1594 -49 c0 -19 -20
-29 -31 -18 -14 14 0 43 17 36 8 -3 14 -11 14 -18z m837 -7 c-3 -7 -5 -2 -5
12 0 14 2 19 5 13 2 -7 2 -19 0 -25z m-1709 -10 c2 -11 -8 -23 -27 -32 -39
-21 -41 -20 -41 9 0 40 61 61 68 23z m984 -25 c22 -24 17 -43 -12 -43 -26 0
-30 11 -23 56 4 21 8 32 11 24 2 -8 13 -25 24 -37z m355 25 c-3 -8 -6 -5 -6 6
-1 11 2 17 5 13 3 -3 4 -12 1 -19z m106 -14 c-6 -16 -29 -19 -38 -4 -4 6 -1
17 5 26 15 18 42 0 33 -22z m-1293 -10 c0 -21 -4 -25 -22 -22 -15 2 -24 11
-26 26 -3 18 1 22 22 22 21 0 26 -5 26 -26z m1457 -21 c-3 -10 -5 -4 -5 12 0
17 2 24 5 18 2 -7 2 -21 0 -30z m88 -28 c-4 -31 -9 -54 -12 -51 -3 2 -1 30 2
61 4 31 9 54 12 51 3 -2 1 -30 -2 -61z m-356 -39 c-6 -6 -9 -5 -9 3 0 8 -7 11
-20 8 -11 -3 -20 -1 -20 4 0 5 9 9 20 9 16 0 20 7 21 38 l2 37 7 -45 c4 -25 4
-49 -1 -54z m1085 79 c3 -8 3 -22 -1 -31 -8 -21 -47 -14 -51 10 -6 31 40 50
52 21z m230 -30 c7 -19 -21 -46 -39 -39 -18 7 -20 35 -4 51 14 14 35 7 43 -12z
m-2734 -1 c0 -6 -12 -23 -27 -38 -24 -24 -28 -25 -42 -12 -13 14 -12 18 8 40
24 25 61 31 61 10z m137 -20 c8 -22 -18 -37 -36 -20 -7 8 -10 19 -7 25 10 16
36 13 43 -5z m588 -90 c22 -16 15 -49 -10 -49 -16 0 -21 9 -26 40 -3 22 -13
54 -22 72 -28 53 -19 52 13 -2 16 -27 36 -55 45 -61z m449 74 c18 -25 13 -38
-14 -38 -10 0 -21 -6 -23 -12 -3 -7 -6 -1 -6 14 -1 31 8 58 20 58 4 0 15 -10
23 -22z m171 6 c13 -5 14 -8 3 -15 -19 -13 -28 -11 -28 6 0 17 2 18 25 9z
m150 -4 c3 -6 -1 -7 -9 -4 -18 7 -21 14 -7 14 6 0 13 -4 16 -10z m182 -37 c-3
-10 -5 -2 -5 17 0 19 2 27 5 18 2 -10 2 -26 0 -35z m-397 17 c-8 -5 -31 -9
-50 -9 -29 0 -31 2 -15 9 11 5 34 9 50 9 23 1 26 -2 15 -9z m1780 -5 c15 -19
4 -52 -21 -60 -38 -12 -65 35 -37 63 16 16 43 15 58 -3z m-2827 -15 c4 -14 0
-20 -12 -20 -23 0 -31 9 -24 26 8 21 30 17 36 -6z m1104 -27 c-3 -10 -5 -4 -5
12 0 17 2 24 5 18 2 -7 2 -21 0 -30z m-1427 16 c0 -6 -17 -28 -38 -48 -20 -20
-43 -48 -49 -63 -7 -14 -24 -32 -39 -40 -16 -7 -31 -22 -34 -33 -10 -37 -27
-58 -43 -52 -21 8 -11 41 16 56 12 7 31 31 42 54 11 23 28 44 39 46 22 4 45
25 69 64 18 27 37 36 37 16z m1846 -45 c-4 -33 -2 -61 4 -69 7 -8 5 -18 -5
-31 -13 -18 -14 -18 -32 -1 -17 17 -17 19 -1 30 10 8 19 35 23 70 4 31 10 57
13 57 2 0 2 -25 -2 -56z m-1706 26 c0 -13 -7 -20 -20 -20 -13 0 -20 7 -20 20
0 13 7 20 20 20 13 0 20 -7 20 -20z m3690 -10 c26 -26 25 -60 -1 -94 -40 -50
-119 -21 -119 44 0 17 9 39 20 50 11 11 33 20 50 20 17 0 39 -9 50 -20z m-845
-26 c0 -10 -8 -20 -17 -22 -18 -3 -26 27 -11 42 12 11 28 0 28 -20z m-2752 10
c9 -9 -4 -35 -14 -28 -5 3 -9 12 -9 20 0 14 12 19 23 8z m694 -10 c8 -20 -8
-36 -26 -25 -15 10 -8 41 9 41 6 0 13 -7 17 -16z m528 -64 c8 0 25 4 39 10 30
11 42 -1 27 -27 -10 -17 -10 -17 -11 0 0 14 -5 16 -27 11 -16 -4 -30 -11 -31
-16 -8 -19 -22 5 -21 35 1 24 3 26 6 10 2 -13 11 -23 18 -23z m-208 8 c-3 -8
-6 -5 -6 6 -1 11 2 17 5 13 3 -3 4 -12 1 -19z m-1079 -20 c3 -24 0 -28 -23
-28 -27 0 -41 20 -31 46 10 27 51 13 54 -18z m1419 10 c-3 -8 -6 -5 -6 6 -1
11 2 17 5 13 3 -3 4 -12 1 -19z m186 -2 c7 -17 -18 -40 -33 -31 -5 3 -10 15
-10 26 0 23 35 27 43 5z m491 -2 c7 -19 -1 -34 -19 -34 -18 0 -26 25 -12 39
15 15 24 14 31 -5z m-1396 -81 c23 -42 42 -79 42 -82 0 -8 -88 -61 -100 -61
-6 0 -10 6 -10 13 0 8 -9 22 -20 32 -11 10 -20 22 -20 27 0 5 -11 26 -25 47
l-24 39 27 19 c26 18 71 41 83 42 3 1 24 -34 47 -76z m492 67 c-34 -11 -60
-11 -35 0 11 5 29 8 40 8 16 0 15 -2 -5 -8z m1954 -5 c9 -25 -5 -45 -30 -45
-14 0 -27 7 -30 15 -10 25 4 45 30 45 13 0 26 -7 30 -15z m-3324 -30 c0 -32
-30 -45 -50 -20 -19 22 5 48 31 34 10 -5 19 -11 19 -14z m1565 -49 c55 1 105
3 110 4 6 1 28 -3 50 -9 22 -5 81 -17 130 -26 175 -31 286 -75 453 -176 65
-40 205 -150 234 -184 16 -19 15 -22 -35 -73 -80 -82 -78 -82 -155 -14 -146
128 -277 195 -502 259 -53 15 -102 18 -266 18 l-202 0 -16 84 c-18 91 -15 101
31 101 37 0 53 11 54 39 l1 26 7 -25 c7 -25 8 -25 106 -24z m2285 25 c5 -11
10 -26 10 -35 0 -20 -28 -46 -50 -46 -40 0 -66 60 -38 88 19 19 66 15 78 -7z
m-1774 -2 c10 -17 -13 -36 -27 -22 -12 12 -4 33 11 33 5 0 12 -5 16 -11z m534
-19 c-12 -16 -24 -30 -26 -30 -3 0 4 14 16 30 12 17 24 30 26 30 3 0 -4 -13
-16 -30z m531 7 c-13 -13 -26 -3 -16 12 3 6 11 8 17 5 6 -4 6 -10 -1 -17z
m247 -36 c-2 -9 -13 -17 -26 -19 -16 -3 -22 2 -22 16 0 11 6 22 13 25 20 7 38
-4 35 -22z m-3830 -13 c24 -52 -28 -95 -84 -69 -18 8 -24 18 -24 44 0 43 17
59 60 55 27 -2 38 -9 48 -30z m3021 -6 c3 -1 -6 -13 -18 -26 -13 -14 -20 -30
-16 -36 9 -15 -13 -40 -31 -33 -23 8 -16 43 10 53 35 13 41 28 19 52 -18 21
-18 21 7 7 14 -8 27 -15 29 -17z m-2561 -20 c4 -23 -4 -27 -27 -13 -17 11 -7
45 12 39 6 -3 13 -14 15 -26z m368 -62 c29 -11 30 -43 2 -48 -12 -2 -22 8 -31
30 -8 18 -24 42 -37 53 -12 11 -27 29 -32 40 -6 11 8 1 31 -23 23 -23 53 -47
67 -52z m192 41 c-2 -9 -12 -16 -23 -16 -13 0 -21 9 -26 31 l-6 31 29 -15 c18
-8 28 -20 26 -31z m3637 24 c14 -13 25 -36 25 -50 0 -35 -42 -75 -77 -75 -47
0 -73 25 -73 70 0 71 76 105 125 55z m-1926 1 c9 -10 8 -16 -4 -26 -19 -16
-41 1 -32 24 8 20 21 20 36 2z m495 -9 c-3 -8 -12 -18 -20 -21 -11 -4 -10 0 3
18 20 26 27 28 17 3z m706 -20 c0 -33 -28 -67 -55 -67 -22 0 -45 24 -45 49 0
20 33 41 66 41 29 0 34 -4 34 -23z m-846 -16 c-2 -3 -12 3 -22 13 -16 17 -16
18 5 5 12 -7 20 -15 17 -18z m-2169 -8 l18 -28 -21 19 c-12 11 -22 23 -22 28
0 14 7 9 25 -19z m223 -18 c-3 -3 -9 2 -12 12 -6 14 -5 15 5 6 7 -7 10 -15 7
-18z m2590 16 c18 -11 11 -55 -8 -58 -27 -5 -43 13 -36 41 7 27 21 32 44 17z
m-3332 -22 c7 -12 -15 -31 -28 -23 -4 3 -8 12 -8 20 0 17 26 19 36 3z m2779
-49 l30 -34 -36 29 c-20 17 -34 34 -32 38 3 5 6 7 7 5 0 -2 15 -19 31 -38z
m-2577 13 c6 -19 -28 -29 -39 -12 -5 8 -9 18 -9 22 0 13 43 3 48 -10z m387 7
c4 -6 1 -18 -6 -26 -13 -16 -31 -6 -35 21 -3 17 31 21 41 5z m381 -1 c9 -15
-11 -33 -30 -26 -9 4 -13 13 -10 22 7 17 30 20 40 4z m2608 -15 c10 -27 7 -43
-13 -54 -25 -13 -48 -4 -54 21 -10 38 53 69 67 33z m-3744 -19 c15 -19 6 -61
-16 -69 -20 -8 -54 20 -54 44 0 36 46 53 70 25z m3574 -1 c18 -18 19 -24 7
-42 -8 -14 -91 -30 -91 -18 0 15 30 64 42 69 21 9 26 8 42 -9z m-3469 -29 c0
-30 -39 -27 -43 3 -3 20 0 23 20 20 15 -2 23 -10 23 -23z m2646 -12 c13 -16
12 -17 -3 -4 -10 7 -18 15 -18 17 0 8 8 3 21 -13z m258 -34 c-5 -11 -17 -19
-26 -19 -14 0 -14 2 3 14 15 12 17 17 7 27 -21 21 -15 34 7 14 15 -13 17 -22
9 -36z m-2341 -38 c34 -33 62 -62 62 -66 0 -3 -18 -27 -39 -53 -78 -94 -226
-342 -204 -342 5 0 3 -4 -3 -8 -11 -7 -55 -127 -74 -202 -6 -25 -14 -53 -17
-64 -5 -17 -1 -18 30 -12 38 7 51 -2 41 -28 -8 -20 -33 -21 -40 -1 -9 23 -33
18 -39 -7 -3 -13 -7 -48 -10 -78 -2 -30 -7 -79 -11 -108 l-7 -53 -91 3 -91 3
3 73 c3 69 3 72 -20 73 -22 2 -22 2 -1 6 20 4 31 28 32 73 0 14 12 76 25 140
3 13 0 27 -7 32 -8 5 -7 8 5 8 11 0 22 21 37 73 12 39 29 88 37 109 9 20 13
41 10 47 -4 6 -1 11 6 12 7 0 37 48 66 106 44 89 50 108 40 122 -12 14 -11 15
6 1 15 -12 20 -12 24 -2 8 26 144 202 155 202 7 0 40 -27 75 -59z m2652 40 c0
-20 -13 -41 -25 -41 -18 0 -28 17 -21 35 6 16 46 21 46 6z m-2279 -54 c-13
-13 -16 -10 -25 26 l-7 28 22 -22 c15 -15 18 -24 10 -32z m1772 39 c4 -10 1
-13 -9 -9 -7 3 -14 9 -14 14 0 14 17 10 23 -5z m817 -11 c15 -19 -3 -45 -31
-45 -24 0 -32 16 -19 40 13 24 33 26 50 5z m-3692 -18 c4 -22 -27 -35 -39 -16
-5 8 -9 20 -9 27 0 20 44 10 48 -11z m110 0 c2 -9 -4 -20 -12 -23 -21 -8 -46
13 -39 32 8 20 47 13 51 -9z m3345 -20 c-44 -36 -226 -160 -219 -149 3 5 45
37 93 72 49 34 99 71 113 81 36 26 47 23 13 -4z m810 9 c38 -29 8 -96 -43 -96
-33 0 -52 21 -52 57 0 46 55 69 95 39z m-4878 -56 c22 -24 22 -76 0 -100 -23
-26 -86 -27 -107 -2 -26 29 -31 61 -13 88 29 44 87 51 120 14z m4523 24 c29
-8 29 -48 0 -68 -40 -29 -82 26 -46 62 14 14 15 14 46 6z m-3851 -41 c13 -20
12 -23 -7 -33 -25 -13 -50 1 -50 30 0 37 33 39 57 3z m353 -9 c0 -2 -9 0 -20
6 -11 6 -20 13 -20 16 0 2 9 0 20 -6 11 -6 20 -13 20 -16z m3336 15 c9 -16
-20 -41 -39 -33 -17 6 -22 25 -10 37 10 11 41 8 49 -4z m-3301 -39 c3 -6 -1
-7 -9 -4 -18 7 -21 14 -7 14 6 0 13 -4 16 -10z m3215 -15 c0 -9 -7 -18 -16
-22 -18 -7 -39 11 -30 26 11 17 46 13 46 -4z m-245 -25 c-3 -6 -21 -17 -38
-26 -36 -19 -31 -9 10 17 34 21 36 22 28 9z m568 -10 c5 -21 -26 -60 -48 -60
-23 0 -43 34 -34 58 12 30 74 32 82 2z m-3973 -25 c0 -20 -26 -25 -47 -9 -17
14 -17 14 1 29 21 16 46 5 46 -20z m3781 19 c10 -13 10 -17 -2 -25 -18 -11
-49 -12 -49 0 0 39 28 53 51 25z m-3911 -35 c0 -5 -4 -9 -10 -9 -5 0 -10 7
-10 16 0 8 5 12 10 9 6 -3 10 -10 10 -16z m3400 -34 c0 -2 -10 -9 -22 -15 -22
-11 -22 -10 -4 4 21 17 26 19 26 11z m569 -24 c16 -29 -7 -48 -66 -54 -29 -3
-53 -3 -53 0 0 3 15 21 33 39 36 37 71 43 86 15z m-3889 -6 c15 -18 5 -35 -20
-35 -22 0 -34 15 -26 35 7 19 30 19 46 0z m4045 -15 c0 -33 -40 -41 -50 -11
-9 28 2 43 28 39 16 -2 22 -10 22 -28z m301 15 c-4 -10 1 -15 15 -15 15 0 20
-5 17 -22 -2 -17 -11 -24 -32 -26 -43 -5 -61 32 -30 62 20 20 38 21 30 1z
m-3548 -22 c-9 -10 -13 -24 -11 -30 5 -13 -9 -18 -20 -7 -7 8 24 53 37 54 5 0
2 -8 -6 -17z m2772 -7 c0 -18 -15 -36 -31 -36 -12 0 -19 7 -19 20 0 15 7 20
25 20 14 0 25 -2 25 -4z m-2720 -67 c0 -23 -28 -26 -37 -3 -6 16 15 37 29 28
4 -3 8 -14 8 -25z m2857 20 c-35 -20 -250 -110 -254 -106 -2 3 13 12 34 20 21
9 79 34 128 56 85 38 131 53 92 30z m-3753 -12 c23 -17 17 -51 -10 -55 -30 -4
-48 21 -34 47 13 24 20 26 44 8z m3186 9 c0 -18 -15 -36 -31 -36 -12 0 -19 7
-19 20 0 15 7 20 25 20 14 0 25 -2 25 -4z m788 -22 c4 -28 -20 -46 -52 -38
-30 7 -33 20 -9 46 22 24 57 20 61 -8z m-949 7 c17 -11 7 -41 -13 -41 -19 0
-29 17 -22 35 6 17 15 18 35 6z m1118 -7 c9 -24 -10 -49 -38 -49 -24 0 -36 23
-25 51 7 19 55 18 63 -2z m769 -31 c20 -26 17 -70 -6 -93 -33 -33 -75 -30
-107 6 -30 33 -29 59 3 91 21 21 32 24 61 20 19 -4 41 -14 49 -24z m-5848 -21
c29 -37 0 -93 -46 -89 -17 1 -21 6 -16 21 5 15 3 18 -12 12 -18 -6 -18 -5 0 9
11 8 23 15 28 15 4 0 5 7 1 16 -5 12 -7 13 -14 2 -6 -10 -11 -10 -21 0 -9 9
-8 15 8 27 22 16 53 11 72 -13z m1712 13 c0 -8 -4 -15 -10 -15 -5 0 -7 7 -4
15 4 8 8 15 10 15 2 0 4 -7 4 -15z m-430 -5 c8 -5 11 -10 5 -10 -5 0 -17 5
-25 10 -8 5 -10 10 -5 10 6 0 17 -5 25 -10z m3664 -46 c8 -22 -11 -54 -34 -54
-10 0 -26 7 -35 16 -15 15 -15 18 1 35 21 23 60 25 68 3z m-4044 -9 c15 -18 5
-35 -21 -35 -12 0 -19 7 -19 18 0 33 20 42 40 17z m3760 11 c0 -2 -7 -7 -16
-10 -8 -3 -12 -2 -9 4 6 10 25 14 25 6z m-2985 -17 c-4 -6 1 -16 11 -23 21
-16 10 -36 -20 -36 -27 0 -30 24 -6 52 16 20 25 24 15 7z m2705 -4 c-29 -17
-22 -19 14 -5 30 11 36 3 57 -78 9 -39 17 -51 27 -47 12 4 13 3 3 -9 -7 -8
-10 -20 -6 -25 14 -24 45 -284 45 -384 0 -152 -44 -415 -89 -529 -8 -23 -7
-29 7 -38 15 -10 15 -10 -2 -8 -15 2 -26 -12 -49 -67 -17 -38 -32 -71 -32 -73
-2 -2 -164 67 -174 75 -2 1 12 38 32 82 39 86 78 224 98 341 18 105 15 377 -4
467 -34 156 -59 233 -76 234 -9 0 9 11 38 25 30 13 62 22 70 19 9 -3 12 -3 8
1 -8 8 29 33 48 33 6 0 -1 -6 -15 -14z m225 5 c8 -13 -13 -40 -30 -40 -15 0
-28 27 -19 41 7 12 41 11 49 -1z m-3299 -31 c3 -6 -1 -18 -10 -27 -16 -16 -18
-16 -31 2 -8 10 -12 23 -9 27 7 13 42 11 50 -2z m3299 -74 c-55 -19 -102 -34
-105 -34 -18 -1 47 27 105 45 110 34 110 26 0 -11z m353 -3 c3 -16 -2 -22 -17
-22 -26 0 -36 17 -20 36 16 19 33 13 37 -14z m-798 8 c-8 -5 -19 -10 -25 -10
-5 0 -3 5 5 10 8 5 20 10 25 10 6 0 3 -5 -5 -10z m971 0 c39 -21 13 -75 -33
-68 -26 3 -37 41 -18 64 15 17 25 18 51 4z m-1031 -29 c0 -24 -25 -34 -40 -16
-15 18 -5 35 21 35 12 0 19 -7 19 -19z m-3917 -12 c13 -21 1 -65 -20 -73 -26
-10 -34 7 -27 53 7 44 27 52 47 20z m3997 -46 c31 -113 61 -338 52 -400 -3
-20 -9 -23 -45 -23 -23 0 -66 3 -94 6 l-53 7 0 76 c0 68 -28 249 -45 293 -8
20 15 33 95 59 76 24 78 24 90 -18z m-2965 -13 c13 -5 14 -9 5 -9 -8 0 -24 4
-35 9 -13 5 -14 9 -5 9 8 0 24 -4 35 -9z m52 -16 c-3 -3 -12 -4 -19 -1 -8 3
-5 6 6 6 11 1 17 -2 13 -5z m2996 -60 c11 -11 -5 -34 -24 -34 -12 0 -19 7 -19
20 0 19 28 28 43 14z m-3435 -23 c21 -13 10 -46 -16 -49 -24 -4 -38 18 -28 43
6 17 24 19 44 6z m-284 -69 c-7 -10 -24 -17 -40 -17 -24 0 -30 5 -32 28 -3 21
2 29 20 36 32 12 68 -21 52 -47z m1635 43 c28 -9 51 -60 51 -115 0 -44 -21
-95 -42 -102 -8 -3 -2 -14 17 -30 29 -25 30 -30 30 -108 0 -77 -2 -83 -28
-106 -25 -21 -38 -24 -113 -24 l-84 0 0 244 c0 221 2 245 17 248 28 5 128 1
152 -7z m171 -241 l-1 -244 -30 0 -29 0 0 244 0 245 23 3 c12 2 25 2 30 0 4
-2 7 -113 7 -248z m209 245 c40 -14 61 -54 61 -114 0 -42 -2 -46 -22 -43 -19
2 -24 10 -26 43 -6 67 -51 95 -98 61 -17 -13 -19 -30 -22 -174 -4 -183 6 -222
55 -222 47 0 63 25 63 101 0 63 -2 68 -22 71 -15 2 -24 11 -26 26 -3 20 0 22
47 22 l51 0 0 -95 c0 -107 -12 -144 -55 -163 -46 -21 -92 -15 -127 17 l-33 29
0 195 c0 181 1 197 20 217 35 39 78 48 134 29z m417 -14 c40 -26 45 -57 42
-248 l-3 -179 -28 -24 c-25 -21 -38 -24 -113 -24 l-84 0 0 243 c0 134 2 246 5
249 12 12 158 -2 181 -17z m257 16 c4 -1 7 -9 7 -18 0 -16 71 -392 85 -450 5
-20 1 -23 -24 -23 -27 0 -30 4 -37 48 l-9 47 -63 3 c-67 3 -66 4 -77 -60 -5
-32 -10 -38 -32 -38 -21 0 -24 4 -20 23 3 12 24 121 47 242 23 121 43 222 45
226 3 4 36 5 78 0z m335 -18 c3 -18 -2 -23 -20 -24 -13 -1 -30 -2 -40 -3 -9
-1 -19 -4 -23 -8 -4 -4 -7 -104 -7 -223 l1 -215 -29 0 -30 0 -2 223 c-3 189
-5 222 -18 223 -8 1 -27 2 -42 3 -20 1 -28 6 -28 19 0 10 2 21 5 24 3 3 56 5
118 4 108 -1 112 -2 115 -23z m181 -25 c71 -342 87 -443 71 -449 -26 -10 -39
1 -46 39 -10 64 -9 63 -76 60 l-63 -3 -9 -47 c-7 -42 -11 -48 -32 -48 -13 0
-24 4 -24 9 0 17 89 471 94 479 2 4 20 9 40 10 34 3 35 2 45 -50z m1241 42 c0
-5 -4 -10 -10 -10 -5 0 -10 5 -10 10 0 6 5 10 10 10 6 0 10 -4 10 -10z m178
-37 c3 -19 -1 -23 -22 -23 -21 0 -26 5 -26 26 0 21 4 25 23 22 14 -2 23 -11
25 -25z m-4038 -8 l65 -13 -65 5 c-36 4 -76 10 -90 14 l-25 7 25 1 c14 0 54
-6 90 -14z m3436 -6 c10 -17 -13 -36 -27 -22 -12 12 -4 33 11 33 5 0 12 -5 16
-11z m-2988 -62 c2 -11 -3 -17 -16 -17 -24 0 -32 8 -25 26 7 20 37 13 41 -9z
m3797 -7 c10 -30 -13 -52 -49 -48 -20 2 -32 9 -34 21 -7 33 6 47 42 47 26 0
36 -5 41 -20z m-187 -2 c7 -7 12 -28 12 -48 0 -30 5 -39 25 -48 16 -8 25 -20
25 -35 0 -46 -49 -64 -72 -27 -7 11 -18 20 -25 20 -7 0 -17 10 -24 21 -10 19
-17 21 -57 15 -26 -4 -70 -7 -99 -6 -49 1 -53 -1 -59 -26 -4 -16 -2 -35 5 -46
9 -15 9 -23 1 -33 -7 -8 -9 -23 -5 -35 5 -16 15 -20 54 -20 26 0 51 -4 57 -9
5 -4 21 -11 36 -15 30 -7 68 20 68 48 0 19 7 23 58 35 36 7 46 6 68 -11 34
-27 29 -60 -11 -71 -16 -5 -45 -16 -63 -25 -25 -12 -35 -13 -44 -4 -7 7 -40
12 -73 12 -34 0 -87 5 -117 11 -56 11 -56 12 -60 52 -2 22 -2 68 0 103 4 62 5
64 32 64 15 0 41 5 57 10 23 8 40 7 72 -3 22 -8 41 -11 41 -6 0 5 7 9 15 9 10
0 15 10 15 33 0 19 3 37 7 40 11 11 48 8 61 -5z m-4380 -67 c23 -14 10 -46
-21 -49 -23 -3 -27 0 -27 21 0 36 19 47 48 28z m219 -45 c-7 -17 -47 -22 -47
-6 0 6 -11 10 -25 10 -14 0 -25 5 -25 10 0 6 10 10 23 10 12 0 29 5 37 10 19
12 45 -12 37 -34z m-807 -26 c0 -5 -2 -10 -4 -10 -3 0 -8 5 -11 10 -3 6 -1 10
4 10 6 0 11 -4 11 -10z m490 -4 c0 -2 3 -11 6 -20 5 -12 0 -16 -20 -16 -24 0
-35 18 -19 33 7 8 33 10 33 3z m4019 -46 c27 0 53 -4 56 -10 4 -6 -16 -10 -52
-10 -33 0 -64 -5 -70 -11 -16 -16 -43 -4 -43 20 0 23 18 32 42 20 9 -5 39 -9
67 -9z m306 -10 c0 -20 -6 -26 -28 -28 -32 -4 -46 20 -26 44 19 24 54 14 54
-16z m-3629 9 c10 -17 -13 -36 -27 -22 -12 12 -4 33 11 33 5 0 12 -5 16 -11z
m-606 -3 c0 -11 -19 -15 -25 -6 -3 5 1 10 9 10 9 0 16 -2 16 -4z m3804 -187
c-8 -14 -34 -11 -34 4 0 8 3 17 7 20 9 9 34 -13 27 -24z m-3874 0 c9 -15 8
-24 -1 -35 -27 -33 -78 0 -58 38 13 24 46 23 59 -3z m-741 -16 c11 -10 24 -32
27 -50 5 -27 1 -37 -24 -63 -37 -36 -71 -39 -108 -6 -56 48 -23 136 51 136 18
0 42 -8 54 -17z m824 -19 c-5 -15 -25 -19 -36 -7 -11 10 13 32 28 27 8 -3 11
-12 8 -20z m528 -11 c-11 -4 -11 -7 0 -14 7 -4 10 -11 6 -16 -5 -4 -12 -1 -17
7 -14 22 -12 30 8 29 12 0 13 -2 3 -6z m3228 -17 c9 -10 8 -16 -4 -26 -17 -14
-45 -7 -45 13 0 29 30 37 49 13z m605 -9 c21 -16 18 -45 -6 -61 -38 -23 -78
35 -42 61 10 7 21 13 24 13 3 0 14 -6 24 -13z m-531 -14 c-7 -2 -21 -2 -30 0
-10 3 -4 5 12 5 17 0 24 -2 18 -5z m-3903 -18 c18 -22 3 -55 -25 -55 -29 0
-47 27 -34 52 12 22 42 23 59 3z m3963 8 c-7 -2 -21 -2 -30 0 -10 3 -4 5 12 5
17 0 24 -2 18 -5z m972 -18 c14 -13 25 -29 25 -35 0 -22 -30 -69 -49 -75 -72
-23 -133 65 -79 115 30 27 73 26 103 -5z m-902 8 c-7 -2 -19 -2 -25 0 -7 3 -2
5 12 5 14 0 19 -2 13 -5z m232 -33 c0 -18 -6 -26 -23 -28 -13 -2 -25 3 -28 12
-10 26 4 48 28 44 17 -2 23 -10 23 -28z m-4597 8 c7 -7 12 -24 12 -38 0 -60
-80 -81 -109 -29 -13 24 -13 29 2 53 13 19 26 26 50 26 18 0 38 -5 45 -12z
m777 -42 c0 -17 -8 -20 -75 -21 -70 -2 -72 -1 -30 7 25 6 52 16 60 24 20 19
45 13 45 -10z m-441 -32 c21 -8 21 -53 0 -61 -18 -7 -45 6 -51 24 -2 6 3 18
12 27 19 18 18 18 39 10z m3451 -19 c0 -28 -29 -25 -33 3 -3 19 0 23 15 20 10
-2 18 -12 18 -23z m-3340 -15 c0 -19 -6 -26 -24 -28 -29 -4 -43 15 -30 41 15
28 54 19 54 -13z m4048 24 c11 -11 -5 -34 -24 -34 -12 0 -19 7 -19 20 0 19 28
28 43 14z m74 -38 c-4 -9 -11 -16 -17 -16 -17 0 -24 31 -9 41 18 11 34 -5 26
-25z m-3469 -9 c2 -11 -3 -17 -17 -17 -23 0 -35 15 -26 31 10 15 39 6 43 -14z
m-1461 -59 c15 -14 23 -33 23 -52 -1 -80 -98 -110 -144 -44 -53 75 53 160 121
96z m1128 -43 c-104 -36 -200 -65 -212 -65 -12 0 -31 -13 -43 -30 -23 -33 -50
-39 -70 -15 -10 12 -10 21 -2 40 12 26 32 31 61 15 13 -6 34 -3 72 12 30 11
72 24 94 28 22 4 90 24 150 43 61 20 117 36 125 36 8 0 -70 -29 -175 -64z
m348 49 c-7 -3 -9 -13 -6 -22 5 -13 3 -14 -7 -5 -14 13 -5 33 13 32 9 0 9 -2
0 -5z m2977 -4 c18 -12 2 -12 -25 0 -13 6 -15 9 -5 9 8 0 22 -4 30 -9z m-330
-36 c0 -20 -30 -30 -40 -13 -11 17 7 40 26 32 8 -3 14 -12 14 -19z m395 16
c13 -5 14 -9 5 -9 -8 0 -24 4 -35 9 -13 5 -14 9 -5 9 8 0 24 -4 35 -9z m385
-10 c0 -5 -7 -10 -15 -10 -8 0 -15 5 -15 10 0 6 7 10 15 10 8 0 15 -4 15 -10z
m-371 -83 c9 -12 7 -15 -12 -19 -12 -2 -28 -3 -35 0 -13 4 -16 34 -6 45 8 8
36 -7 53 -26z m-2909 2 c0 -25 -33 -22 -38 4 -2 12 3 17 17 17 15 0 21 -6 21
-21z m3265 -24 c0 -31 -49 -28 -53 3 -3 20 0 23 25 20 20 -2 28 -8 28 -23z
m-310 -5 c3 -6 -1 -7 -9 -4 -18 7 -21 14 -7 14 6 0 13 -4 16 -10z m275 -75
c20 -24 3 -57 -28 -53 -27 3 -39 26 -28 54 7 18 40 18 56 -1z m-4055 -29 c0
-34 -13 -42 -39 -23 -26 19 -13 59 17 55 17 -2 22 -10 22 -32z m95 15 c0 -27
-19 -36 -37 -18 -18 18 -9 37 18 37 12 0 19 -7 19 -19z m663 13 c11 -11 -5
-34 -24 -34 -12 0 -19 7 -19 20 0 19 28 28 43 14z m-468 -49 c0 -28 -2 -30
-45 -33 -24 -2 -50 -8 -57 -14 -9 -7 -13 -7 -13 1 0 6 17 27 38 46 46 43 77
43 77 0z m245 21 c0 -2 -7 -7 -16 -10 -8 -3 -12 -2 -9 4 6 10 25 14 25 6z
m-387 -58 c14 -11 15 -17 4 -38 -26 -52 -103 -28 -79 25 13 28 47 33 75 13z
m4055 0 c17 -17 15 -55 -4 -62 -36 -14 -64 -6 -70 19 -3 14 -4 32 0 40 7 18
57 20 74 3z m-4170 -46 c2 -14 -2 -22 -12 -22 -19 0 -29 17 -22 36 8 22 30 12
34 -14z m1022 -22 c0 -13 -7 -20 -20 -20 -13 0 -20 7 -20 20 0 13 7 20 20 20
13 0 20 -7 20 -20z m2438 -13 c4 -22 -27 -35 -38 -16 -10 15 7 42 24 36 6 -2
12 -11 14 -20z m-2348 -12 c11 -13 10 -14 -4 -9 -9 3 -16 10 -16 15 0 13 6 11
20 -6z m-957 -19 c9 -23 -17 -49 -41 -42 -21 7 -30 35 -15 49 12 12 51 7 56
-7z m3597 -21 c17 -20 5 -45 -20 -45 -11 0 -23 7 -26 15 -6 15 11 45 26 45 4
0 13 -7 20 -15z m845 9 c24 -10 46 -60 39 -89 -14 -56 -87 -73 -129 -30 -14
13 -25 36 -25 50 0 51 63 89 115 69z m-5281 -37 c12 -34 -1 -61 -34 -65 -31
-5 -72 7 -65 18 3 6 1 10 -5 10 -7 0 -9 8 -4 23 11 38 26 48 63 45 29 -2 38
-8 45 -31z m3546 13 c0 -5 -5 -10 -11 -10 -5 0 -7 -4 -4 -10 3 -5 2 -10 -4
-10 -17 0 -24 22 -10 31 19 12 29 11 29 -1z m-2662 -72 c-2 -15 -11 -24 -25
-26 -19 -3 -23 1 -23 22 0 21 5 26 26 26 21 0 25 -4 22 -22z m3679 11 c15 -15
5 -39 -17 -39 -19 0 -34 25 -24 41 7 12 28 11 41 -2z m-3777 -38 c0 -27 -19
-36 -37 -18 -18 18 -9 37 18 37 12 0 19 -7 19 -19z m3117 -3 c-3 -8 -6 -5 -6
6 -1 11 2 17 5 13 3 -3 4 -12 1 -19z m-918 -70 c12 -46 21 -86 21 -90 0 -6
-88 -28 -115 -28 -17 0 -22 17 -31 108 -5 53 -3 72 5 72 7 0 10 -3 8 -7 -3 -5
1 -39 7 -78 l12 -70 39 3 c22 2 43 6 47 10 8 9 -20 132 -34 149 -8 10 -6 13 4
13 10 0 22 -26 37 -82z m-1651 49 c2 -12 -3 -17 -17 -17 -15 0 -21 6 -21 21 0
25 33 22 38 -4z m1585 16 c-7 -2 -19 -2 -25 0 -7 3 -2 5 12 5 14 0 19 -2 13
-5z m-877 -25 c5 -7 2 -9 -9 -5 -9 3 -18 1 -21 -6 -2 -7 -5 -4 -5 6 -1 19 24
23 35 5z m-606 -7 c0 -5 -7 -12 -16 -15 -14 -5 -15 -4 -4 9 14 17 20 19 20 6z
m2872 -33 c-15 -15 -26 -4 -18 18 5 13 9 15 18 6 9 -9 9 -15 0 -24z m397 18
c7 -8 26 -18 42 -21 51 -12 65 -64 23 -91 -24 -16 -26 -16 -52 3 -15 11 -42
27 -59 37 -35 17 -44 51 -21 74 16 16 53 15 67 -2z m-199 -11 c0 -8 -7 -15
-15 -15 -8 0 -15 7 -15 15 0 8 7 15 15 15 8 0 15 -7 15 -15z m-2890 -40 c0
-16 -27 -32 -37 -22 -3 4 -3 13 0 22 8 20 37 20 37 0z m2624 2 c23 -17 17 -51
-10 -55 -27 -4 -47 21 -39 48 7 23 24 26 49 7z m-406 -9 c7 -7 12 -19 12 -27
0 -8 8 -24 17 -35 18 -21 18 -21 -7 0 -14 12 -33 24 -42 27 -18 6 -24 28 -11
40 9 10 17 9 31 -5z m-609 -30 c0 -18 -3 -27 -6 -20 -2 6 -11 12 -19 12 -8 0
-14 9 -14 20 0 13 7 20 20 20 16 0 20 -6 19 -32z m209 -66 c23 -44 38 -82 34
-86 -4 -4 -40 -23 -79 -41 -59 -27 -72 -37 -67 -52 5 -15 4 -15 -5 -3 -9 13
-24 10 -113 -19 -57 -19 -106 -39 -110 -45 -5 -7 -8 -4 -8 7 0 10 -7 20 -15
23 -17 7 -20 35 -5 50 6 6 5 28 -4 61 l-14 51 27 7 c47 12 93 37 81 45 -8 5
-7 9 4 13 9 4 16 2 16 -3 0 -14 34 -12 48 2 7 7 12 9 12 6 0 -4 33 8 73 27 39
19 75 34 78 34 3 1 24 -34 47 -77z m1210 56 c19 -19 14 -56 -9 -68 -16 -9 -26
-8 -45 5 -39 26 -26 75 21 75 12 0 26 -5 33 -12z m-3360 -31 c3 -13 -4 -17
-28 -17 -25 0 -42 -10 -76 -47 -25 -26 -44 -56 -44 -68 0 -31 -24 -49 -55 -41
-18 5 -25 13 -25 30 0 27 14 41 52 50 16 3 54 31 85 61 58 55 85 65 91 32z
m575 8 c7 -18 -9 -29 -30 -21 -12 5 -13 9 -3 21 16 19 26 19 33 0z m535 -38
c4 -20 -25 -34 -40 -19 -15 15 -1 44 19 40 10 -2 19 -11 21 -21z m2007 -33 c0
-24 -5 -30 -27 -32 -23 -3 -30 2 -39 25 -8 22 -7 30 6 40 27 19 60 1 60 -33z
m-3351 30 c9 -3 16 -12 16 -19 0 -19 -25 -36 -44 -29 -19 7 -22 40 -3 47 6 3
13 6 14 6 1 1 8 -2 17 -5z m1603 -30 c3 -8 1 -20 -6 -27 -6 -6 -11 -19 -11
-30 0 -10 -5 -15 -10 -12 -6 4 -8 11 -4 16 3 5 0 16 -6 24 -10 12 -10 18 0 30
16 19 29 19 37 -1z m1918 0 c19 -20 16 -43 -7 -58 -38 -23 -78 35 -42 61 23
17 29 16 49 -3z m-824 -16 c1 -7 1 -17 0 -21 -1 -5 8 -23 20 -40 l21 -32 -24
28 c-13 15 -31 27 -40 27 -9 0 -18 6 -21 13 -7 20 4 37 24 37 10 0 20 -6 20
-12z m1170 -36 c48 -40 17 -122 -47 -122 -59 0 -96 79 -57 122 21 23 74 23
104 0z m-3486 -32 c33 -34 31 -36 -13 -14 -18 8 -32 22 -32 30 0 22 13 17 45
-16z m912 -12 c-3 -8 -6 -5 -6 6 -1 11 2 17 5 13 3 -3 4 -12 1 -19z m1711 -10
c-3 -7 -11 -13 -18 -13 -7 0 -15 6 -17 13 -3 7 4 12 17 12 13 0 20 -5 18 -12z
m136 -4 c4 -11 1 -14 -11 -12 -9 2 -18 9 -21 16 -6 18 25 15 32 -4z m300 1 c3
-9 -1 -18 -10 -22 -20 -7 -38 18 -21 29 18 11 24 10 31 -7z m-3444 -9 c0 -8
-5 -18 -11 -22 -14 -8 -33 11 -25 25 10 16 36 13 36 -3z m1277 -58 c-3 -8 -6
-5 -6 6 -1 11 2 17 5 13 3 -3 4 -12 1 -19z m-1202 -22 c18 -28 11 -52 -17 -60
-48 -12 -76 34 -42 68 22 22 41 20 59 -8z m440 8 c20 -20 15 -36 -15 -51 -32
-16 -40 -9 -40 33 0 27 4 34 19 34 11 0 27 -7 36 -16z m-125 -25 c0 -5 -9 -9
-20 -9 -19 0 -27 20 -13 33 7 8 33 -11 33 -24z m877 -1 c-3 -8 -6 -5 -6 6 -1
11 2 17 5 13 3 -3 4 -12 1 -19z m1867 9 c21 -16 18 -45 -6 -61 -33 -20 -69 20
-54 60 7 18 36 18 60 1z m-1555 -74 c-1 -43 -4 -68 -7 -55 -7 23 -3 132 4 132
2 0 4 -35 3 -77z m1280 28 c0 -10 -2 -11 -5 -4 -3 7 -11 10 -18 7 -18 -7 -30
27 -14 38 15 9 38 -17 37 -41z m-2639 24 c0 -16 -27 -32 -37 -22 -3 4 -3 13 0
22 8 20 37 20 37 0z m2119 -60 c0 -5 -8 6 -19 25 -11 19 -19 40 -19 45 0 6 8
-6 19 -25 11 -19 19 -39 19 -45z m-1749 45 c0 -5 -7 -10 -15 -10 -8 0 -15 5
-15 10 0 6 7 10 15 10 8 0 15 -4 15 -10z m650 -81 c-12 -46 -26 -90 -31 -99
-11 -17 -12 -18 22 108 12 46 23 81 26 79 2 -3 -6 -42 -17 -88z m817 69 c-3
-8 -6 -5 -6 6 -1 11 2 17 5 13 3 -3 4 -12 1 -19z m1258 6 c10 -10 15 -29 13
-48 -2 -25 -8 -32 -30 -34 -41 -5 -68 14 -68 48 0 45 52 66 85 34z m-537 -6
c12 -16 -2 -58 -21 -58 -7 0 -21 6 -31 13 -15 11 -17 17 -7 35 13 24 43 29 59
10z m-128 -23 c0 -23 -2 -24 -20 -15 -21 11 -25 22 -13 33 15 16 33 6 33 -18z
m-1980 -22 c0 -5 -10 -19 -21 -33 -15 -18 -18 -19 -11 -5 5 11 7 26 5 33 -3 6
2 12 11 12 9 0 16 -3 16 -7z m1256 -4 c3 -6 1 -22 -6 -34 l-13 -24 -19 24
c-11 14 -16 29 -13 35 8 13 42 13 51 -1z m984 1 c0 -5 -4 -10 -10 -10 -5 0
-10 5 -10 10 0 6 5 10 10 10 6 0 10 -4 10 -10z m1092 -7 c11 -9 18 -30 18 -50
0 -27 -6 -37 -32 -53 -43 -26 -63 -25 -82 2 -35 50 -8 118 46 118 17 0 40 -7
50 -17z m-3767 -37 c30 -30 24 -61 -14 -74 -36 -13 -61 2 -61 35 0 26 25 63
42 63 5 0 20 -11 33 -24z m2253 -16 c2 -19 8 -39 13 -44 12 -13 12 -26 -1 -26
-6 0 -14 8 -17 18 -4 9 -15 23 -25 30 -30 22 -21 66 12 60 9 -2 16 -16 18 -38z
m192 30 c0 -5 -4 -10 -10 -10 -5 0 -10 5 -10 10 0 6 5 10 10 10 6 0 10 -4 10
-10z m288 -6 c27 -18 26 -51 0 -68 -34 -21 -71 26 -54 70 7 18 26 18 54 -2z
m-2575 -6 c8 -23 -11 -58 -32 -58 -24 0 -37 35 -21 55 15 18 46 19 53 3z
m1367 -23 c0 -29 -34 -36 -44 -9 -8 21 1 34 25 34 14 0 19 -7 19 -25z m-1871
-7 c12 -34 -2 -63 -33 -66 -33 -4 -56 13 -56 42 0 30 18 46 52 46 21 0 31 -6
37 -22z m1965 -23 c3 -9 0 -24 -6 -34 -9 -15 -15 -17 -30 -8 -18 12 -24 38
-11 50 12 13 41 7 47 -8z m1034 -7 c31 -31 -3 -87 -42 -72 -18 7 -31 47 -22
69 7 18 47 20 64 3z m-2574 -11 c26 -19 18 -61 -12 -65 -32 -5 -54 16 -46 42
11 35 30 43 58 23z m1253 -9 c-3 -8 -6 -5 -6 6 -1 11 2 17 5 13 3 -3 4 -12 1
-19z m350 -15 c-3 -10 -5 -4 -5 12 0 17 2 24 5 18 2 -7 2 -21 0 -30z m-1458
-2 c-15 -5 -22 6 -14 19 6 9 10 9 16 -1 5 -8 4 -15 -2 -18z m3098 -15 c26 -30
28 -44 12 -80 -26 -56 -104 -54 -134 3 -18 36 -19 52 -4 85 10 21 17 24 57 22
35 -2 51 -9 69 -30z m-2250 -2 c8 -21 -13 -42 -28 -27 -13 13 -5 43 11 43 6 0
13 -7 17 -16z m-184 -8 c3 -8 -7 -31 -22 -50 l-29 -36 -4 38 c-3 20 -3 43 0
50 6 17 49 15 55 -2z m444 -23 c-3 -10 -5 -4 -5 12 0 17 2 24 5 18 2 -7 2 -21
0 -30z m1233 12 c19 -23 -15 -59 -41 -44 -19 10 -25 39 -12 52 11 12 40 7 53
-8z m-2670 -10 c14 -17 -7 -82 -33 -100 -29 -20 -53 -19 -77 5 -26 26 -25 51
1 84 17 22 28 26 60 24 22 -1 44 -7 49 -13z m440 9 c0 -16 -23 -44 -35 -44
-15 0 -21 31 -8 43 8 8 43 9 43 1z m208 -31 c-5 -25 -28 -28 -28 -4 0 12 6 21
16 21 9 0 14 -7 12 -17z m897 -23 c0 -29 -32 -41 -41 -16 -9 24 4 48 23 44 12
-2 18 -12 18 -28z m-1167 -37 c4 -35 -18 -57 -48 -48 -29 9 -28 62 3 75 32 13
42 7 45 -27z m2431 24 c8 -10 7 -17 -1 -25 -26 -26 -60 -4 -38 23 15 18 24 19
39 2z m-338 -17 c27 -15 26 -66 -1 -75 -40 -13 -68 43 -38 73 15 15 15 15 39
2z m-1866 -30 c3 -5 1 -10 -4 -10 -6 0 -11 5 -11 10 0 6 2 10 4 10 3 0 8 -4
11 -10z m2117 -7 c24 -22 23 -50 -4 -64 -18 -10 -24 -8 -40 11 -23 28 -23 46
0 59 23 14 23 14 44 -6z m-351 -13 c31 -17 18 -70 -18 -70 -21 0 -35 37 -23
60 12 23 15 24 41 10z m-1801 -99 c-17 -33 -64 -25 -68 12 -4 37 34 54 62 27
15 -14 16 -21 6 -39z m348 37 c22 -22 14 -67 -13 -80 -46 -21 -75 33 -38 74
19 21 34 23 51 6z m314 -43 c-3 -20 -8 -57 -11 -83 -1 -10 -6 -10 -22 -2 -14
8 -18 17 -13 28 6 16 11 43 13 70 1 8 9 12 19 10 10 -2 16 -11 14 -23z m-562
-4 c21 -41 -21 -81 -58 -55 -26 18 -28 37 -6 58 21 22 51 20 64 -3z m360 -1
c16 -31 -4 -62 -38 -58 -19 2 -28 10 -30 26 -7 47 47 72 68 32z m-1092 -12 c7
-7 12 -31 12 -55 0 -37 -4 -45 -25 -53 -65 -25 -124 51 -78 102 18 20 73 24
91 6z m2138 1 c8 -14 -21 -43 -35 -35 -19 12 -13 46 8 46 11 0 23 -5 27 -11z
m362 -11 c7 -7 12 -26 12 -43 0 -57 -48 -74 -89 -32 -21 24 -21 45 2 75 12 15
59 16 75 0z m-568 -23 c26 -31 -18 -71 -47 -42 -19 19 -8 57 16 57 10 0 24 -7
31 -15z m-100 -15 c15 -28 -4 -60 -35 -60 -15 0 -26 7 -30 20 -10 32 4 60 30
60 14 0 29 -9 35 -20z m-325 -30 c0 -38 -24 -52 -50 -30 -31 25 -9 73 30 68
16 -2 20 -11 20 -38z m105 21 c14 -28 13 -39 -9 -50 -13 -7 -24 -6 -37 3 -16
12 -16 18 -6 40 14 31 37 34 52 7z m112 -6 c10 -21 9 -29 -5 -43 -29 -28 -69
12 -53 54 9 23 45 16 58 -11z m-791 5 c23 -13 25 -52 4 -70 -8 -7 -25 -10 -40
-6 -20 5 -25 13 -25 36 0 17 7 33 18 39 21 13 20 13 43 1z m1454 -30 c0 -28
-4 -36 -22 -38 -29 -4 -56 34 -42 60 7 13 19 18 37 16 24 -3 27 -7 27 -38z
m-1330 -24 c14 -20 14 -28 3 -45 -24 -39 -88 -22 -88 24 0 48 58 62 85 21z
m1895 2 c11 -12 18 -28 15 -36 -3 -7 -5 -20 -5 -27 0 -20 -36 -36 -64 -29 -16
4 -29 17 -35 37 -22 63 43 104 89 55z m-792 -32 c5 -24 -10 -38 -31 -30 -20 7
-22 25 -5 42 16 16 32 10 36 -12z m892 14 c0 -5 -4 -10 -10 -10 -5 0 -10 5
-10 10 0 6 5 10 10 10 6 0 10 -4 10 -10z m-2393 -17 c2 -6 -3 -13 -12 -16 -10
-5 -15 0 -15 14 0 21 21 22 27 2z m618 -3 c37 -41 -12 -106 -61 -79 -28 15
-32 54 -7 81 21 23 45 23 68 -2z m785 6 c17 -21 9 -56 -17 -73 -19 -13 -24
-12 -42 6 -25 25 -27 44 -5 65 19 20 48 20 64 2z m-132 -49 c2 -12 -3 -17 -17
-17 -15 0 -21 6 -21 21 0 25 33 22 38 -4z m-330 -25 c-2 -9 -13 -18 -26 -20
-17 -3 -22 1 -22 21 0 13 3 27 6 30 12 11 45 -14 42 -31z m-578 -22 c42 -42
32 -98 -21 -115 -22 -7 -74 18 -83 40 -27 71 52 127 104 75z m-435 -85 c49
-49 20 -125 -47 -125 -36 1 -55 12 -81 50 l-17 24 0 -31 c0 -61 -77 -104 -122
-69 -33 25 -28 99 9 123 26 17 103 25 103 11 0 -15 22 -8 52 17 37 32 72 32
103 0z m2083 -31 c39 -41 40 -53 3 -93 -40 -43 -90 -43 -127 -1 -26 28 -28 29
-56 14 -36 -19 -66 -10 -79 23 -20 54 55 101 91 58 12 -14 16 -13 39 8 49 46
79 44 129 -9z m-2657 -123 c16 -16 29 -39 29 -51 0 -27 -52 -80 -78 -80 -11 0
-31 9 -46 21 -36 28 -36 81 0 114 35 33 59 31 95 -4z m722 -282 c23 -28 22
-70 -4 -103 -45 -57 -149 -14 -135 57 9 46 51 80 90 73 17 -3 39 -16 49 -27z
m1488 -108 c16 -17 29 -40 29 -54 0 -32 -33 -73 -65 -81 -29 -7 -79 15 -89 39
-35 92 58 163 125 96z m-1071 -18 c35 -23 40 -33 40 -73 0 -46 -23 -77 -63
-88 -100 -28 -151 112 -59 162 36 20 52 20 82 -1z"/>
<path d="M4310 5000 c-11 -11 -22 -20 -25 -19 -3 0 -11 -1 -18 -4 -15 -5 4
-43 48 -94 l31 -36 32 17 c24 12 30 20 24 34 -15 35 -63 122 -67 122 -3 0 -14
-9 -25 -20z"/>
<path d="M4995 4910 c-3 -5 -25 -7 -48 -4 -60 7 -68 -1 -56 -61 20 -102 9 -92
96 -82 172 19 400 -13 561 -81 135 -56 220 -108 331 -204 24 -21 49 -38 55
-38 13 0 96 81 96 93 0 4 -7 7 -15 7 -13 0 -19 11 -17 31 2 9 -84 79 -153 126
-139 94 -348 178 -520 207 -100 18 -320 22 -330 6z m71 -59 c-10 -16 -36 -13
-43 5 -8 22 18 37 36 20 7 -8 10 -19 7 -25z"/>
<path d="M3862 4623 c-71 -86 -112 -148 -107 -161 2 -7 1 -11 -4 -7 -16 9
-130 -199 -117 -213 3 -3 0 -10 -8 -16 -26 -21 -86 -219 -106 -346 -6 -41 -13
-85 -15 -97 -4 -17 0 -22 22 -26 l28 -4 -27 -2 c-24 -1 -27 -6 -33 -52 -4 -29
-3 -55 2 -60 6 -6 41 -9 79 -7 l69 3 2 55 c1 30 4 64 6 75 3 11 8 44 12 74 4
30 20 100 36 155 16 56 29 102 29 103 0 1 -6 0 -13 -3 -21 -8 -43 24 -28 39 9
9 16 9 31 -1 18 -11 21 -8 34 20 32 77 88 188 97 193 5 4 9 15 9 26 0 10 4 19
9 19 5 0 19 16 31 35 12 19 39 56 61 82 21 26 39 51 39 55 0 8 -86 91 -100 96
-4 2 -21 -14 -38 -35z m-51 -200 c13 -16 12 -17 -3 -4 -17 13 -22 21 -14 21 2
0 10 -8 17 -17z m-194 -429 c3 -8 0 -21 -6 -27 -10 -9 -16 -8 -27 7 -11 16
-11 22 -1 28 18 12 27 10 34 -8z m-10 -250 c-3 -3 -12 -4 -19 -1 -8 3 -5 6 6
6 11 1 17 -2 13 -5z"/>
<path d="M6556 4099 c-27 -10 -53 -22 -58 -27 -14 -14 17 -87 38 -90 32 -6 37
-19 16 -38 -19 -18 -20 -22 -5 -99 24 -126 21 -375 -5 -510 -23 -114 -60 -242
-85 -292 -35 -69 -34 -71 39 -104 76 -34 74 -35 99 46 9 28 23 62 31 77 20 38
18 49 -10 42 -31 -7 -44 13 -22 34 16 16 18 16 32 -2 7 -11 16 -18 18 -15 12
13 47 170 60 269 23 173 16 400 -14 505 -4 17 -11 47 -15 67 -4 29 -9 36 -23
32 -13 -5 -14 -4 -3 4 15 10 12 42 -8 95 -12 31 -19 32 -85 6z"/>
<path d="M6295 3953 c-27 -8 -53 -18 -57 -22 -4 -3 -1 -31 7 -61 8 -30 20
-112 27 -182 l12 -128 58 0 c51 0 58 2 58 20 0 11 7 20 15 20 20 0 20 68 0
186 -34 201 -29 195 -120 167z"/>
<path d="M4292 3782 c-9 -6 -12 -31 -10 -83 l3 -74 35 -3 c19 -2 43 3 54 11
24 18 34 104 14 130 -15 20 -76 32 -96 19z"/>
<path d="M4282 3478 c3 -103 6 -106 73 -94 40 8 55 40 50 112 -4 58 -22 74
-82 74 l-44 0 3 -92z"/>
<path d="M5072 3782 c-9 -7 -12 -54 -10 -203 3 -216 1 -208 74 -195 48 9 56
47 52 224 -3 137 -4 145 -27 163 -24 20 -66 25 -89 11z"/>
<path d="M5382 3628 c-12 -68 -22 -129 -22 -135 0 -13 90 -19 102 -8 6 7 -44
265 -52 265 -3 0 -16 -55 -28 -122z"/>
<path d="M5895 3653 c-9 -54 -21 -112 -25 -130 -4 -17 -5 -34 -2 -37 3 -3 27
-6 54 -6 39 0 48 3 48 18 0 29 -42 237 -50 245 -4 5 -15 -35 -25 -90z"/>
<path d="M5725 2279 c-43 -21 -59 -34 -57 -47 2 -13 1 -14 -7 -3 -14 21 -184
-34 -177 -58 15 -58 39 -131 43 -131 18 0 166 55 177 65 7 8 16 12 19 9 6 -6
89 29 124 52 l23 14 -35 63 c-19 34 -38 63 -42 64 -4 1 -35 -12 -68 -28z"/>
</g>
</svg>
