<?xml version="1.0" standalone="no"?>
<!DOCTYPE svg PUBLIC "-//W3C//DTD SVG 20010904//EN"
 "http://www.w3.org/TR/2001/REC-SVG-20010904/DTD/svg10.dtd">
<svg version="1.0" xmlns="http://www.w3.org/2000/svg"
 width="204.000000pt" height="192.000000pt" viewBox="0 0 204.000000 192.000000"
 preserveAspectRatio="xMidYMid meet">

<g transform="translate(0.000000,192.000000) scale(0.100000,-0.100000)"
fill="#000000" stroke="none">
<path d="M819 1443 c-31 -82 -136 -127 -214 -91 -24 11 -29 8 -66 -29 -41 -40
-41 -40 -25 -71 22 -42 20 -68 -8 -127 -15 -33 -33 -55 -52 -64 -16 -7 -36
-17 -44 -21 -11 -5 -15 -23 -15 -61 0 -50 2 -55 30 -68 43 -20 64 -41 86 -83
22 -44 24 -83 4 -118 -20 -35 -20 -35 24 -81 39 -40 40 -40 70 -25 75 39 179
-4 210 -86 10 -26 15 -28 65 -28 l55 0 20 45 c16 37 29 50 66 66 45 20 46 21
43 62 l-3 42 -130 5 c-157 6 -207 26 -267 106 -98 129 -63 313 77 399 45 28
55 30 164 33 160 4 161 4 161 52 0 37 -3 40 -45 59 -37 16 -50 29 -66 66 l-20
45 -55 0 c-50 0 -55 -2 -65 -27z"/>
<path d="M1235 1411 c-40 -17 -60 -50 -60 -101 0 -40 -5 -54 -29 -79 l-30 -31
-113 0 -113 0 0 -30 0 -30 134 0 133 0 42 45 c32 34 49 45 72 45 42 0 89 48
89 90 0 42 -15 67 -50 85 -32 17 -45 18 -75 6z m69 -62 c30 -43 -20 -93 -63
-63 -25 18 -27 46 -5 68 22 22 50 20 68 -5z"/>
<path d="M1550 1220 c-27 -29 -32 -30 -112 -30 l-85 0 -64 -60 -64 -59 -167
-1 -168 0 0 -30 0 -30 187 0 186 0 63 60 62 60 67 0 c62 0 69 -2 95 -30 22
-24 36 -30 69 -30 57 0 91 33 91 90 0 57 -34 90 -91 90 -33 0 -47 -6 -69 -30z
m89 -20 c36 -19 36 -61 0 -81 -46 -24 -86 54 -41 80 21 13 20 13 41 1z"/>
<path d="M1370 1003 c-8 -3 -26 -16 -40 -29 -25 -23 -31 -24 -230 -26 l-205
-3 -3 -32 -3 -33 205 0 204 0 30 -30 c42 -41 92 -41 133 -1 17 18 29 40 29 56
0 68 -62 119 -120 98z m51 -53 c26 -14 24 -55 -3 -74 -19 -13 -25 -14 -43 -2
-26 17 -31 49 -10 70 19 19 29 20 56 6z"/>
<path d="M894 806 c-3 -8 -4 -23 -2 -33 3 -16 17 -18 120 -21 115 -3 117 -3
137 -30 12 -18 17 -37 14 -55 -8 -42 16 -87 55 -104 65 -27 132 19 132 92 0
39 -50 85 -92 85 -25 0 -41 9 -69 40 l-37 40 -126 0 c-101 0 -128 -3 -132 -14z
m394 -128 c36 -36 -11 -93 -57 -69 -39 21 -21 81 24 81 12 0 26 -5 33 -12z"/>
</g>
</svg>
