<?xml version="1.0" standalone="no"?>
<!DOCTYPE svg PUBLIC "-//W3C//DTD SVG 20010904//EN"
 "http://www.w3.org/TR/2001/REC-SVG-20010904/DTD/svg10.dtd">
<svg version="1.0" xmlns="http://www.w3.org/2000/svg"
 width="909.000000pt" height="605.000000pt" viewBox="0 0 909.000000 605.000000"
 preserveAspectRatio="xMidYMid meet">

<g transform="translate(0.000000,605.000000) scale(0.100000,-0.100000)"
fill="#000000" stroke="none">
<path d="M2817 4262 c-10 -10 -17 -23 -17 -28 0 -4 7 1 15 13 8 12 25 24 38
26 21 4 21 4 1 6 -11 0 -28 -7 -37 -17z"/>
<path d="M2895 4260 c3 -5 8 -10 11 -10 2 0 4 5 4 10 0 6 -5 10 -11 10 -5 0
-7 -4 -4 -10z"/>
<path d="M2916 4213 c-3 -10 -11 -26 -18 -35 -7 -9 -9 -20 -5 -24 11 -12 28
10 33 45 6 34 0 42 -10 14z"/>
<path d="M3103 3955 c-3 -9 -3 -18 -1 -21 3 -3 8 4 11 16 6 23 -1 27 -10 5z"/>
<path d="M1024 2806 c-24 -50 -2 -86 78 -124 79 -38 118 -50 238 -71 l95 -17
2 -277 c1 -152 -2 -279 -6 -281 -14 -9 -233 34 -284 56 -70 30 -90 49 -82 81
9 34 -12 44 -36 16 -29 -33 -23 -58 21 -100 31 -30 62 -45 138 -69 53 -17 131
-36 172 -43 l75 -12 3 -161 c2 -140 5 -163 20 -178 16 -14 61 -16 358 -18
l339 -3 3 -52 3 -53 -83 0 c-52 0 -89 -5 -96 -12 -17 -17 -15 -44 4 -62 13
-14 65 -16 414 -16 l400 0 15 24 c13 19 14 29 5 45 -9 19 -20 21 -95 21 l-85
0 0 50 0 49 341 3 341 3 19 24 c18 22 19 47 19 581 0 534 -1 559 -19 581 l-19
24 -484 5 c-265 3 -680 3 -920 0 -504 -6 -474 1 -480 -100 l-3 -55 -45 3 c-71
5 -198 32 -249 54 -64 27 -80 44 -75 77 7 44 -23 49 -42 7z m2226 -592 l0
-494 -855 0 -855 0 0 495 0 494 855 0 855 0 0 -495z"/>
<path d="M6704 2815 c-14 -21 -15 -31 -6 -50 l12 -25 -511 0 -510 0 -24 -25
-25 -24 0 -509 c0 -487 1 -511 19 -533 l19 -24 859 3 c858 2 858 2 876 23 14
18 17 43 17 164 l0 142 108 7 c301 20 522 97 530 185 2 20 -3 40 -13 51 -16
18 -18 18 -63 -5 -102 -51 -269 -86 -464 -99 l-98 -7 0 249 0 249 103 7 c199
14 274 28 418 82 102 38 148 99 110 146 l-18 22 -59 -28 c-117 -55 -295 -88
-474 -88 -63 0 -207 5 -320 10 -217 10 -292 24 -405 77 -29 14 -55 25 -58 25
-4 0 -14 -11 -23 -25z m626 -635 l0 -450 -795 0 -795 0 0 450 0 450 795 0 795
0 0 -450z"/>
<path d="M5652 1558 c-7 -7 -12 -37 -12 -68 0 -31 5 -61 12 -68 17 -17 1749
-17 1766 0 7 7 12 37 12 68 0 31 -5 61 -12 68 -17 17 -1749 17 -1766 0z m876
-20 c-3 -9 -38 -14 -116 -16 -95 -2 -112 0 -112 13 0 13 18 15 116 15 88 0
115 -3 112 -12z m242 -3 c0 -12 -19 -15 -110 -15 -91 0 -110 3 -110 15 0 12
19 15 110 15 91 0 110 -3 110 -15z"/>
</g>
</svg>
