<?xml version="1.0" standalone="no"?>
<!DOCTYPE svg PUBLIC "-//W3C//DTD SVG 20010904//EN"
 "http://www.w3.org/TR/2001/REC-SVG-20010904/DTD/svg10.dtd">
<svg version="1.0" xmlns="http://www.w3.org/2000/svg"
 width="780.000000pt" height="496.000000pt" viewBox="0 0 780.000000 496.000000"
 preserveAspectRatio="xMidYMid meet">

<g transform="translate(0.000000,496.000000) scale(0.100000,-0.100000)"
fill="#000000" stroke="none">
<path d="M0 2480 l0 -2480 3900 0 3900 0 0 2480 0 2480 -3900 0 -3900 0 0
-2480z m6475 1991 c9 -16 -35 -35 -49 -21 -8 9 -7 11 4 10 8 -1 22 -2 30 -1
13 1 13 2 0 11 -9 6 -10 10 -3 10 6 0 14 -4 18 -9z m-22 -43 c20 6 3 -10 -31
-27 -47 -24 -73 -52 -54 -58 6 -3 12 -11 12 -19 0 -8 -6 -14 -12 -14 -9 0 -8
-4 2 -10 8 -5 22 -9 30 -9 10 0 8 3 -4 8 -19 7 -19 8 1 13 18 5 21 2 17 -17
-3 -18 5 -27 45 -48 27 -15 58 -27 69 -27 12 0 71 29 133 65 62 36 114 63 116
61 4 -4 -59 -43 -189 -116 -65 -36 -66 -36 -170 21 -90 50 -103 53 -105 26 -2
-21 -1 -21 11 -4 11 14 15 15 19 3 3 -7 31 -29 61 -47 30 -19 56 -40 56 -46 0
-18 -10 -16 -48 7 -18 11 -38 17 -44 14 -7 -4 -8 -2 -4 4 6 11 0 14 -20 11 -4
0 -11 5 -15 13 -6 9 -9 9 -9 1 0 -9 -7 -10 -22 -4 -19 7 -24 18 -29 67 -5 57
4 90 22 78 5 -3 9 -1 9 5 0 5 24 23 53 39 41 22 56 26 72 18 11 -6 23 -9 28
-8z m-4835 -13 c59 -18 112 -65 112 -101 0 -33 -52 -80 -112 -100 -36 -12 -72
-15 -127 -12 -214 13 -263 161 -72 219 44 13 145 10 199 -6z m5142 -125 c0 -5
-5 -10 -11 -10 -5 0 -7 5 -4 10 3 6 8 10 11 10 2 0 4 -4 4 -10z m-4572 -103
c23 -15 51 -45 62 -66 19 -38 20 -60 20 -653 1 -341 5 -629 10 -648 11 -42 48
-79 110 -112 42 -22 56 -23 230 -23 l185 0 6 46 c9 58 52 144 92 181 32 30
117 78 138 78 26 0 48 45 49 98 0 66 31 190 64 259 27 55 102 154 145 191 31
27 111 74 200 118 50 25 73 31 100 26 29 -4 33 -3 28 11 -7 19 17 35 60 40 16
2 34 7 41 11 7 4 37 10 67 13 l55 6 1 -44 c1 -24 1 -47 0 -51 0 -5 5 -8 13 -8
10 0 12 12 8 49 l-4 49 46 7 c25 4 62 4 81 1 31 -6 35 -10 35 -39 -1 -18 -5
-52 -10 -77 -9 -43 -8 -46 23 -73 l32 -28 7 38 c4 21 13 64 19 97 l11 58 40
-5 c49 -7 78 -31 60 -49 -7 -7 -12 -18 -12 -26 0 -8 -9 -33 -19 -56 -38 -82
-41 -92 -27 -123 11 -26 36 -31 36 -7 0 10 6 14 15 10 8 -3 15 -1 15 4 0 6 -4
10 -9 10 -5 0 -7 9 -4 20 3 11 10 20 15 20 5 0 6 4 3 10 -8 13 35 131 51 137
7 2 26 -4 44 -14 17 -10 44 -25 58 -33 49 -28 82 -52 82 -60 0 -4 -18 -30 -40
-58 -53 -66 -34 -80 24 -18 23 25 46 46 51 46 14 0 105 -93 105 -107 0 -7 14
-20 32 -29 115 -60 208 -222 208 -364 l0 -50 59 0 c144 0 280 -127 306 -283
l6 -39 187 4 c181 3 189 4 239 30 28 15 63 43 77 61 l26 34 0 615 c0 672 1
687 57 740 52 50 88 58 263 58 100 0 160 -4 160 -10 0 -6 -54 -10 -141 -10
-173 0 -215 -10 -265 -61 l-39 -40 -3 -386 -3 -386 37 32 c20 18 47 37 61 42
34 13 353 12 353 -1 0 -6 -59 -10 -158 -10 -144 0 -162 -2 -202 -22 -83 -43
-84 -47 -90 -322 -5 -236 -6 -244 -29 -278 -13 -19 -40 -46 -59 -59 l-36 -24
287 -3 c180 -1 287 -6 287 -12 0 -6 -99 -10 -267 -11 -148 -1 -272 -2 -278 -4
-5 -1 -17 -3 -25 -4 -8 -1 2 -11 22 -21 20 -11 50 -36 65 -57 l28 -36 5 -248
c6 -275 6 -276 80 -326 31 -22 43 -23 201 -23 113 0 169 -4 169 -11 0 -7 -59
-9 -183 -7 -192 3 -184 1 -243 55 l-24 22 0 -326 c0 -309 1 -327 20 -358 37
-59 74 -70 263 -73 94 -2 167 -7 167 -13 0 -5 -70 -9 -167 -9 -198 0 -233 11
-280 81 l-28 43 -5 599 -5 599 -43 39 c-69 61 -111 70 -313 67 l-173 -3 -8
-42 c-21 -123 -128 -228 -257 -253 -27 -5 -127 -10 -221 -10 l-170 -2 6 -23
c9 -38 -15 -40 -52 -4 -44 43 -52 33 -12 -16 l32 -38 -40 -33 c-21 -19 -45
-34 -51 -34 -7 0 -13 -4 -13 -9 0 -5 -7 -12 -16 -15 -19 -7 -32 8 -70 82 -23
45 -25 55 -13 64 11 8 11 9 -3 4 -10 -3 -20 -1 -23 4 -3 5 3 11 12 13 10 3
-18 5 -62 5 -44 0 -72 -2 -62 -5 19 -5 76 -88 114 -165 27 -56 27 -55 11 -55
-7 0 -20 -4 -30 -8 -11 -4 -18 0 -23 15 -4 12 -9 19 -12 17 -2 -3 0 -14 6 -26
9 -17 8 -22 -9 -31 -19 -10 -23 -7 -40 32 -20 46 -41 128 -33 128 3 0 1 6 -4
13 -11 13 -27 67 -25 80 1 4 -86 6 -195 5 l-197 -3 -19 -75 c-48 -189 -49
-191 -82 -186 -53 8 -75 18 -75 33 0 13 28 76 67 148 44 84 45 85 15 85 -21 0
-32 -9 -50 -41 -13 -22 -21 -43 -19 -46 3 -3 -7 -26 -22 -51 -15 -26 -30 -55
-34 -65 -4 -12 -12 -15 -19 -11 -120 74 -169 121 -145 136 6 4 8 8 4 8 -5 0 8
16 27 35 l36 35 -27 0 c-17 0 -39 -12 -61 -32 l-33 -33 -27 32 c-27 31 -28 32
-132 35 -84 3 -114 8 -150 26 -91 46 -159 128 -183 222 l-14 55 -167 3 c-187
3 -226 -4 -288 -51 -82 -62 -78 -29 -78 -670 0 -460 -3 -574 -14 -600 -16 -39
-61 -82 -99 -96 -37 -14 -357 -15 -357 -1 0 6 58 10 155 10 198 0 247 17 281
99 19 47 21 674 2 649 -7 -9 -31 -28 -52 -42 -38 -25 -42 -26 -212 -26 -101 0
-174 4 -174 9 0 6 75 11 174 13 191 3 201 6 250 72 20 25 21 45 26 275 l5 248
28 36 c15 20 41 44 57 54 17 9 30 21 30 25 0 4 -128 8 -285 8 -180 0 -285 4
-285 10 0 6 109 11 293 12 l292 3 -40 22 c-22 11 -51 36 -65 55 -25 33 -25 36
-30 273 -5 232 -6 241 -29 279 -40 64 -79 76 -263 76 -99 0 -158 4 -158 10 0
6 62 10 165 10 179 0 201 -5 258 -58 l27 -26 0 369 c0 348 -1 371 -20 410 -13
27 -34 50 -63 66 -39 22 -54 24 -204 27 -97 2 -163 8 -163 14 0 6 65 8 173 6
170 -3 174 -4 215 -31z m-818 -40 c100 -42 261 -28 336 29 43 33 44 33 44 10
0 -69 -96 -135 -208 -144 -135 -9 -262 57 -262 136 l0 36 28 -27 c15 -14 43
-32 62 -40z m4972 44 c-1 -7 2 -10 7 -7 5 4 12 2 16 -4 3 -5 2 -10 -3 -10 -5
0 -9 -7 -9 -15 0 -14 10 -19 30 -16 5 1 6 -3 3 -8 -4 -5 -3 -11 1 -14 10 -5
-4 -2 -37 8 -14 4 17 -19 68 -50 67 -41 100 -55 116 -51 12 3 73 35 134 70 62
36 112 62 112 58 0 -15 -233 -142 -259 -142 -14 0 -39 8 -56 18 -85 52 -147
84 -142 75 4 -6 1 -14 -5 -17 -7 -3 -2 -3 11 0 14 4 21 2 18 -3 -4 -6 20 -25
53 -44 33 -19 60 -40 60 -46 0 -19 -14 -16 -68 16 -30 18 -54 26 -62 21 -22
-14 -60 11 -61 39 0 14 -2 40 -4 56 -5 34 0 45 35 68 26 18 47 17 42 -2z m279
5 c5 3 9 1 9 -4 0 -6 -7 -12 -15 -16 -8 -3 -15 -1 -15 4 0 5 -8 7 -17 4 -15
-5 -15 -3 2 11 12 9 21 11 23 5 2 -5 8 -8 13 -4z m-5090 -42 c-21 -15 -24 -15
-39 0 -15 15 -13 16 23 16 39 0 39 0 16 -16z m5169 -94 c0 -5 -5 -10 -11 -10
-5 0 -7 5 -4 10 3 6 8 10 11 10 2 0 4 -4 4 -10z m-5150 -49 c0 -6 -5 -13 -10
-16 -15 -9 -71 5 -64 16 7 12 74 12 74 0z m5044 -15 c-10 -8 -21 -12 -24 -10
-5 6 21 24 34 24 6 0 1 -6 -10 -14z m-2586 -73 l2 -53 -44 0 c-49 0 -56 8 -56
71 l0 40 48 -3 47 -3 3 -52z m-200 37 c4 0 8 -22 9 -49 2 -47 1 -49 -29 -55
-20 -4 -34 -2 -39 5 -4 8 -8 5 -11 -7 -2 -10 -8 7 -14 39 l-11 57 31 9 c17 5
37 7 44 5 8 -2 17 -4 20 -4z m321 -27 c1 15 7 17 39 11 20 -4 48 -11 62 -15
20 -6 21 -7 5 -8 -11 -1 -34 3 -51 8 -30 8 -31 7 -31 -18 0 -14 2 -21 4 -14 2
7 10 10 18 7 21 -9 3 -58 -23 -62 -15 -2 -22 2 -22 12 0 13 -6 15 -26 10 -21
-5 -25 -4 -19 7 5 7 10 24 11 37 2 14 6 32 10 41 5 13 8 11 14 -9 6 -17 8 -19
9 -7z m-515 -44 c-6 -33 -8 -35 -40 -31 -38 5 -37 22 1 22 18 0 26 7 31 25 9
37 14 25 8 -16z m29 -15 c6 -36 4 -42 -17 -52 -14 -6 -28 -7 -37 -1 -13 8 -6
13 13 10 4 0 13 19 19 44 6 25 13 44 14 43 1 -2 5 -21 8 -44z m-63 26 c0 -5
-10 -10 -22 -10 -19 0 -20 2 -8 10 19 13 30 13 30 0z m-69 -57 c-9 -16 -10
-16 -11 -1 0 9 -3 25 -7 35 -7 17 -6 17 11 1 13 -13 15 -22 7 -35z m711 35
c-7 -7 -12 -20 -12 -30 0 -10 -5 -18 -11 -18 -13 0 -1 42 15 52 17 12 21 9 8
-4z m-649 -35 c-7 -2 -19 -2 -25 0 -7 3 -2 5 12 5 14 0 19 -2 13 -5z m-183
-27 c0 -3 -4 -8 -10 -11 -5 -3 -10 -1 -10 4 0 6 5 11 10 11 6 0 10 -2 10 -4z
m917 -18 c-3 -8 -6 -5 -6 6 -1 11 2 17 5 13 3 -3 4 -12 1 -19z m2143 -143 c-7
-8 -9 -15 -5 -15 4 0 2 -6 -4 -13 -6 -8 -8 -17 -4 -21 4 -4 -1 -4 -11 0 -14 5
-17 4 -12 -4 4 -8 -2 -16 -17 -21 -14 -6 -28 -15 -32 -20 -7 -12 18 -54 27
-45 3 3 9 1 12 -4 3 -6 -2 -9 -11 -7 -34 5 -35 -7 -3 -27 26 -15 35 -17 48 -6
14 10 15 10 5 -2 -10 -11 -6 -18 25 -36 43 -27 69 -30 97 -10 19 13 36 22 170
96 101 56 37 7 -77 -58 -59 -34 -119 -62 -133 -62 -14 0 -69 23 -122 51 -54
28 -92 45 -85 37 6 -8 8 -19 4 -23 -4 -5 -2 -5 5 -2 6 4 17 1 25 -6 7 -7 34
-26 61 -41 26 -15 47 -35 47 -43 0 -8 -3 -13 -7 -11 -5 2 -31 15 -59 30 -28
15 -54 24 -58 21 -3 -4 -6 0 -6 8 0 12 -2 12 -9 0 -7 -10 -13 -11 -30 -2 -16
9 -21 21 -21 54 0 23 -3 51 -6 62 -4 16 6 27 51 53 30 18 60 30 67 26 6 -4 8
-3 5 3 -8 13 20 26 36 16 7 -3 9 -3 5 2 -4 4 0 14 10 21 23 18 27 17 12 -1z
m-4800 -74 c107 -56 106 -126 -4 -177 -131 -61 -346 -5 -346 91 0 43 44 81
119 106 50 16 184 5 231 -20z m5110 -101 c0 -5 -5 -10 -11 -10 -5 0 -7 5 -4
10 3 6 8 10 11 10 2 0 4 -4 4 -10z m-60 -30 c0 -5 -5 -10 -11 -10 -5 0 -7 5
-4 10 3 6 8 10 11 10 2 0 4 -4 4 -10z m-340 -85 c0 -3 -6 -3 -12 0 -7 4 5 -10
27 -29 22 -20 34 -36 28 -36 -7 0 -13 5 -13 10 0 14 -27 13 -36 -2 -5 -8 -2
-9 10 -5 10 4 15 3 11 -3 -7 -11 29 -32 39 -23 3 3 6 2 6 -3 0 -5 24 -23 53
-39 l54 -28 94 53 c52 29 109 62 128 73 19 12 32 16 28 10 -11 -18 -233 -143
-253 -143 -11 0 -58 22 -106 49 -101 56 -121 45 -23 -13 36 -21 65 -44 65 -52
0 -19 -5 -18 -56 12 -31 19 -49 23 -56 16 -7 -7 -20 -4 -43 9 -30 18 -34 25
-37 77 -4 48 -1 60 16 74 12 10 26 22 31 27 9 8 45 -19 45 -34z m234 21 c-10
-8 -21 -12 -24 -10 -5 6 21 24 34 24 6 0 1 -6 -10 -14z m-5228 -58 c104 -45
261 -32 342 30 l45 34 -8 -39 c-14 -76 -89 -122 -213 -130 -63 -4 -87 -1 -134
16 -74 28 -118 73 -118 120 l0 35 22 -23 c11 -13 41 -32 64 -43z m5254 42 c-8
-5 -17 -7 -19 -4 -3 3 1 9 9 14 8 5 17 7 19 4 3 -3 -1 -9 -9 -14z m-5085 -30
c-28 -12 -55 -12 -55 0 0 6 17 10 38 9 30 0 33 -2 17 -9z m5092 -152 c-3 -7
-5 -2 -5 12 0 14 2 19 5 13 2 -7 2 -19 0 -25z m-18 0 c0 -13 -3 -18 -5 -11 -3
7 -13 9 -22 6 -13 -4 -12 -2 3 10 26 21 25 21 24 -5z m-5049 1 c0 -15 -51 -19
-70 -6 -18 12 -16 14 25 14 25 0 45 -4 45 -8z m4912 -261 c-9 -9 -9 -15 1 -27
10 -12 9 -13 -1 -7 -9 5 -21 0 -33 -13 -17 -19 -31 -25 -50 -23 -3 0 -10 -7
-16 -17 -9 -14 -8 -23 3 -40 9 -12 21 -18 27 -15 8 5 8 3 0 -7 -7 -7 -13 -16
-13 -20 0 -11 115 -79 134 -79 10 0 63 26 119 59 132 75 151 85 144 74 -13
-21 -238 -143 -264 -143 -15 0 -67 23 -115 50 -48 28 -94 50 -100 49 -7 0 -4
-4 7 -9 11 -5 15 -9 9 -9 -6 -1 -11 -8 -11 -16 0 -11 4 -12 13 -4 8 6 14 7 18
0 4 -5 31 -24 61 -41 30 -17 55 -38 55 -46 0 -20 -10 -18 -62 15 -28 18 -57
28 -72 27 -14 -2 -26 1 -26 6 0 5 -5 6 -10 3 -13 -8 -17 6 -23 77 l-5 57 45
25 c25 14 50 23 56 19 5 -3 7 -1 4 4 -8 13 20 26 35 16 7 -3 8 -1 4 5 -8 13
23 31 43 24 8 -3 11 0 7 7 -4 6 0 11 10 11 14 0 15 -3 6 -12z m-4829 -67 c48
-21 87 -63 87 -93 0 -30 -61 -85 -111 -99 -24 -7 -77 -12 -116 -12 -164 0
-264 111 -164 182 72 51 212 61 304 22z m5117 -111 c0 -5 -5 -10 -11 -10 -5 0
-7 5 -4 10 3 6 8 10 11 10 2 0 4 -4 4 -10z m-60 -30 c0 -5 -5 -10 -11 -10 -5
0 -7 5 -4 10 3 6 8 10 11 10 2 0 4 -4 4 -10z m-340 -85 c0 -4 -10 -16 -22 -26
-22 -19 -22 -20 -1 -8 28 17 60 -5 42 -27 -6 -8 -9 -14 -6 -14 3 0 14 -3 24
-6 15 -5 16 -4 3 6 -13 10 -13 11 0 7 8 -2 14 -9 13 -16 -4 -17 99 -72 122
-65 16 6 71 36 239 132 5 3 6 0 3 -5 -11 -18 -233 -143 -253 -143 -11 0 -53
19 -94 42 -41 23 -84 43 -95 45 l-20 3 20 -16 c11 -9 44 -29 73 -46 28 -16 52
-36 52 -44 0 -19 -3 -18 -63 16 -55 31 -72 37 -63 21 9 -13 -18 -8 -42 9 -16
12 -22 29 -25 74 -5 56 -4 59 24 75 16 9 29 20 29 25 0 6 9 0 20 -12 11 -12
20 -24 20 -27z m-4969 -40 c104 -35 281 -8 328 49 35 41 40 -16 6 -67 -43 -66
-215 -99 -325 -62 -70 23 -120 72 -120 118 l0 35 30 -28 c17 -16 53 -36 81
-45z m5203 61 c-10 -8 -21 -12 -24 -10 -5 6 21 24 34 24 6 0 1 -6 -10 -14z
m26 -16 c-8 -5 -17 -7 -19 -4 -3 3 1 9 9 14 8 5 17 7 19 4 3 -3 -1 -9 -9 -14z
m-5065 -20 c14 -6 5 -9 -35 -9 -39 -1 -51 2 -40 9 18 12 48 12 75 0z m5145
-100 c0 -5 -4 -10 -10 -10 -5 0 -10 5 -10 10 0 6 5 10 10 10 6 0 10 -4 10 -10z
m-82 -71 c-7 -5 -14 -4 -16 1 -2 5 -11 6 -20 3 -13 -4 -12 -2 3 10 15 11 22
12 27 4 5 -8 8 -5 9 8 1 19 2 19 6 1 3 -10 -1 -22 -9 -27z m-5080 14 c-10 -2
-28 -2 -40 0 -13 2 -5 4 17 4 22 1 32 -1 23 -4z m-11 -19 c-3 -3 -12 -4 -19
-1 -8 3 -5 6 6 6 11 1 17 -2 13 -5z m4953 -249 c-7 -8 -9 -15 -4 -15 11 0 -23
-29 -72 -63 -41 -28 -54 -57 -25 -57 14 0 14 -2 1 -10 -13 -8 -12 -10 3 -10
10 0 15 -5 12 -10 -4 -6 -11 -7 -17 -4 -7 4 -8 2 -4 -5 4 -6 12 -9 17 -6 5 4
9 2 9 -2 0 -5 14 -17 30 -26 17 -10 30 -16 30 -13 0 3 9 -3 20 -14 11 -11 28
-20 38 -20 10 0 73 32 141 70 69 39 126 68 128 66 8 -8 -241 -146 -263 -146
-14 0 -60 20 -104 45 -88 50 -100 53 -99 28 0 -11 3 -13 6 -5 2 6 9 12 14 12
6 0 8 -4 4 -9 -3 -5 22 -26 55 -46 70 -43 86 -79 20 -45 -23 11 -46 18 -52 14
-7 -4 -8 -3 -4 4 4 7 -7 18 -26 27 -24 11 -28 12 -15 2 28 -23 20 -28 -18 -10
-26 12 -35 23 -36 42 0 14 -2 40 -3 56 -3 37 3 55 18 55 7 0 30 13 52 30 21
16 60 37 86 45 26 9 50 21 53 26 4 5 9 9 12 9 3 0 0 -7 -7 -15z m-4872 -60
c63 -19 122 -68 122 -100 0 -37 -45 -82 -103 -101 -144 -49 -327 8 -327 101 0
84 172 140 308 100z m1931 -201 c-8 -15 -21 -29 -29 -31 -9 -3 -8 0 3 7 14 9
17 19 13 38 -5 21 -4 24 5 12 8 -12 9 -9 5 15 -5 27 -4 28 5 9 8 -16 8 -29 -2
-50z m3161 46 c0 -5 -5 -10 -11 -10 -5 0 -7 5 -4 10 3 6 8 10 11 10 2 0 4 -4
4 -10z m-2430 -14 c0 -3 -4 -8 -10 -11 -5 -3 -10 -1 -10 4 0 6 5 11 10 11 6 0
10 -2 10 -4z m-570 -15 c12 -1 12 -3 2 -10 -8 -4 -12 -19 -10 -32 3 -23 4 -22
21 11 17 33 18 33 12 6 -3 -15 -9 -41 -12 -57 -4 -20 -12 -29 -25 -29 -16 0
-52 14 -66 25 -2 1 2 23 9 49 9 39 15 45 33 42 11 -3 28 -5 36 -5z m517 -13
c-3 -8 -6 -5 -6 6 -1 11 2 17 5 13 3 -3 4 -12 1 -19z m2399 -36 c-10 -11 -16
-12 -16 -4 0 7 5 12 10 12 6 0 11 10 11 23 1 18 2 19 6 3 3 -10 -2 -26 -11
-34z m-2361 20 c-3 -3 -11 0 -18 7 -9 10 -8 11 6 5 10 -3 15 -9 12 -12z
m-2895 -52 c101 -51 280 -34 357 33 l36 32 -6 -39 c-13 -79 -89 -127 -214
-134 -142 -8 -253 51 -253 134 0 39 1 39 18 18 9 -12 37 -32 62 -44z m4995 22
c-2 -7 2 -15 11 -19 13 -5 13 -7 2 -14 -8 -5 -9 -9 -2 -9 7 0 14 -9 17 -20 3
-11 10 -20 17 -20 6 0 8 6 4 13 -4 6 -4 9 0 5 4 -3 7 -10 6 -13 -3 -14 85 -65
112 -65 15 0 76 29 139 65 61 36 114 64 116 61 7 -6 -233 -146 -251 -146 -19
0 -177 80 -188 95 -5 6 -8 4 -8 -5 0 -8 30 -32 65 -54 36 -21 65 -44 65 -52 0
-19 -1 -19 -67 20 -46 27 -60 32 -75 23 -28 -18 -46 9 -50 78 -3 53 -1 60 15
59 10 -1 16 0 13 4 -3 3 2 11 11 17 20 15 56 -2 48 -23z m239 24 c-10 -8 -21
-12 -24 -10 -5 6 21 24 34 24 6 0 1 -6 -10 -14z m-2307 -12 c-3 -3 -12 -4 -19
-1 -8 3 -5 6 6 6 11 1 17 -2 13 -5z m-2747 -24 c0 -5 -13 -10 -30 -10 -16 0
-30 5 -30 10 0 6 14 10 30 10 17 0 30 -4 30 -10z m5220 -60 c0 -5 -5 -10 -11
-10 -5 0 -7 5 -4 10 3 6 8 10 11 10 2 0 4 -4 4 -10z m-415 -70 c3 -5 1 -10 -4
-10 -6 0 -11 5 -11 10 0 6 2 10 4 10 3 0 8 -4 11 -10z m259 -22 c-5 -8 -2 -9
9 -5 10 3 17 2 17 -2 0 -5 -7 -11 -15 -15 -8 -3 -15 -1 -15 4 0 5 -8 7 -17 3
-15 -5 -14 -3 2 10 24 20 29 21 19 5z m-5064 -8 c0 -5 -9 -10 -19 -10 -11 0
-23 5 -26 10 -4 6 5 10 19 10 14 0 26 -4 26 -10z m4933 -237 c-8 -23 -54 -62
-72 -63 -23 0 -41 -32 -30 -53 6 -10 15 -15 22 -10 9 5 9 3 0 -9 -7 -8 -9 -18
-5 -23 4 -4 -3 -2 -15 4 -13 6 -23 10 -23 8 0 -9 159 -97 174 -97 10 0 72 32
138 70 67 39 123 68 125 66 5 -5 -7 -13 -139 -90 -53 -31 -109 -56 -124 -56
-14 0 -66 23 -115 50 -91 51 -118 62 -83 34 13 -11 14 -14 3 -11 -9 3 -16 -1
-16 -8 0 -7 6 -11 12 -9 17 7 135 -66 135 -82 0 -11 -15 -7 -57 15 -32 15 -68
27 -80 25 -13 -2 -23 1 -23 6 0 6 -7 10 -15 10 -11 0 -15 13 -17 50 -1 28 -2
57 -2 66 -1 11 34 35 99 70 55 29 103 53 107 54 4 0 5 -8 1 -17z m-4824 -66
c60 -30 88 -68 75 -104 -24 -69 -161 -116 -271 -94 -193 38 -206 166 -24 218
62 17 164 8 220 -20z m5111 -107 c0 -5 -2 -10 -4 -10 -3 0 -8 5 -11 10 -3 6
-1 10 4 10 6 0 11 -4 11 -10z m-60 -30 c0 -5 -5 -10 -11 -10 -5 0 -7 5 -4 10
3 6 8 10 11 10 2 0 4 -4 4 -10z m-340 -97 c0 -8 -4 -11 -10 -8 -5 3 -10 1 -10
-5 0 -7 8 -9 23 -5 17 6 19 5 10 -5 -13 -14 -6 -43 9 -34 6 4 6 9 -2 14 -8 5
-8 9 3 13 12 4 14 0 11 -18 -6 -32 29 -53 54 -34 14 11 15 11 5 -1 -10 -11 -8
-17 15 -32 45 -30 76 -22 195 47 61 35 113 62 116 60 6 -6 14 -1 -120 -78 -64
-37 -125 -67 -135 -67 -11 0 -58 22 -106 49 -48 27 -90 46 -93 41 -3 -5 26
-27 65 -50 38 -22 70 -47 70 -55 0 -20 -6 -19 -55 9 -23 14 -53 23 -67 22 -44
-5 -65 22 -70 88 -5 56 -4 59 24 75 15 9 28 20 28 25 0 5 9 -1 20 -14 11 -13
20 -29 20 -37z m-4962 -29 c110 -32 274 -6 321 50 20 24 30 19 26 -14 -10 -79
-84 -123 -215 -128 -144 -6 -250 51 -250 133 l0 33 31 -29 c17 -16 56 -36 87
-45z m5196 62 c-10 -8 -21 -12 -24 -10 -5 6 21 24 34 24 6 0 1 -6 -10 -14z
m26 -11 c-7 -9 -15 -13 -19 -10 -3 3 1 10 9 15 21 14 24 12 10 -5z m-5070 -25
c11 -7 4 -10 -27 -10 -24 0 -43 5 -43 10 0 13 50 13 70 0z m5068 -171 c-7 -5
-14 -4 -16 1 -2 5 -11 6 -20 3 -13 -4 -12 -2 3 10 15 11 22 12 27 4 5 -8 8 -5
9 8 1 19 2 19 6 1 3 -10 -1 -22 -9 -27z m-5085 14 c-13 -2 -33 -2 -45 0 -13 2
-3 4 22 4 25 0 35 -2 23 -4z m-6 -19 c-3 -3 -12 -4 -19 -1 -8 3 -5 6 6 6 11 1
17 -2 13 -5z m-505 -297 c12 -19 9 -72 -5 -92 -10 -12 -28 -18 -58 -19 -41 -1
-44 0 -43 27 1 15 2 45 3 66 1 33 5 40 24 43 27 5 69 -9 79 -25z m453 19 c0
-5 -13 -10 -28 -10 -69 -4 -61 -98 8 -98 31 0 28 -22 -4 -26 -27 -4 -67 20
-73 45 -8 31 11 79 34 91 26 13 63 11 63 -2z m405 -1 c0 -8 -4 -15 -10 -15 -5
0 -10 7 -10 15 0 8 5 15 10 15 6 0 10 -7 10 -15z m4249 -47 c12 -34 21 -68 21
-75 0 -20 -21 -15 -27 6 -9 36 -63 31 -63 -6 0 -7 -4 -13 -10 -13 -14 0 -13
14 6 81 10 35 23 60 33 62 9 3 17 5 18 6 0 0 11 -27 22 -61z m289 -10 c-4 -91
-22 -96 -24 -8 -2 68 1 80 17 80 6 0 9 -30 7 -72z m229 46 c-9 -9 -28 6 -21
18 4 6 10 6 17 -1 6 -6 8 -13 4 -17z m327 4 c8 -13 6 -21 -7 -36 -16 -17 -16
-21 -2 -32 12 -10 16 -9 21 4 11 28 23 17 21 -18 -2 -32 -5 -34 -41 -39 -22
-3 -48 -1 -58 4 -21 12 -24 42 -4 58 8 7 12 21 9 31 -11 42 38 65 61 28z
m-5776 -18 c7 -12 8 -20 2 -20 -15 0 -12 -68 3 -73 6 -2 8 -8 4 -13 -16 -17
-42 14 -48 57 -9 61 14 89 39 49z m623 1 c17 -16 18 -19 5 -24 -21 -8 -20 -54
0 -65 20 -11 3 -25 -20 -16 -10 4 -16 18 -16 39 0 19 -4 37 -10 40 -6 4 -5 13
3 25 14 24 13 24 38 1z m4767 2 c12 -12 13 -18 4 -21 -14 -4 -16 -58 -2 -67
15 -9 12 -25 -5 -25 -17 0 -38 36 -32 53 2 7 0 20 -5 30 -6 12 -5 23 3 33 15
18 17 18 37 -3z m-5471 -11 c7 -4 13 -25 15 -46 3 -36 1 -40 -26 -47 -58 -16
-78 33 -23 56 26 11 29 15 15 20 -9 4 -22 4 -28 0 -5 -3 -10 -2 -10 4 0 17 37
26 57 13z m174 -2 c14 -8 19 -21 19 -53 0 -41 -1 -42 -35 -44 -43 -2 -65 26
-39 51 8 9 22 16 30 16 8 0 14 5 14 10 0 6 -12 10 -27 10 -22 0 -25 2 -13 10
19 12 27 12 51 0z m243 -1 c10 16 26 14 26 -4 0 -8 -6 -15 -14 -15 -10 0 -16
-13 -18 -37 -4 -50 -22 -49 -26 1 -4 47 5 77 17 57 6 -9 11 -10 15 -2z m110
-5 c27 -27 20 -44 -20 -44 -32 0 -35 -2 -23 -16 7 -8 21 -13 31 -10 12 3 18 0
15 -7 -6 -19 -43 -20 -61 -2 -30 31 -11 95 29 95 7 0 21 -7 29 -16z m101 0
c10 -11 15 -29 13 -52 -3 -30 -7 -35 -33 -38 -56 -6 -76 40 -25 59 37 14 39
27 4 27 -14 0 -23 4 -19 10 9 15 42 12 60 -6z m135 -39 c0 -30 -4 -55 -10 -55
-5 0 -10 25 -10 55 0 30 5 55 10 55 6 0 10 -25 10 -55z m101 45 c24 -13 26
-62 3 -85 -23 -22 -56 -15 -73 16 -13 24 -13 29 2 53 19 28 37 32 68 16z m124
-2 c3 -3 7 -25 8 -48 3 -59 -21 -66 -25 -8 -2 30 -7 43 -18 43 -11 0 -16 -13
-18 -43 -4 -49 -25 -54 -30 -8 -7 55 4 73 42 71 19 0 38 -3 41 -7z m4143 0
c14 -12 16 -84 3 -93 -6 -3 -11 14 -13 37 -4 56 -31 60 -38 5 -3 -21 -9 -39
-15 -40 -10 -2 -20 66 -12 87 6 14 58 17 75 4z m106 -4 c9 -8 16 -30 16 -48 0
-30 -4 -34 -32 -40 -57 -11 -78 46 -22 60 28 7 22 24 -9 24 -18 0 -19 2 -7 10
21 14 36 12 54 -6z m122 -25 l12 -34 7 32 c4 17 14 34 22 37 12 5 14 1 9 -21
-11 -45 -46 -111 -61 -117 -18 -6 -19 7 -4 32 8 13 7 27 -5 56 -19 46 -20 59
-4 54 6 -2 17 -20 24 -39z m174 -15 c0 -31 -4 -44 -12 -42 -11 4 -20 75 -11
91 11 18 23 -8 23 -49z m95 47 c3 -5 -5 -11 -17 -13 -18 -2 -23 -9 -23 -33 0
-24 5 -31 23 -33 25 -4 20 -22 -5 -22 -25 0 -53 30 -53 56 0 35 59 70 75 45z
m80 -1 c3 -5 -3 -10 -14 -10 -26 0 -27 -17 -2 -25 26 -8 33 -31 15 -50 -17
-17 -25 -18 -48 -9 -22 9 -10 23 14 17 28 -7 25 7 -6 32 -25 20 -25 22 -10 38
19 19 42 22 51 7z m-5880 -206 c14 -15 14 -19 1 -39 -13 -20 -13 -25 -1 -35
12 -10 15 -9 15 4 0 9 7 16 15 16 11 0 12 -5 5 -25 -5 -14 -7 -30 -5 -37 4 -9
-8 -13 -41 -13 -58 0 -83 25 -59 61 8 13 12 29 9 37 -5 14 20 47 36 47 5 0 16
-7 25 -16z m210 -17 c35 -50 5 -105 -63 -114 l-42 -6 0 71 c0 43 4 72 11 74
27 9 80 -6 94 -25z m453 15 c2 -7 -2 -10 -11 -6 -21 8 -54 -12 -62 -36 -10
-32 12 -60 46 -60 38 0 35 -24 -4 -28 -63 -8 -92 86 -40 128 28 22 64 23 71 2z
m4375 -13 c39 -48 8 -107 -61 -116 l-42 -6 0 71 c0 47 4 72 13 76 23 10 72 -4
90 -25z m421 25 c23 -9 20 -27 -3 -19 -34 10 -35 -16 -2 -42 17 -13 31 -31 31
-38 0 -22 -46 -48 -70 -40 -29 9 -25 24 7 22 38 -3 40 24 3 45 -34 19 -40 51
-12 67 20 12 25 13 46 5z m166 -9 c0 -8 -4 -15 -10 -15 -5 0 -10 7 -10 15 0 8
5 15 10 15 6 0 10 -7 10 -15z m347 -11 c-9 -9 -28 6 -21 18 4 6 10 6 17 -1 6
-6 8 -13 4 -17z m-5586 -13 c17 -16 18 -19 5 -24 -21 -8 -20 -54 0 -65 20 -11
3 -25 -20 -16 -10 4 -16 18 -16 39 0 19 -4 37 -10 40 -6 4 -5 13 3 25 14 24
13 24 38 1z m565 5 c16 -17 19 -36 4 -36 -15 0 -12 -58 3 -63 6 -2 8 -8 4 -13
-27 -28 -71 82 -46 113 14 16 17 16 35 -1z m4263 -5 c16 -16 17 -20 5 -25 -19
-7 -18 -53 2 -64 20 -11 3 -25 -20 -16 -10 4 -16 18 -16 39 0 19 -4 37 -10 40
-6 4 -5 13 3 25 14 24 13 24 36 1z m699 -1 c7 -12 8 -20 2 -20 -13 0 -13 -57
0 -65 15 -9 12 -25 -5 -25 -15 0 -40 48 -31 58 3 2 1 13 -5 23 -7 14 -6 23 3
34 17 19 21 19 36 -5z m212 0 c17 -17 18 -21 5 -26 -20 -8 -19 -51 1 -62 20
-11 3 -25 -20 -16 -10 4 -16 18 -16 39 0 19 -4 37 -10 40 -6 4 -5 13 3 25 15
24 13 24 37 0z m-5811 -14 c7 -8 11 -31 9 -52 -3 -33 -6 -37 -35 -40 -41 -5
-62 25 -37 50 8 9 22 16 30 16 8 0 14 5 14 10 0 6 -12 10 -27 10 -22 0 -25 2
-13 10 22 14 46 12 59 -4z m170 5 c7 -5 14 -27 15 -51 1 -41 0 -43 -29 -45
-59 -4 -75 37 -24 59 31 13 25 34 -6 22 -8 -3 -15 -2 -15 3 0 21 33 28 59 12z
m269 -3 c7 -7 12 -31 12 -54 0 -41 -1 -42 -32 -39 -18 2 -36 3 -40 4 -12 2 -9
36 4 49 7 7 20 12 31 12 10 0 15 5 11 11 -3 6 -15 9 -25 6 -11 -3 -19 -2 -19
2 0 23 39 28 58 9z m125 -5 c9 -9 17 -26 17 -38 0 -27 -34 -59 -54 -52 -10 4
-16 -1 -18 -14 -2 -11 -7 -20 -13 -20 -10 1 -20 104 -12 125 7 17 60 16 80 -1z
m135 -32 c4 -53 25 -50 32 4 8 62 30 56 30 -7 l0 -55 -32 0 c-46 0 -58 13 -58
64 0 58 24 53 28 -6z m112 38 c0 -8 4 -8 14 0 9 8 16 8 20 2 4 -5 0 -13 -8
-18 -8 -4 -16 -23 -18 -42 -2 -19 -9 -36 -15 -39 -9 -3 -13 12 -13 52 0 31 5
56 10 56 6 0 10 -5 10 -11z m124 -5 c27 -27 20 -44 -19 -44 -19 0 -35 -4 -35
-9 0 -13 37 -24 51 -15 7 4 10 1 7 -7 -14 -43 -95 1 -83 44 13 43 52 59 79 31z
m3887 6 c14 -8 19 -21 19 -53 0 -41 -1 -42 -35 -44 -43 -2 -65 26 -39 51 8 9
22 16 30 16 8 0 14 5 14 10 0 6 -12 10 -27 10 -22 0 -25 2 -13 10 19 12 27 12
51 0z m178 1 c8 -5 14 -27 15 -52 1 -40 0 -42 -29 -44 -60 -4 -75 37 -22 60
26 11 29 15 15 20 -9 4 -22 4 -28 0 -5 -3 -10 -2 -10 4 0 18 37 26 59 12z
m266 -1 c3 -5 -3 -10 -13 -10 -51 0 -51 -58 -1 -71 21 -6 22 -7 6 -14 -10 -4
-29 -3 -43 3 -44 21 -24 102 26 102 10 0 22 -4 25 -10z m45 -39 c0 -28 -4 -53
-10 -56 -6 -4 -10 15 -10 49 0 31 5 56 10 56 6 0 10 -22 10 -49z m98 37 c7 -7
12 -20 12 -30 0 -13 -8 -18 -31 -18 -39 0 -34 -23 7 -30 24 -5 26 -7 11 -13
-10 -4 -23 -7 -28 -7 -14 0 -49 39 -49 55 0 18 35 55 53 55 7 0 18 -5 25 -12z
m116 -4 c21 -20 22 -84 1 -84 -10 0 -15 10 -15 34 0 38 -17 57 -31 35 -5 -8
-9 -26 -9 -41 0 -16 -4 -28 -10 -28 -5 0 -10 20 -10 44 0 38 3 45 23 49 12 2
25 5 29 6 4 0 14 -6 22 -15z m127 -87 c-11 -11 -12 -9 -15 48 -1 11 3 29 9 40
8 17 11 12 13 -29 2 -27 -2 -54 -7 -59z m94 93 c3 -5 -3 -10 -14 -10 -26 0
-27 -17 -2 -25 26 -8 33 -31 15 -50 -18 -17 -33 -19 -54 -5 -12 8 -9 10 13 10
32 0 35 15 7 30 -22 12 -27 46 -7 53 20 9 35 8 42 -3z m160 0 c3 -5 -3 -10
-14 -10 -27 0 -27 -12 -1 -28 27 -17 25 -40 -5 -54 -19 -9 -28 -9 -37 0 -9 9
-7 12 8 12 33 0 36 12 8 35 -25 20 -25 22 -10 38 19 19 42 22 51 7z"/>
<path d="M3582 3645 c-275 -60 -462 -294 -462 -579 0 -85 0 -86 -27 -92 -123
-27 -200 -88 -244 -194 -8 -20 -14 -67 -14 -110 1 -125 54 -212 167 -272 l43
-23 961 0 960 0 48 25 c64 32 130 108 152 172 24 75 16 179 -21 246 -52 96
-171 162 -291 162 l-41 0 -5 93 c-4 81 -9 102 -38 155 -40 76 -112 145 -188
180 -50 24 -69 27 -157 27 -93 0 -104 -3 -161 -32 l-62 -32 -28 40 c-46 66
-139 146 -216 184 -125 61 -249 77 -376 50z m265 -530 c21 -24 24 -36 20 -78
-6 -70 -30 -90 -112 -95 l-65 -4 0 107 0 107 66 -4 c58 -4 70 -8 91 -33z m263
-5 c0 -13 7 -20 20 -20 12 0 20 -7 20 -16 0 -9 -9 -18 -20 -21 -14 -4 -20 -14
-20 -34 0 -18 7 -32 20 -39 30 -16 25 -40 -8 -40 -39 0 -52 17 -52 67 0 24 -4
43 -10 43 -5 0 -10 9 -10 20 0 11 5 20 10 20 6 0 10 6 10 14 0 13 13 23 33 25
4 1 7 -8 7 -19z m-96 -42 c10 -13 16 -44 16 -74 l0 -51 -57 -1 c-64 0 -83 9
-83 43 0 28 17 43 58 51 39 8 31 28 -9 22 -16 -3 -30 1 -33 8 -7 19 4 24 50
24 33 0 46 -5 58 -22z m268 5 c13 -12 18 -31 18 -73 l0 -57 -55 -1 c-56 0 -85
14 -85 43 0 21 29 45 61 52 42 8 36 27 -5 20 -24 -4 -36 -1 -40 8 -10 28 77
35 106 8z m-545 -244 c15 -15 5 -39 -17 -39 -22 0 -32 24 -17 39 6 6 14 11 17
11 3 0 11 -5 17 -11z m711 -12 c4 -21 -25 -34 -40 -19 -8 8 -8 16 2 27 16 19
34 15 38 -8z m-1148 -7 c0 -17 -7 -20 -40 -20 -33 0 -40 -3 -40 -19 0 -16 8
-20 37 -23 27 -2 39 -8 41 -20 3 -15 -4 -18 -37 -18 -37 0 -41 -2 -41 -25 0
-23 4 -25 46 -25 38 0 45 -3 42 -17 -3 -15 -16 -19 -71 -21 l-67 -3 0 106 0
105 65 0 c58 0 65 -2 65 -20z m168 -58 c6 -9 12 -42 12 -74 0 -55 -1 -58 -25
-58 -24 0 -25 3 -25 54 0 58 -11 76 -35 56 -10 -8 -15 -31 -15 -62 0 -46 -2
-49 -22 -46 -21 3 -23 9 -25 75 l-1 73 39 -2 c21 -1 42 1 45 5 9 8 37 -3 52
-21z m159 16 l33 1 0 -80 c0 -72 -3 -82 -25 -104 -16 -17 -35 -25 -57 -25 -69
0 -77 35 -9 42 48 4 52 26 5 25 -44 -1 -64 21 -64 73 0 46 45 89 74 72 5 -3
24 -5 43 -4z m274 -7 c20 -16 23 -28 24 -77 0 -54 -2 -59 -22 -62 -21 -3 -23
0 -23 46 0 31 -5 54 -15 62 -24 20 -35 2 -35 -56 0 -51 -1 -54 -25 -54 -24 0
-25 2 -25 76 l0 77 28 -6 c15 -3 34 -2 42 4 21 12 25 12 51 -10z m188 -33 c14
-41 8 -48 -45 -48 -28 0 -43 -4 -39 -10 3 -5 21 -10 40 -10 19 0 35 -6 38 -14
8 -20 -2 -26 -45 -26 -54 0 -93 38 -84 82 3 17 12 38 18 46 34 40 100 29 117
-20z m291 28 c0 -15 -7 -26 -19 -29 -16 -4 -20 -15 -23 -53 -3 -42 -6 -49 -25
-52 -22 -3 -23 0 -23 72 0 69 2 76 20 76 11 0 20 -5 20 -11 0 -5 10 -3 22 5
29 20 28 20 28 -8z m238 1 c7 -6 12 -34 12 -74 0 -61 -1 -64 -22 -61 -20 3
-24 10 -28 58 -4 40 -9 55 -20 55 -11 0 -16 -15 -20 -55 -4 -48 -8 -55 -27
-58 -22 -3 -23 0 -23 72 l0 75 35 -1 c19 -1 38 1 41 5 7 6 33 -1 52 -16z m165
12 l27 1 0 -80 c0 -45 -5 -90 -10 -100 -19 -36 -137 -40 -123 -4 3 8 15 14 27
13 40 -3 54 1 60 17 5 13 1 14 -24 9 -56 -12 -99 60 -69 116 12 24 48 40 69
32 8 -3 27 -5 43 -4z m-1043 -75 c0 -72 -1 -75 -22 -72 -21 3 -23 9 -26 76 -3
71 -3 72 23 72 25 0 25 -1 25 -76z m504 54 c9 -12 16 -33 16 -45 0 -21 -5 -23
-52 -23 -40 0 -49 -3 -40 -12 6 -6 27 -11 47 -10 29 1 36 -2 33 -16 -6 -30
-80 -28 -112 4 -23 22 -20 80 4 104 28 28 84 27 104 -2z m206 -53 c0 -73 -1
-75 -25 -75 -24 0 -25 2 -25 75 0 73 1 75 25 75 24 0 25 -2 25 -75z"/>
<path d="M3739 3098 c-4 -49 3 -113 13 -119 13 -8 48 7 60 25 13 19 8 74 -8
90 -18 19 -64 21 -65 4z"/>
<path d="M3943 2995 c-3 -9 -3 -18 0 -22 10 -10 37 6 37 22 0 20 -29 20 -37 0z"/>
<path d="M4214 2999 c-3 -6 -2 -15 4 -21 13 -13 32 -2 32 18 0 16 -26 19 -36
3z"/>
<path d="M3564 2726 c-11 -28 0 -61 21 -61 16 0 20 7 20 35 0 25 -5 36 -18 38
-9 2 -20 -3 -23 -12z"/>
<path d="M4010 2734 c-10 -12 -8 -14 14 -14 28 0 35 14 12 23 -8 3 -20 -1 -26
-9z"/>
<path d="M4714 2726 c-11 -30 0 -61 24 -64 21 -3 23 0 20 35 -3 40 -32 59 -44
29z"/>
<path d="M4165 2730 c-4 -6 7 -10 25 -10 18 0 29 4 25 10 -3 6 -15 10 -25 10
-10 0 -22 -4 -25 -10z"/>
<path d="M4350 3630 c8 -5 20 -10 25 -10 6 0 3 5 -5 10 -8 5 -19 10 -25 10 -5
0 -3 -5 5 -10z"/>
<path d="M4330 3560 c-6 -11 -8 -20 -6 -20 3 0 10 9 16 20 6 11 8 20 6 20 -3
0 -10 -9 -16 -20z"/>
<path d="M4205 3460 c-3 -5 -1 -10 4 -10 6 0 11 5 11 10 0 6 -2 10 -4 10 -3 0
-8 -4 -11 -10z"/>
<path d="M4351 2324 c-7 -8 -11 -17 -9 -20 3 -2 13 5 23 16 10 11 14 20 9 20
-5 -1 -15 -8 -23 -16z"/>
<path d="M4150 2309 c0 -5 5 -7 10 -4 6 3 10 8 10 11 0 2 -4 4 -10 4 -5 0 -10
-5 -10 -11z"/>
<path d="M4221 2204 c0 -11 3 -14 6 -6 3 7 2 16 -1 19 -3 4 -6 -2 -5 -13z"/>
<path d="M4260 2181 c0 -6 4 -13 10 -16 6 -3 7 1 4 9 -7 18 -14 21 -14 7z"/>
<path d="M4280 2130 c0 -5 5 -10 11 -10 5 0 7 5 4 10 -3 6 -8 10 -11 10 -2 0
-4 -4 -4 -10z"/>
<path d="M3948 3963 c12 -2 30 -2 40 0 9 3 -1 5 -23 4 -22 0 -30 -2 -17 -4z"/>
<path d="M4145 3860 c-3 -5 -1 -10 4 -10 6 0 11 5 11 10 0 6 -2 10 -4 10 -3 0
-8 -4 -11 -10z"/>
<path d="M6303 3295 c0 -8 4 -12 9 -9 5 3 6 10 3 15 -9 13 -12 11 -12 -6z"/>
<path d="M6320 3225 c7 -8 17 -12 22 -9 6 4 5 10 -3 15 -22 14 -33 10 -19 -6z"/>
<path d="M6365 2790 c10 -11 20 -20 23 -20 3 0 -3 9 -13 20 -10 11 -20 20 -23
20 -3 0 3 -9 13 -20z"/>
<path d="M6345 2780 c10 -11 20 -20 23 -20 3 0 -3 9 -13 20 -10 11 -20 20 -23
20 -3 0 3 -9 13 -20z"/>
<path d="M6346 2578 c3 -4 11 -5 19 -1 21 7 19 12 -4 10 -11 0 -18 -5 -15 -9z"/>
<path d="M6370 2146 c0 -2 7 -7 16 -10 8 -3 12 -2 9 4 -6 10 -25 14 -25 6z"/>
<path d="M3651 1934 c0 -11 3 -14 6 -6 3 7 2 16 -1 19 -3 4 -6 -2 -5 -13z"/>
<path d="M3630 1880 c0 -5 5 -10 10 -10 6 0 10 5 10 10 0 6 -4 10 -10 10 -5 0
-10 -4 -10 -10z"/>
<path d="M3670 1864 c0 -8 5 -12 10 -9 6 4 8 11 5 16 -9 14 -15 11 -15 -7z"/>
<path d="M6435 1470 c-3 -5 1 -10 10 -10 9 0 13 5 10 10 -3 6 -8 10 -10 10 -2
0 -7 -4 -10 -10z"/>
<path d="M6310 1059 c0 -5 5 -7 10 -4 6 3 10 8 10 11 0 2 -4 4 -10 4 -5 0 -10
-5 -10 -11z"/>
<path d="M940 664 c0 -47 3 -54 19 -54 20 0 51 34 51 55 0 20 -24 45 -47 50
-22 4 -23 0 -23 -51z"/>
<path d="M6086 692 c-8 -24 -3 -37 12 -31 4 2 5 15 2 29 l-6 25 -8 -23z"/>
<path d="M6930 706 c0 -8 4 -17 9 -20 10 -7 23 19 14 28 -11 11 -23 6 -23 -8z"/>
<path d="M6920 642 c0 -12 7 -25 15 -29 27 -10 30 6 7 30 l-22 21 0 -22z"/>
<path d="M1075 631 c-3 -5 -1 -12 5 -16 12 -7 30 2 30 16 0 12 -27 12 -35 0z"/>
<path d="M1257 633 c-12 -11 -8 -23 8 -23 8 0 15 7 15 15 0 16 -12 20 -23 8z"/>
<path d="M1600 671 c0 -5 7 -11 15 -15 9 -3 15 0 15 9 0 8 -7 15 -15 15 -8 0
-15 -4 -15 -9z"/>
<path d="M1700 624 c0 -17 22 -14 28 4 2 7 -3 12 -12 12 -9 0 -16 -7 -16 -16z"/>
<path d="M1937 674 c-11 -11 -8 -52 4 -60 6 -3 18 1 27 10 13 12 14 21 6 33
-12 20 -27 26 -37 17z"/>
<path d="M6310 624 c0 -17 22 -14 28 4 2 7 -3 12 -12 12 -9 0 -16 -7 -16 -16z"/>
<path d="M907 474 c-9 -9 4 -35 14 -28 5 3 9 12 9 20 0 14 -12 19 -23 8z"/>
<path d="M894 407 c-7 -20 3 -37 21 -37 23 0 26 16 5 35 -18 16 -20 16 -26 2z"/>
<path d="M1077 473 c-11 -21 -6 -94 7 -99 28 -11 56 15 56 52 0 28 -5 36 -26
44 -30 12 -32 12 -37 3z"/>
<path d="M5923 472 c-6 -4 -13 -27 -14 -52 -4 -50 15 -65 45 -35 33 34 6 110
-31 87z"/>
<path d="M1217 394 c-8 -8 1 -24 14 -24 5 0 9 7 9 15 0 15 -12 20 -23 9z"/>
<path d="M1385 391 c-3 -5 -1 -12 5 -16 12 -7 30 2 30 16 0 12 -27 12 -35 0z"/>
<path d="M1655 391 c-3 -5 -1 -12 5 -16 12 -7 30 2 30 16 0 12 -27 12 -35 0z"/>
<path d="M1774 426 c-9 -23 0 -51 16 -51 10 0 15 10 15 29 0 32 -21 47 -31 22z"/>
<path d="M2145 430 c-3 -5 3 -10 14 -10 12 0 21 5 21 10 0 6 -6 10 -14 10 -8
0 -18 -4 -21 -10z"/>
<path d="M6045 389 c-4 -6 -5 -13 -2 -16 7 -7 27 6 27 18 0 12 -17 12 -25 -2z"/>
<path d="M6220 384 c0 -17 22 -14 28 4 2 7 -3 12 -12 12 -9 0 -16 -7 -16 -16z"/>
<path d="M6625 429 c-10 -15 1 -23 20 -15 9 3 13 10 10 16 -8 13 -22 13 -30
-1z"/>
</g>
</svg>
