<?xml version="1.0" standalone="no"?>
<!DOCTYPE svg PUBLIC "-//W3C//DTD SVG 20010904//EN"
 "http://www.w3.org/TR/2001/REC-SVG-20010904/DTD/svg10.dtd">
<svg version="1.0" xmlns="http://www.w3.org/2000/svg"
 width="862.000000pt" height="527.000000pt" viewBox="0 0 862.000000 527.000000"
 preserveAspectRatio="xMidYMid meet">

<g transform="translate(0.000000,527.000000) scale(0.100000,-0.100000)"
fill="#000000" stroke="none">
<path d="M5037 4980 c-209 -37 -403 -147 -517 -291 l-37 -47 -44 29 c-197 134
-425 196 -684 186 -321 -13 -597 -143 -777 -366 l-35 -43 -89 35 c-238 93
-534 120 -799 72 -394 -71 -739 -313 -880 -617 -62 -135 -78 -207 -79 -362
l-1 -140 -72 -12 c-309 -52 -553 -249 -618 -501 -19 -73 -19 -202 0 -273 37
-141 143 -279 286 -372 l78 -51 -45 -46 c-49 -49 -104 -139 -129 -211 -80
-227 7 -487 217 -645 147 -110 304 -164 502 -172 l130 -6 125 -127 c142 -144
230 -207 395 -286 125 -59 229 -93 378 -126 90 -20 132 -22 333 -22 202 0 243
2 335 22 98 22 228 62 344 108 l48 19 26 -34 c72 -92 277 -232 437 -297 193
-79 374 -109 615 -101 192 6 314 30 481 96 280 110 515 320 617 554 11 26 23
47 25 47 2 0 34 -13 69 -30 72 -32 188 -65 287 -81 95 -15 313 -12 416 6 338
59 634 261 759 517 40 80 76 210 76 269 0 36 2 38 38 44 20 4 83 17 139 31
516 120 881 517 883 959 0 205 -68 383 -223 578 l-27 34 20 49 c54 125 66 302
29 434 -71 258 -297 471 -601 566 l-86 28 -26 68 c-107 292 -424 496 -797 515
-248 12 -493 -58 -663 -191 -33 -25 -65 -46 -71 -46 -6 0 -22 12 -36 26 -65
69 -212 147 -354 186 -79 22 -316 33 -398 18z m533 -840 l0 -70 -38 0 c-45 0
-62 14 -62 50 0 32 17 50 47 50 16 0 23 6 23 20 0 11 7 20 15 20 12 0 15 -14
15 -70z m-1090 4 c0 -52 1 -55 23 -52 19 3 22 10 25 56 2 37 7 52 18 52 10 0
14 -12 14 -46 0 -66 -13 -84 -60 -84 -47 0 -60 18 -60 84 0 39 3 46 20 46 18
0 20 -7 20 -56z m1252 39 c22 -20 23 -70 1 -95 -11 -12 -30 -18 -60 -18 l-43
0 0 65 0 65 42 0 c24 0 49 -7 60 -17z m-922 -3 c0 -5 23 -10 50 -10 50 0 67
-13 30 -23 -15 -4 -20 -14 -20 -42 l0 -36 -42 3 c-42 3 -43 4 -48 43 -5 38 -7
40 -35 37 -40 -5 -41 -8 -8 -24 41 -20 38 -52 -6 -56 -18 -2 -38 1 -44 7 -8 8
-1 11 24 11 32 1 33 1 14 15 -43 31 -47 36 -34 51 6 8 29 14 50 14 22 0 39 5
39 10 0 6 7 10 15 10 8 0 15 -4 15 -10z m340 0 c0 -5 14 -10 30 -10 28 0 30
-2 30 -40 0 -29 4 -40 15 -40 11 0 15 11 15 40 0 33 3 40 20 40 17 0 20 -7 20
-50 l0 -50 -77 2 -78 3 -3 38 c-3 34 -6 37 -33 37 -26 0 -29 -3 -29 -30 0 -25
4 -30 25 -30 14 0 25 -4 25 -10 0 -5 -16 -10 -35 -10 -29 0 -37 5 -46 26 -15
40 11 74 56 74 19 0 35 5 35 10 0 6 7 10 15 10 8 0 15 -4 15 -10z m750 0 c0
-5 8 -10 18 -10 16 -1 16 -1 0 -14 -10 -7 -18 -25 -18 -39 0 -32 28 -45 32
-14 2 16 11 23 31 25 34 4 36 22 2 22 -14 0 -25 5 -25 10 0 6 15 10 34 10 38
0 46 -12 46 -66 l0 -34 -72 2 -73 3 -6 45 c-3 25 -4 51 -2 58 6 14 33 16 33 2z
m-1232 -62 c2 -38 0 -48 -12 -48 -12 0 -16 10 -16 40 0 29 -4 40 -15 40 -11 0
-15 -11 -15 -40 0 -29 -4 -40 -15 -40 -11 0 -15 12 -15 51 l0 50 43 -3 42 -3
3 -47z m282 12 c0 -29 4 -40 15 -40 11 0 15 11 15 40 0 29 4 40 15 40 11 0 15
-12 15 -51 l0 -50 -42 3 -43 3 -3 48 c-2 37 0 47 12 47 12 0 16 -10 16 -40z
m415 30 c-3 -5 -13 -10 -21 -10 -10 0 -14 -12 -14 -40 0 -33 -3 -40 -20 -40
-17 0 -20 7 -20 50 l0 50 41 0 c24 0 38 -4 34 -10z m83 -2 c7 -7 12 -20 12
-30 0 -13 -8 -18 -30 -18 -16 0 -30 -4 -30 -10 0 -5 14 -10 30 -10 17 0 30 -4
30 -10 0 -5 -16 -10 -35 -10 -26 0 -39 6 -51 25 -15 23 -15 27 0 50 18 27 54
33 74 13z m400 -41 l3 -48 -43 3 c-38 3 -43 6 -43 28 0 20 6 26 28 28 34 4 36
22 2 22 -14 0 -25 5 -25 11 0 6 16 9 38 7 37 -3 37 -3 40 -51z m-1678 -227 l0
-70 -33 0 c-40 0 -57 15 -57 50 0 32 17 50 47 50 16 0 23 6 23 20 0 11 5 20
10 20 6 0 10 -30 10 -70z m50 60 c0 -5 -4 -10 -10 -10 -5 0 -10 5 -10 10 0 6
5 10 10 10 6 0 10 -4 10 -10z m230 0 c0 -5 -7 -10 -15 -10 -21 0 -19 -20 3
-20 16 -1 16 -1 0 -14 -12 -8 -18 -27 -18 -50 0 -20 -4 -36 -10 -36 -5 0 -10
17 -10 38 0 21 -5 43 -12 50 -8 8 -8 12 -1 12 6 0 13 9 16 20 5 20 47 29 47
10z m30 0 c0 -5 -4 -10 -10 -10 -5 0 -10 5 -10 10 0 6 5 10 10 10 6 0 10 -4
10 -10z m40 -60 c0 -40 -4 -70 -10 -70 -6 0 -10 30 -10 70 0 40 4 70 10 70 6
0 10 -30 10 -70z m360 60 c0 -5 -4 -10 -10 -10 -5 0 -10 5 -10 10 0 6 5 10 10
10 6 0 10 -4 10 -10z m980 -58 l0 -69 -32 -1 c-41 -1 -58 13 -58 48 0 33 22
54 50 47 16 -4 20 0 20 19 0 13 5 24 10 24 6 0 10 -29 10 -68z m50 58 c0 -5
-4 -10 -10 -10 -5 0 -10 5 -10 10 0 6 5 10 10 10 6 0 10 -4 10 -10z m340 0 c0
-5 -4 -10 -10 -10 -5 0 -10 5 -10 10 0 6 5 10 10 10 6 0 10 -4 10 -10z m110
-58 l0 -69 -32 -1 c-41 -1 -58 13 -58 48 0 33 22 54 50 47 16 -4 20 0 20 19 0
13 5 24 10 24 6 0 10 -29 10 -68z m-2570 39 c-13 -26 -13 -97 1 -123 9 -16 8
-19 -3 -16 -7 2 -19 22 -27 44 -12 34 -11 44 2 77 9 20 21 37 27 37 7 0 8 -6
0 -19z m77 -33 l20 -52 18 52 c27 74 45 68 45 -13 0 -37 -4 -65 -10 -65 -5 0
-10 19 -11 43 l0 42 -17 -42 c-9 -24 -21 -43 -27 -43 -7 0 -18 19 -26 43 l-14
42 -3 -42 c-5 -67 -22 -50 -22 22 0 82 19 87 47 13z m963 37 c-16 -20 -16
-111 1 -131 12 -14 11 -16 -6 -13 -14 3 -21 14 -23 34 -2 16 -9 34 -15 38 -9
6 -9 10 1 14 6 2 12 17 12 32 0 31 7 41 28 41 12 0 12 -3 2 -15z m1798 -20 c2
-16 9 -33 15 -37 9 -6 9 -10 0 -16 -6 -4 -13 -21 -15 -37 -2 -20 -9 -31 -23
-34 -17 -3 -18 -1 -6 13 7 9 13 38 13 66 0 28 -6 57 -13 66 -12 14 -11 16 6
13 14 -3 21 -14 23 -34z m-2569 -17 c11 -30 6 -38 -30 -38 -16 0 -29 -4 -29
-10 0 -5 14 -10 30 -10 17 0 30 -4 30 -10 0 -14 -54 -12 -68 2 -7 7 -12 24
-12 38 0 32 17 50 47 50 15 0 27 -8 32 -22z m161 -28 c0 -27 -4 -50 -10 -50
-5 0 -10 23 -10 50 0 28 5 50 10 50 6 0 10 -22 10 -50z m98 -3 l3 -48 -38 3
c-33 3 -38 6 -38 28 0 20 6 26 28 28 34 4 36 22 2 22 -14 0 -25 5 -25 11 0 6
14 9 33 7 31 -3 32 -5 35 -51z m162 3 c0 -27 -4 -50 -10 -50 -5 0 -10 23 -10
50 0 28 5 50 10 50 6 0 10 -22 10 -50z m138 38 c7 -7 12 -20 12 -30 0 -13 -8
-18 -30 -18 -16 0 -30 -4 -30 -10 0 -5 14 -10 30 -10 17 0 30 -4 30 -10 0 -5
-13 -10 -30 -10 -20 0 -35 8 -46 25 -15 23 -15 27 0 50 18 27 45 32 64 13z
m102 2 c0 -5 -12 -10 -27 -10 l-28 0 29 -23 c37 -30 30 -57 -14 -57 -16 0 -30
5 -30 10 0 6 11 10 25 10 14 0 25 4 25 8 0 5 -11 14 -25 20 -24 11 -32 31 -18
45 10 11 63 8 63 -3z m160 -40 c0 -27 -4 -50 -10 -50 -5 0 -10 23 -10 50 0 28
5 50 10 50 6 0 10 -22 10 -50z m158 38 c18 -15 16 -88 -3 -88 -11 0 -15 11
-15 40 0 29 -4 40 -15 40 -11 0 -15 -11 -15 -40 0 -29 -4 -40 -15 -40 -11 0
-15 11 -15 41 0 33 -3 40 -17 37 -13 -2 -19 -14 -21 -41 -5 -54 -22 -45 -22
12 l0 48 63 0 c34 0 68 -4 75 -9z m106 -4 c3 -9 6 -31 6 -49 0 -32 -1 -33 -37
-32 -33 2 -38 5 -38 27 0 20 6 26 28 28 34 4 36 22 2 22 -14 0 -25 5 -25 10 0
17 57 12 64 -6z m111 8 c-5 -4 -10 -13 -11 -19 -2 -29 -5 -33 -24 -33 -11 0
-20 -4 -20 -10 0 -5 11 -10 25 -10 30 0 43 -24 25 -45 -16 -19 -64 -19 -80 0
-10 12 -10 18 0 30 7 8 9 26 5 44 -9 42 0 51 48 51 23 0 38 -4 32 -8z m95 -12
c15 -27 5 -40 -31 -40 -18 0 -28 -4 -24 -10 3 -5 17 -10 31 -10 13 0 24 -4 24
-10 0 -14 -54 -12 -68 2 -7 7 -12 24 -12 38 0 14 5 31 12 38 19 19 56 14 68
-8z m90 11 c0 -5 -12 -11 -27 -13 l-28 -3 30 -15 c40 -20 41 -54 1 -58 -16 -2
-33 1 -39 7 -8 8 -1 11 24 11 32 1 33 1 14 15 -43 31 -47 36 -34 51 13 16 59
19 59 5z m188 -3 c7 -7 12 -28 12 -48 0 -36 -1 -37 -39 -38 -28 -1 -41 3 -45
14 -8 21 11 44 35 44 11 0 19 5 19 10 0 6 -9 10 -20 10 -11 0 -20 5 -20 10 0
14 43 13 58 -2z m52 -28 c0 -33 3 -40 20 -40 17 0 20 7 20 40 0 29 4 40 15 40
11 0 15 -12 15 -49 l0 -49 -42 2 -43 1 -3 48 c-2 28 1 47 7 47 6 0 11 -18 11
-40z m230 -10 c0 -38 -4 -50 -15 -50 -11 0 -15 12 -15 50 0 38 4 50 15 50 11
0 15 -12 15 -50z m98 38 c7 -7 12 -24 12 -38 0 -31 -17 -50 -45 -50 -28 0 -45
19 -45 50 0 31 17 50 45 50 12 0 26 -5 33 -12z m148 -29 l12 -34 11 28 c6 16
11 33 11 38 0 5 5 9 10 9 14 0 13 -13 -6 -60 -9 -22 -22 -40 -28 -40 -7 0 -19
23 -28 51 -19 57 -2 65 18 8z m94 -9 c0 -27 -4 -50 -10 -50 -5 0 -10 23 -10
50 0 28 5 50 10 50 6 0 10 -22 10 -50z m210 30 c15 -27 5 -40 -31 -40 -18 0
-28 -4 -24 -10 3 -5 17 -10 31 -10 13 0 24 -4 24 -10 0 -14 -54 -12 -68 2 -7
7 -12 24 -12 38 0 14 5 31 12 38 19 19 56 14 68 -8z m112 -5 c16 -36 -3 -75
-37 -75 -15 0 -31 9 -41 25 -15 23 -15 27 0 50 10 16 26 25 41 25 17 0 29 -8
37 -25z m-1082 -62 c0 -5 -4 -15 -10 -23 -11 -18 -25 -7 -17 15 6 15 27 21 27
8z m568 -10 c-2 -9 -8 -18 -15 -20 -7 -3 -9 3 -6 16 6 25 26 28 21 4z m632 10
c0 -14 -19 -38 -25 -32 -8 8 5 39 16 39 5 0 9 -3 9 -7z m-2340 -133 c0 -5 -4
-10 -10 -10 -5 0 -10 5 -10 10 0 6 5 10 10 10 6 0 10 -4 10 -10z m40 -60 c0
-40 -4 -70 -10 -70 -6 0 -10 30 -10 70 0 40 4 70 10 70 6 0 10 -30 10 -70z
m290 0 l0 -70 -35 0 c-28 0 -38 5 -47 25 -16 36 3 75 37 75 18 0 25 5 25 20 0
11 5 20 10 20 6 0 10 -30 10 -70z m1044 54 c10 -4 16 -18 16 -36 0 -23 -6 -31
-30 -39 -19 -7 -30 -18 -30 -30 0 -10 -7 -19 -15 -19 -12 0 -15 14 -15 65 l0
65 29 0 c16 0 36 -3 45 -6z m128 -11 c10 -9 18 -30 18 -46 0 -43 -25 -67 -72
-67 l-38 0 0 65 0 65 37 0 c20 0 45 -7 55 -17z m123 7 c-3 -5 -17 -10 -31 -10
-17 0 -24 -5 -24 -20 0 -15 7 -20 26 -20 14 0 23 -4 19 -10 -3 -5 -15 -10 -26
-10 -14 0 -19 -7 -19 -25 0 -14 -4 -25 -10 -25 -6 0 -10 28 -10 65 l0 65 41 0
c24 0 38 -4 34 -10z m526 -30 c9 -31 9 -49 0 -80 -6 -22 -16 -40 -22 -40 -6 0
-7 9 -2 23 4 12 8 38 8 57 0 19 -4 45 -8 58 -5 13 -4 22 2 22 6 0 16 -18 22
-40z m-1071 20 c0 -5 8 -10 18 -10 16 -1 16 -1 0 -14 -10 -7 -18 -23 -18 -36
0 -13 8 -29 18 -37 16 -12 15 -13 -8 -11 -21 3 -26 9 -31 48 -3 25 -4 51 -2
58 6 14 23 16 23 2z m876 -10 c8 0 14 -4 14 -10 0 -5 -7 -10 -15 -10 -10 0
-15 -10 -15 -30 0 -20 5 -30 15 -30 8 0 15 -4 15 -10 0 -5 -9 -10 -20 -10 -19
0 -26 14 -32 70 -3 25 14 57 20 39 2 -5 10 -9 18 -9z m-2288 -12 c7 -7 12 -20
12 -30 0 -13 -8 -18 -30 -18 -16 0 -30 -4 -30 -10 0 -5 14 -10 30 -10 17 0 30
-4 30 -10 0 -5 -13 -10 -30 -10 -20 0 -35 8 -46 25 -15 23 -15 27 0 50 18 27
45 32 64 13z m170 0 c18 -15 16 -88 -3 -88 -11 0 -15 11 -15 40 0 29 -4 40
-15 40 -11 0 -15 -11 -15 -40 0 -29 -4 -40 -15 -40 -11 0 -15 11 -15 41 0 33
-3 40 -17 37 -13 -2 -19 -14 -21 -41 -5 -54 -22 -45 -22 12 l0 48 63 0 c34 0
68 -4 75 -9z m106 -4 c3 -9 6 -31 6 -49 0 -32 -1 -33 -37 -32 -33 2 -38 5 -38
27 0 20 6 26 28 28 34 4 36 22 2 22 -14 0 -25 5 -25 10 0 17 57 12 64 -6z m56
-34 c0 -38 -4 -50 -15 -50 -11 0 -15 12 -15 50 0 38 4 50 15 50 11 0 15 -12
15 -50z m130 40 c0 -5 -12 -10 -27 -10 -27 -1 -27 -1 -8 -15 43 -31 47 -36 34
-51 -13 -16 -69 -19 -69 -4 0 6 15 10 33 10 34 1 31 6 -19 36 -27 16 -11 44
26 44 16 0 30 -4 30 -10z m312 -15 c16 -36 -3 -75 -37 -75 -15 0 -31 9 -41 25
-15 23 -15 27 0 50 10 16 26 25 41 25 17 0 29 -8 37 -25z m98 15 c0 -5 -11
-10 -25 -10 -21 0 -25 -5 -25 -30 0 -25 4 -30 25 -30 14 0 25 -4 25 -10 0 -5
-14 -10 -30 -10 -40 0 -59 40 -35 76 15 24 65 34 65 14z m40 -30 c0 -33 3 -40
20 -40 17 0 20 7 20 40 0 22 5 40 10 40 6 0 10 -23 10 -51 l0 -50 -37 3 c-38
3 -38 3 -41 51 -2 28 1 47 7 47 6 0 11 -18 11 -40z m228 -12 c2 -29 -1 -48 -7
-48 -6 0 -11 18 -11 41 0 33 -3 40 -17 37 -13 -2 -19 -14 -21 -41 -4 -50 -22
-48 -22 3 0 33 -3 40 -20 40 -17 0 -20 -7 -20 -40 0 -22 -4 -40 -10 -40 -5 0
-10 22 -10 49 l0 48 68 -1 67 -1 3 -47z m100 40 c7 -7 12 -20 12 -30 0 -13 -8
-18 -30 -18 -16 0 -30 -4 -30 -10 0 -5 14 -10 30 -10 17 0 30 -4 30 -10 0 -5
-13 -10 -30 -10 -20 0 -35 8 -46 25 -15 23 -15 27 0 50 18 27 45 32 64 13z
m120 -40 c2 -29 -1 -48 -7 -48 -6 0 -11 18 -11 40 0 33 -3 40 -20 40 -17 0
-20 -7 -20 -40 0 -29 -4 -40 -15 -40 -11 0 -15 12 -15 49 l0 49 43 -2 42 -1 3
-47z m162 42 c0 -5 -12 -10 -27 -10 l-28 0 29 -23 c37 -30 30 -57 -14 -57 -16
0 -30 5 -30 10 0 6 11 10 25 10 14 0 25 4 25 8 0 5 -11 14 -25 20 -24 11 -32
31 -18 45 10 11 63 8 63 -3z m510 1 c0 -5 -12 -11 -27 -13 l-28 -3 30 -15 c40
-20 41 -54 1 -58 -16 -2 -33 1 -39 7 -8 8 -1 11 24 11 32 1 33 1 14 15 -43 31
-47 36 -34 51 13 16 59 19 59 5z m188 -3 c7 -7 12 -20 12 -30 0 -13 -8 -18
-30 -18 -16 0 -30 -4 -30 -10 0 -5 14 -10 30 -10 17 0 30 -4 30 -10 0 -5 -13
-10 -30 -10 -20 0 -35 8 -46 25 -15 23 -15 27 0 50 18 27 45 32 64 13z m167 3
c-6 -5 -19 -11 -30 -13 -30 -5 -28 -52 3 -56 30 -5 28 -22 -3 -22 -34 0 -53
39 -37 75 9 19 19 25 44 25 19 0 28 -4 23 -9z m45 -82 c0 -5 -7 -9 -15 -9 -15
0 -20 12 -9 23 8 8 24 -1 24 -14z m-1930 -9 c-6 -11 -13 -20 -15 -20 -3 0 -5
9 -5 20 0 11 7 20 15 20 13 0 14 -4 5 -20z m1060 13 c0 -5 -4 -15 -10 -23 -11
-18 -25 -7 -17 15 6 15 27 21 27 8z m520 0 c0 -5 -4 -15 -10 -23 -11 -18 -25
-7 -17 15 6 15 27 21 27 8z m-4950 -473 c0 -5 -7 -10 -15 -10 -8 0 -15 5 -15
10 0 6 7 10 15 10 8 0 15 -4 15 -10z m970 -60 l0 -70 -45 0 c-38 0 -47 4 -54
23 -8 20 -15 23 -45 19 -42 -5 -38 -22 5 -22 18 0 28 -4 24 -10 -3 -5 -22 -10
-41 -10 -43 0 -64 34 -46 75 15 32 64 35 85 5 l14 -21 6 21 c3 14 13 20 31 20
19 0 26 5 26 20 0 13 7 20 20 20 18 0 20 -7 20 -70z m-1290 50 c0 -5 -13 -10
-30 -10 -38 0 -38 -15 -1 -35 16 -8 31 -20 34 -27 3 -7 6 -4 6 8 1 28 20 44
53 44 17 0 31 -7 38 -20 15 -27 5 -40 -31 -40 -18 0 -28 -4 -24 -10 3 -5 17
-10 31 -10 13 0 24 -4 24 -10 0 -16 -66 -11 -81 6 -11 14 -13 14 -21 0 -10
-18 -88 -23 -88 -6 0 6 14 10 30 10 37 0 40 22 5 38 -31 14 -41 37 -25 57 14
17 80 21 80 5z m480 0 c0 -5 -13 -10 -30 -10 -38 0 -38 -15 -1 -35 34 -17 42
-33 29 -57 -10 -20 -88 -26 -88 -8 0 6 14 10 30 10 37 0 40 22 5 38 -31 14
-41 37 -25 57 14 17 80 21 80 5z m972 -7 c22 -20 23 -70 1 -95 -11 -12 -30
-18 -60 -18 l-43 0 0 65 0 65 42 0 c24 0 49 -7 60 -17z m-922 -3 c0 -6 30 -10
70 -10 l70 0 0 -40 c0 -29 4 -40 15 -40 11 0 15 11 15 40 0 29 4 40 15 40 11
0 15 -12 15 -50 l0 -50 -38 0 c-45 0 -62 14 -62 53 0 22 -4 28 -17 25 -13 -2
-19 -14 -21 -41 -2 -24 -8 -37 -18 -37 -10 0 -14 12 -14 45 0 35 -3 43 -15 39
-17 -7 -21 -64 -5 -64 6 0 10 -5 10 -11 0 -6 -10 -9 -22 -7 -18 2 -24 11 -26
38 -2 19 -7 39 -12 44 -10 10 9 35 28 36 6 0 12 -4 12 -10z m340 0 c0 -5 14
-10 30 -10 28 0 30 -2 30 -40 0 -29 4 -40 15 -40 11 0 15 11 15 40 0 33 3 40
20 40 17 0 20 -7 20 -51 l0 -50 -47 3 -48 3 -3 42 c-2 32 -7 41 -18 36 -16 -6
-20 -63 -4 -63 6 0 10 -5 10 -11 0 -6 -10 -9 -22 -7 -19 2 -24 10 -26 41 -3
36 -5 38 -35 35 -27 -2 -32 -7 -32 -28 0 -18 6 -26 23 -28 33 -5 27 -22 -8
-22 -39 0 -59 37 -42 75 10 21 19 25 52 25 22 0 40 5 40 10 0 6 7 10 15 10 8
0 15 -4 15 -10z m750 0 c0 -5 8 -10 18 -10 16 -1 16 -1 0 -14 -19 -14 -25 -66
-8 -66 6 0 10 -5 10 -11 0 -6 -10 -9 -22 -7 -18 2 -24 11 -26 38 -2 19 -7 39
-12 44 -10 10 9 35 28 36 6 0 12 -4 12 -10z m-1352 -62 c2 -38 0 -48 -12 -48
-12 0 -16 10 -16 40 0 29 -4 40 -15 40 -11 0 -15 -11 -15 -40 0 -29 -4 -40
-15 -40 -11 0 -15 11 -15 40 0 29 -4 40 -15 40 -11 0 -15 -11 -15 -40 0 -29
-4 -40 -15 -40 -11 0 -15 12 -15 50 l0 50 73 -3 72 -2 3 -47z m52 2 c0 -38 -4
-50 -15 -50 -11 0 -15 12 -15 50 0 38 4 50 15 50 11 0 15 -12 15 -50z m760 41
c0 -5 -9 -11 -20 -14 -15 -4 -20 -14 -20 -41 0 -25 -4 -36 -15 -36 -11 0 -15
12 -15 50 l0 50 35 0 c19 0 35 -4 35 -9z m484 -7 c3 -9 6 -31 6 -50 0 -35 0
-35 -42 -32 -38 3 -43 6 -43 28 0 20 6 26 28 28 34 4 36 22 2 22 -14 0 -25 5
-25 10 0 17 67 12 74 -6z m164 4 c7 -7 12 -29 12 -50 l0 -38 -44 0 c-31 0 -46
5 -50 16 -8 21 11 44 35 44 11 0 19 5 19 10 0 6 -9 10 -20 10 -11 0 -20 5 -20
10 0 14 54 12 68 -2z m-1343 -38 c-3 -5 -17 -10 -31 -10 -13 0 -24 5 -24 10 0
6 14 10 31 10 17 0 28 -4 24 -10z m935 -230 c0 -40 -4 -70 -10 -70 -6 0 -10
30 -10 70 0 40 4 70 10 70 6 0 10 -30 10 -70z m-1320 41 c-5 -11 -10 -38 -10
-61 0 -23 5 -50 10 -61 7 -12 7 -19 1 -19 -17 0 -31 36 -31 80 0 44 14 80 31
80 6 0 6 -7 -1 -19z m54 -3 l16 -22 16 22 c8 12 20 22 25 22 6 0 1 -13 -10
-29 l-21 -29 21 -36 c24 -41 10 -49 -16 -9 l-18 26 -14 -26 c-7 -15 -18 -27
-23 -27 -15 0 -12 12 10 40 18 24 18 25 -1 57 -23 37 -9 46 15 11z m131 -30
l18 -52 20 52 c28 74 47 69 47 -13 0 -37 -4 -65 -10 -65 -5 0 -10 21 -11 48
l0 47 -17 -44 c-9 -24 -22 -46 -28 -48 -7 -2 -19 15 -27 39 l-15 43 -1 -42
c-2 -70 -21 -49 -21 22 0 81 18 87 45 13z m135 -3 c0 -52 1 -55 24 -55 14 0
28 -4 31 -10 4 -6 -10 -10 -34 -10 l-41 0 0 65 c0 37 4 65 10 65 6 0 10 -25
10 -55z m245 45 c-3 -5 -17 -10 -31 -10 -17 0 -24 -5 -24 -20 0 -15 7 -20 25
-20 14 0 25 -4 25 -10 0 -5 -11 -10 -25 -10 -16 0 -25 -6 -25 -15 0 -9 9 -15
24 -15 14 0 28 -4 31 -10 4 -6 -10 -10 -34 -10 l-41 0 0 65 0 65 41 0 c24 0
38 -4 34 -10z m117 -7 c10 -9 18 -30 18 -46 0 -43 -25 -67 -72 -67 l-38 0 0
65 0 65 37 0 c20 0 45 -7 55 -17z m68 -48 c0 -37 -4 -65 -10 -65 -6 0 -10 28
-10 65 0 37 4 65 10 65 6 0 10 -28 10 -65z m200 50 c11 -13 11 -20 0 -39 -9
-18 -9 -29 -1 -44 14 -26 14 -32 1 -32 -6 0 -16 11 -22 25 -6 14 -17 25 -25
25 -7 0 -13 -11 -13 -25 0 -14 -4 -25 -10 -25 -6 0 -10 28 -10 65 l0 65 34 0
c18 0 39 -7 46 -15z m122 -2 c10 -9 18 -30 18 -46 0 -43 -25 -67 -72 -67 l-38
0 0 65 0 65 37 0 c20 0 45 -7 55 -17z m123 7 c-3 -5 -17 -10 -31 -10 -17 0
-24 -5 -24 -20 0 -15 7 -20 26 -20 14 0 23 -4 19 -10 -3 -5 -15 -10 -26 -10
-14 0 -19 -7 -19 -25 0 -14 -4 -25 -10 -25 -6 0 -10 28 -10 65 l0 65 41 0 c24
0 38 -4 34 -10z m236 -47 c15 -41 -3 -73 -41 -73 -39 0 -59 36 -42 75 17 37
69 35 83 -2z m113 19 c-7 -4 -13 -16 -15 -27 -3 -12 -14 -21 -27 -23 -31 -5
-28 -20 6 -24 21 -2 27 -8 27 -28 0 -22 -5 -25 -38 -28 -39 -3 -59 16 -40 41
5 6 8 26 6 42 -4 47 3 55 49 55 24 0 38 -4 32 -8z m76 -1 c0 -5 -12 -11 -27
-13 l-28 -3 30 -15 c40 -20 41 -54 1 -58 -16 -2 -33 1 -39 7 -8 8 -1 11 24 11
32 1 33 1 14 15 -43 31 -47 36 -34 51 13 16 59 19 59 5z m-1210 -91 c-6 -11
-13 -20 -15 -20 -3 0 -5 9 -5 20 0 11 7 20 15 20 13 0 14 -4 5 -20z m380 0
c-6 -11 -13 -20 -15 -20 -3 0 -5 9 -5 20 0 11 7 20 15 20 13 0 14 -4 5 -20z
m440 13 c0 -14 -19 -38 -25 -32 -8 8 5 39 16 39 5 0 9 -3 9 -7z m440 0 c0 -5
-4 -15 -10 -23 -11 -18 -25 -7 -17 15 6 15 27 21 27 8z m-1345 -142 c3 -6 -12
-11 -32 -13 -37 -3 -38 -4 -38 -43 0 -38 2 -40 33 -43 17 -2 32 -7 32 -13 0
-15 -66 -10 -79 5 -19 22 -16 74 4 96 19 21 69 27 80 11z m95 -1 c0 -5 -11
-10 -24 -10 -39 0 -39 -16 -1 -39 54 -31 41 -71 -22 -71 -43 0 -43 18 0 22 37
3 40 18 7 35 -32 16 -44 41 -30 59 14 16 70 19 70 4z m50 -36 c14 -50 22 -48
40 9 10 33 30 51 30 28 0 -23 -44 -121 -53 -118 -5 1 -20 31 -33 65 -17 46
-20 62 -10 62 7 0 19 -20 26 -46z m198 -31 c-3 -72 -5 -78 -25 -81 -13 -2 -23
1 -23 7 0 6 7 11 15 11 12 0 15 14 15 70 0 42 4 70 10 70 7 0 10 -29 8 -77z
m102 67 c0 -5 -11 -10 -24 -10 -39 0 -39 -16 -1 -39 54 -31 41 -71 -22 -71
-43 0 -43 18 0 22 37 3 40 18 7 35 -32 16 -44 41 -30 59 14 16 70 19 70 4z
m131 -6 c7 -9 13 -31 13 -49 0 -44 -19 -65 -60 -65 -23 0 -38 7 -48 22 -34 48
-7 108 48 108 19 0 40 -7 47 -16z m94 -32 l30 -47 3 48 c5 71 22 57 22 -18 0
-80 -13 -84 -55 -17 l-30 47 -3 -47 c-5 -72 -22 -58 -22 17 0 80 13 84 55 17z
m416 8 c9 -31 9 -49 0 -80 -6 -22 -16 -40 -22 -40 -6 0 -7 9 -2 23 4 12 8 38
8 57 0 19 -4 45 -8 58 -5 13 -4 22 2 22 6 0 16 -18 22 -40z m-143 10 c15 -1
15 -2 0 -14 -10 -7 -18 -23 -18 -36 0 -13 8 -29 18 -37 16 -12 15 -13 -8 -11
-21 3 -26 9 -31 48 -4 27 -2 50 4 59 8 9 12 10 15 2 2 -6 11 -11 20 -11z m-68
-15 c19 -23 4 -45 -30 -45 -18 0 -29 -4 -25 -10 3 -5 20 -10 36 -10 18 0 28
-4 24 -10 -3 -5 -20 -10 -36 -10 -38 0 -58 37 -41 75 13 29 52 34 72 10z m160
6 c0 -5 -10 -11 -22 -13 -17 -2 -23 -10 -23 -28 0 -18 6 -26 23 -28 29 -4 29
-22 -1 -22 -30 0 -47 18 -47 50 0 14 5 31 12 38 14 14 58 16 58 3z m-790 -91
c-6 -11 -13 -20 -15 -20 -3 0 -5 9 -5 20 0 11 7 20 15 20 13 0 14 -4 5 -20z
m2890 -750 l0 -70 -38 0 c-45 0 -62 14 -62 50 0 32 17 50 47 50 16 0 23 6 23
20 0 11 7 20 15 20 12 0 15 -14 15 -70z m-810 50 c0 -5 -11 -10 -24 -10 -39 0
-39 -16 -1 -39 56 -32 41 -71 -27 -71 -46 0 -51 18 -5 22 37 3 40 18 7 35 -32
16 -44 41 -30 59 14 16 80 20 80 4z m972 -7 c22 -20 23 -70 1 -95 -11 -12 -30
-18 -60 -18 l-43 0 0 65 0 65 42 0 c24 0 49 -7 60 -17z m-922 -3 c0 -5 23 -10
50 -10 50 0 67 -13 30 -23 -15 -4 -20 -14 -20 -42 l0 -36 -42 3 c-43 3 -43 3
-49 48 -3 25 -4 51 -2 58 6 14 33 16 33 2z m340 0 c0 -5 14 -10 30 -10 28 0
30 -2 30 -41 0 -33 3 -40 18 -37 12 2 18 14 20 41 2 24 8 37 18 37 10 0 14
-13 14 -50 l0 -50 -44 0 c-47 0 -56 9 -56 61 0 21 -4 27 -15 23 -21 -8 -19
-54 3 -71 15 -12 14 -13 -13 -11 -27 3 -30 7 -33 41 -3 34 -6 37 -33 37 -26 0
-29 -3 -29 -30 0 -25 4 -30 25 -30 14 0 25 -4 25 -10 0 -5 -16 -10 -35 -10
-29 0 -37 5 -46 26 -15 40 11 74 56 74 19 0 35 5 35 10 0 6 7 10 15 10 8 0 15
-4 15 -10z m750 0 c0 -5 8 -10 18 -10 16 -1 16 -1 0 -14 -10 -7 -18 -25 -18
-39 0 -32 28 -45 32 -14 2 16 11 23 31 25 34 4 36 22 2 22 -14 0 -25 5 -25 10
0 6 15 10 34 10 38 0 46 -12 46 -66 l0 -34 -72 2 -73 3 -6 45 c-3 25 -4 51 -2
58 6 14 33 16 33 2z m-950 -50 c0 -29 4 -40 15 -40 11 0 15 11 15 40 0 29 4
40 15 40 11 0 15 -12 15 -51 l0 -50 -42 3 -43 3 -3 48 c-2 37 0 47 12 47 12 0
16 -10 16 -40z m415 30 c-3 -5 -13 -10 -21 -10 -10 0 -14 -12 -14 -40 0 -33
-3 -40 -20 -40 -17 0 -20 7 -20 50 l0 50 41 0 c24 0 38 -4 34 -10z m83 -2 c7
-7 12 -20 12 -30 0 -13 -8 -18 -30 -18 -16 0 -30 -4 -30 -10 0 -5 14 -10 30
-10 17 0 30 -4 30 -10 0 -5 -16 -10 -35 -10 -26 0 -39 6 -51 25 -15 23 -15 27
0 50 18 27 54 33 74 13z m400 -41 l3 -48 -43 3 c-38 3 -43 6 -43 28 0 20 6 26
28 28 34 4 36 22 2 22 -14 0 -25 5 -25 11 0 6 16 9 38 7 37 -3 37 -3 40 -51z
m-908 -227 c0 -40 -4 -70 -10 -70 -6 0 -10 30 -10 70 0 40 4 70 10 70 6 0 10
-30 10 -70z m210 60 c0 -5 -4 -10 -10 -10 -5 0 -10 5 -10 10 0 6 5 10 10 10 6
0 10 -4 10 -10z m370 -60 c0 -40 -4 -70 -10 -70 -6 0 -10 30 -10 70 0 40 4 70
10 70 6 0 10 -30 10 -70z m160 0 l0 -70 -35 0 c-28 0 -38 5 -47 25 -16 36 3
75 37 75 18 0 25 5 25 20 0 11 5 20 10 20 6 0 10 -30 10 -70z m320 50 c0 -15
7 -20 25 -20 34 0 53 -39 37 -75 -10 -21 -18 -25 -47 -23 l-35 2 0 68 c0 39 4
68 10 68 6 0 10 -9 10 -20z m-1786 -7 c-14 -33 -16 -91 -4 -113 13 -24 6 -40
-11 -23 -28 28 -17 153 13 153 6 0 7 -7 2 -17z m106 7 c0 -5 -11 -10 -25 -10
-18 0 -25 -5 -25 -20 0 -15 7 -20 26 -20 14 0 23 -4 19 -10 -3 -5 -15 -10 -26
-10 -14 0 -19 -7 -19 -25 0 -16 -6 -25 -15 -25 -12 0 -15 14 -15 65 l0 65 40
0 c22 0 40 -4 40 -10z m2171 -6 c27 -33 10 -144 -23 -144 -5 0 -4 9 2 19 5 11
10 38 10 61 0 23 -5 50 -10 61 -13 23 2 25 21 3z m-1401 -4 c0 -5 8 -10 18
-10 16 -1 16 -1 0 -14 -10 -7 -18 -23 -18 -36 0 -13 8 -29 18 -37 16 -12 15
-13 -8 -11 -21 3 -26 9 -31 48 -3 25 -4 51 -2 58 6 14 23 16 23 2z m758 -10
c15 -1 15 -2 0 -14 -10 -7 -18 -23 -18 -36 0 -13 8 -29 18 -37 16 -12 15 -13
-8 -11 -21 3 -26 9 -31 48 -4 27 -2 50 4 59 8 9 12 10 15 2 2 -6 11 -11 20
-11z m-1448 -10 c0 -5 -9 -10 -20 -10 -17 0 -20 -7 -20 -40 0 -22 -4 -40 -10
-40 -5 0 -10 23 -10 50 0 49 1 50 30 50 17 0 30 -4 30 -10z m88 -2 c7 -7 12
-24 12 -38 0 -31 -17 -50 -45 -50 -28 0 -45 19 -45 50 0 31 17 50 45 50 12 0
26 -5 33 -12z m170 0 c18 -15 16 -88 -3 -88 -11 0 -15 11 -15 40 0 29 -4 40
-15 40 -11 0 -15 -11 -15 -40 0 -29 -4 -40 -15 -40 -11 0 -15 11 -15 41 0 33
-3 40 -17 37 -13 -2 -19 -14 -21 -41 -5 -54 -22 -45 -22 12 l0 48 63 0 c34 0
68 -4 75 -9z m142 2 c0 -4 -9 -10 -20 -13 -15 -4 -20 -14 -20 -41 0 -20 -4
-36 -10 -36 -5 0 -10 22 -10 48 0 47 1 49 30 50 17 0 30 -3 30 -8z m90 -10
c15 -27 5 -40 -31 -40 -18 0 -28 -4 -24 -10 3 -5 17 -10 31 -10 13 0 24 -4 24
-10 0 -14 -54 -12 -68 2 -7 7 -12 24 -12 38 0 14 5 31 12 38 19 19 56 14 68
-8z m148 -33 l3 -48 -38 3 c-33 3 -38 6 -38 28 0 20 6 26 28 28 34 4 36 22 2
22 -14 0 -25 5 -25 11 0 6 14 9 33 7 31 -3 32 -5 35 -51z m112 3 c0 -27 -4
-50 -10 -50 -5 0 -10 23 -10 50 0 28 5 50 10 50 6 0 10 -22 10 -50z m111 23
c15 -41 -3 -73 -41 -73 -39 0 -59 36 -42 75 17 37 69 35 83 -2z m107 -25 c2
-29 -1 -48 -7 -48 -6 0 -11 18 -11 40 0 33 -3 40 -20 40 -17 0 -20 -7 -20 -40
0 -22 -4 -40 -10 -40 -5 0 -10 23 -10 51 l0 50 38 -3 c37 -3 37 -3 40 -50z
m100 40 c7 -7 12 -28 12 -48 0 -36 -1 -37 -39 -38 -28 -1 -41 3 -45 14 -8 21
11 44 35 44 11 0 19 5 19 10 0 6 -9 10 -20 10 -11 0 -20 5 -20 10 0 14 43 13
58 -2z m310 0 c7 -7 12 -28 12 -48 0 -36 -1 -37 -39 -38 -28 -1 -41 3 -45 14
-8 21 11 44 35 44 11 0 19 5 19 10 0 6 -9 10 -20 10 -11 0 -20 5 -20 10 0 14
43 13 58 -2z m170 -41 l3 -48 -38 3 c-33 3 -38 6 -38 28 0 20 6 26 28 28 34 4
36 22 2 22 -14 0 -25 5 -25 11 0 6 14 9 33 7 31 -3 32 -5 35 -51z m210 41 c7
-7 12 -28 12 -48 0 -36 -1 -37 -39 -38 -28 -1 -41 3 -45 14 -8 21 11 44 35 44
11 0 19 5 19 10 0 6 -9 10 -20 10 -11 0 -20 5 -20 10 0 14 43 13 58 -2z m102
2 c0 -5 -12 -10 -27 -10 l-28 0 29 -23 c37 -30 30 -57 -14 -57 -16 0 -30 5
-30 10 0 6 11 10 25 10 14 0 25 4 25 8 0 5 -11 14 -25 20 -24 11 -32 31 -18
45 10 11 63 8 63 -3z m88 -2 c7 -7 12 -20 12 -30 0 -13 -8 -18 -30 -18 -16 0
-30 -4 -30 -10 0 -5 14 -10 30 -10 17 0 30 -4 30 -10 0 -5 -13 -10 -30 -10
-20 0 -35 8 -46 25 -15 23 -15 27 0 50 18 27 45 32 64 13z m102 2 c0 -5 -12
-10 -27 -10 l-28 0 29 -23 c37 -30 30 -57 -14 -57 -16 0 -30 5 -30 10 0 6 11
10 25 10 14 0 25 4 25 8 0 5 -11 14 -25 20 -24 11 -32 31 -18 45 10 11 63 8
63 -3z"/>
<path d="M5500 4120 c0 -25 4 -31 18 -28 11 2 17 12 17 28 0 16 -6 26 -17 28
-14 3 -18 -3 -18 -28z"/>
<path d="M5670 4136 c0 -39 3 -46 20 -46 38 0 41 83 2 88 -20 3 -22 -1 -22
-42z"/>
<path d="M4823 4153 c-18 -7 -16 -60 2 -67 12 -4 15 3 15 34 0 22 -1 40 -2 39
-2 0 -9 -3 -15 -6z"/>
<path d="M5163 4153 c-18 -7 -16 -60 2 -67 12 -4 15 3 15 34 0 22 -1 40 -2 39
-2 0 -9 -3 -15 -6z"/>
<path d="M5970 4110 c-8 -5 -11 -12 -7 -16 4 -4 13 -2 19 4 15 15 7 24 -12 12z"/>
<path d="M5400 4140 c0 -5 7 -10 15 -10 8 0 15 5 15 10 0 6 -7 10 -15 10 -8 0
-15 -4 -15 -10z"/>
<path d="M5803 4113 c-18 -7 -16 -23 2 -23 8 0 15 7 15 15 0 8 -1 15 -2 14 -2
0 -9 -3 -15 -6z"/>
<path d="M4104 3885 c-9 -23 3 -45 26 -45 16 0 20 7 20 30 0 23 -4 30 -20 30
-11 0 -23 -7 -26 -15z"/>
<path d="M5790 3870 c0 -27 3 -31 23 -28 16 2 22 10 22 28 0 18 -6 26 -22 28
-20 3 -23 -1 -23 -28z"/>
<path d="M6290 3870 c0 -27 3 -31 23 -28 16 2 22 10 22 28 0 18 -6 26 -22 28
-20 3 -23 -1 -23 -28z"/>
<path d="M4000 3890 c0 -5 9 -10 20 -10 11 0 20 5 20 10 0 6 -9 10 -20 10 -11
0 -20 -4 -20 -10z"/>
<path d="M4273 3863 c-20 -8 -15 -23 7 -23 11 0 20 7 20 15 0 15 -6 17 -27 8z"/>
<path d="M4570 3890 c0 -5 9 -10 20 -10 11 0 20 5 20 10 0 6 -9 10 -20 10 -11
0 -20 -4 -20 -10z"/>
<path d="M5100 3860 c-8 -5 -11 -12 -8 -16 10 -9 38 3 38 16 0 12 -10 13 -30
0z"/>
<path d="M5194 3899 c-10 -17 13 -36 27 -22 12 12 4 33 -11 33 -5 0 -12 -5
-16 -11z"/>
<path d="M5180 3811 c0 -13 27 -21 45 -15 25 10 17 24 -15 24 -16 0 -30 -4
-30 -9z"/>
<path d="M5295 3890 c-3 -5 3 -10 14 -10 12 0 21 5 21 10 0 6 -6 10 -14 10 -8
0 -18 -4 -21 -10z"/>
<path d="M5580 3855 c-10 -13 -9 -15 9 -15 12 0 21 6 21 15 0 8 -4 15 -9 15
-5 0 -14 -7 -21 -15z"/>
<path d="M5950 3870 c0 -25 4 -30 25 -30 21 0 25 5 25 30 0 25 -4 30 -25 30
-21 0 -25 -5 -25 -30z"/>
<path d="M6405 3890 c-3 -5 3 -10 14 -10 12 0 21 5 21 10 0 6 -6 10 -14 10 -8
0 -18 -4 -21 -10z"/>
<path d="M6510 3870 c0 -27 3 -31 23 -28 16 2 22 10 22 28 0 18 -6 26 -22 28
-20 3 -23 -1 -23 -28z"/>
<path d="M4614 3635 c-9 -23 3 -45 26 -45 16 0 20 7 20 30 0 23 -4 30 -20 30
-11 0 -23 -7 -26 -15z"/>
<path d="M5680 3655 c0 -27 1 -28 24 -19 24 9 20 44 -4 44 -15 0 -20 -7 -20
-25z"/>
<path d="M5790 3636 c0 -42 2 -46 25 -46 18 0 26 7 31 24 10 41 1 61 -29 64
-26 3 -27 2 -27 -42z"/>
<path d="M3970 3640 c0 -5 9 -10 20 -10 11 0 20 5 20 10 0 6 -9 10 -20 10 -11
0 -20 -4 -20 -10z"/>
<path d="M4250 3610 c-8 -5 -11 -12 -8 -16 10 -9 38 3 38 16 0 12 -10 13 -30
0z"/>
<path d="M4730 3620 c0 -27 3 -31 23 -28 16 2 22 10 22 28 0 18 -6 26 -22 28
-20 3 -23 -1 -23 -28z"/>
<path d="M5210 3640 c0 -5 9 -10 20 -10 11 0 20 5 20 10 0 6 -9 10 -20 10 -11
0 -20 -4 -20 -10z"/>
<path d="M6190 3640 c0 -5 9 -10 20 -10 11 0 20 5 20 10 0 6 -9 10 -20 10 -11
0 -20 -4 -20 -10z"/>
<path d="M1945 3050 c-3 -5 3 -10 14 -10 12 0 21 5 21 10 0 6 -6 10 -14 10 -8
0 -18 -4 -21 -10z"/>
<path d="M2050 3030 c0 -20 5 -30 15 -30 10 0 15 10 15 30 0 20 -5 30 -15 30
-10 0 -15 -10 -15 -30z"/>
<path d="M875 3050 c-3 -5 1 -10 9 -10 9 0 16 5 16 10 0 6 -4 10 -9 10 -6 0
-13 -4 -16 -10z"/>
<path d="M2210 3044 c0 -41 2 -45 21 -42 29 4 43 29 35 61 -5 20 -13 27 -31
27 -23 0 -25 -4 -25 -46z"/>
<path d="M2350 3020 c-8 -5 -11 -12 -7 -16 4 -4 13 -2 19 4 15 15 7 24 -12 12z"/>
<path d="M2510 3015 c-10 -12 -10 -15 4 -15 9 0 16 7 16 15 0 8 -2 15 -4 15
-2 0 -9 -7 -16 -15z"/>
<path d="M1440 2794 c0 -43 1 -45 26 -42 34 4 49 27 40 61 -5 22 -12 27 -36
27 -29 0 -30 -2 -30 -46z"/>
<path d="M1720 2819 c0 -14 5 -19 17 -17 26 5 29 38 4 38 -15 0 -21 -6 -21
-21z"/>
<path d="M1830 2794 c0 -43 1 -45 26 -42 34 4 49 27 40 61 -5 22 -12 27 -36
27 -29 0 -30 -2 -30 -46z"/>
<path d="M2194 2795 c-9 -23 3 -45 26 -45 16 0 20 7 20 30 0 23 -4 30 -20 30
-11 0 -23 -7 -26 -15z"/>
<path d="M2310 2801 c0 -12 6 -21 16 -21 9 0 14 7 12 17 -5 25 -28 28 -28 4z"/>
<path d="M2300 2721 c0 -15 16 -22 34 -15 25 9 19 24 -9 24 -14 0 -25 -4 -25
-9z"/>
<path d="M1654 2577 c-3 -9 -4 -28 -2 -44 3 -24 7 -28 33 -28 28 0 30 2 30 40
0 36 -3 40 -28 43 -17 2 -29 -2 -33 -11z"/>
<path d="M1975 2550 c-4 -6 5 -10 19 -10 14 0 26 5 26 10 0 6 -9 10 -19 10
-11 0 -23 -4 -26 -10z"/>
<path d="M4220 1710 c0 -25 4 -31 18 -28 11 2 17 12 17 28 0 16 -6 26 -17 28
-14 3 -18 -3 -18 -28z"/>
<path d="M4390 1726 c0 -39 3 -46 20 -46 38 0 41 83 2 88 -20 3 -22 -1 -22
-42z"/>
<path d="M3543 1743 c-18 -7 -16 -60 2 -67 12 -4 15 3 15 34 0 22 -1 40 -2 39
-2 0 -9 -3 -15 -6z"/>
<path d="M4690 1700 c-8 -5 -11 -12 -7 -16 4 -4 13 -2 19 4 15 15 7 24 -12 12z"/>
<path d="M4120 1730 c0 -5 7 -10 15 -10 8 0 15 5 15 10 0 6 -7 10 -15 10 -8 0
-15 -4 -15 -10z"/>
<path d="M4523 1703 c-18 -7 -16 -23 2 -23 8 0 15 7 15 15 0 8 -1 15 -2 14 -2
0 -9 -3 -15 -6z"/>
<path d="M4334 1475 c-9 -23 3 -45 26 -45 16 0 20 7 20 30 0 23 -4 30 -20 30
-11 0 -23 -7 -26 -15z"/>
<path d="M4720 1460 c0 -27 3 -31 23 -28 16 2 22 10 22 28 0 18 -6 26 -22 28
-20 3 -23 -1 -23 -28z"/>
<path d="M3150 1460 c0 -25 4 -30 25 -30 21 0 25 5 25 30 0 25 -4 30 -25 30
-21 0 -25 -5 -25 -30z"/>
<path d="M3555 1480 c-3 -5 3 -10 14 -10 12 0 21 5 21 10 0 6 -6 10 -14 10 -8
0 -18 -4 -21 -10z"/>
<path d="M3713 1453 c-20 -8 -15 -23 7 -23 11 0 20 7 20 15 0 15 -6 17 -27 8z"/>
<path d="M3914 1475 c-9 -23 3 -45 26 -45 16 0 20 7 20 30 0 23 -4 30 -20 30
-11 0 -23 -7 -26 -15z"/>
<path d="M4140 1445 c-10 -13 -9 -15 9 -15 12 0 21 6 21 15 0 8 -4 15 -9 15
-5 0 -14 -7 -21 -15z"/>
<path d="M4450 1445 c-10 -13 -9 -15 9 -15 12 0 21 6 21 15 0 8 -4 15 -9 15
-5 0 -14 -7 -21 -15z"/>
<path d="M4623 1453 c-20 -8 -15 -23 7 -23 11 0 20 7 20 15 0 15 -6 17 -27 8z"/>
<path d="M4830 1445 c-10 -13 -9 -15 9 -15 12 0 21 6 21 15 0 8 -4 15 -9 15
-5 0 -14 -7 -21 -15z"/>
<path d="M5020 1480 c0 -5 9 -10 20 -10 11 0 20 5 20 10 0 6 -9 10 -20 10 -11
0 -20 -4 -20 -10z"/>
</g>
</svg>
