<?xml version="1.0" standalone="no"?>
<!DOCTYPE svg PUBLIC "-//W3C//DTD SVG 20010904//EN"
 "http://www.w3.org/TR/2001/REC-SVG-20010904/DTD/svg10.dtd">
<svg version="1.0" xmlns="http://www.w3.org/2000/svg"
 width="290.000000pt" height="174.000000pt" viewBox="0 0 290.000000 174.000000"
 preserveAspectRatio="xMidYMid meet">

<g transform="translate(0.000000,174.000000) scale(0.100000,-0.100000)"
fill="#000000" stroke="none">
<path d="M0 870 l0 -870 844 0 844 0 -20 72 c-71 254 -169 448 -347 683 -129
171 -185 314 -212 546 -12 105 -7 309 10 397 l8 42 -563 0 -564 0 0 -870z
m1075 81 c3 -5 -13 -42 -35 -83 -22 -40 -40 -78 -40 -83 0 -6 27 -25 60 -43
33 -18 62 -37 65 -43 4 -5 -12 -43 -35 -84 l-41 -75 45 0 c25 0 46 -4 46 -10
0 -5 23 -10 50 -10 47 0 50 1 40 19 -5 11 -10 38 -10 61 l0 41 83 -3 c77 -3
82 -4 85 -26 4 -28 -14 -52 -38 -52 -10 0 -20 -9 -23 -20 -5 -18 0 -20 39 -20
37 0 44 -3 44 -20 0 -16 -7 -20 -30 -20 l-30 0 0 -200 0 -200 -185 0 -185 0 0
200 0 200 -80 0 -80 0 0 -44 0 -45 48 -3 47 -3 3 -152 3 -153 -63 0 c-42 0
-75 7 -105 21 l-44 21 3 132 3 131 48 3 47 3 0 44 0 45 -202 2 c-184 3 -203 5
-206 20 -3 16 7 18 85 19 l88 2 -78 7 c-67 7 -83 12 -107 35 l-29 28 -11 -27
c-14 -37 -13 -101 3 -114 6 -6 42 -22 79 -37 36 -14 73 -34 82 -44 11 -12 20
-51 27 -112 5 -52 12 -100 14 -107 3 -8 -6 -12 -28 -12 -31 0 -33 3 -62 83
-25 68 -34 83 -54 85 -22 3 -20 -3 37 -112 33 -64 55 -116 48 -116 -6 0 -34
44 -63 97 l-51 97 -99 1 c-54 1 -107 4 -119 8 -18 7 -25 -4 -63 -98 -24 -58
-47 -105 -52 -105 -13 0 -13 0 32 110 l42 100 -32 32 c-54 55 -76 147 -76 315
0 95 4 146 12 154 8 8 25 5 68 -14 42 -20 58 -33 66 -57 14 -39 22 -38 38 6 9
26 23 40 48 50 23 10 39 26 49 49 12 29 20 35 44 35 19 0 33 7 40 20 6 11 19
20 30 20 10 0 22 9 25 20 3 11 12 20 20 20 10 0 12 -7 6 -28 -20 -68 -60 -120
-82 -107 -27 17 -24 -20 5 -65 17 -26 38 -61 47 -77 12 -23 31 -35 70 -49 30
-10 65 -17 79 -16 37 3 89 -17 100 -39 9 -16 22 -19 75 -19 37 0 65 -4 65 -10
0 -5 23 -10 50 -10 28 0 50 4 50 9 0 6 23 11 52 13 l52 3 43 72 42 72 -42 24
c-91 53 -80 56 -126 -33 -43 -82 -55 -97 -66 -80 -7 11 175 360 187 360 4 0 9
-4 13 -9z m-351 -103 c-19 -83 -19 -84 -25 -73 -7 14 21 135 31 135 5 0 2 -28
-6 -62z m-52 14 l-23 -15 22 -23 c13 -13 18 -24 12 -24 -5 0 -20 11 -32 24
l-22 24 27 21 c15 12 30 18 33 15 3 -3 -4 -13 -17 -22z m105 6 l23 -22 -22
-23 c-12 -13 -26 -23 -31 -23 -6 0 0 11 12 24 l23 24 -21 11 c-12 7 -21 16
-21 21 0 16 12 12 37 -12z m90 -450 c-2 -13 -4 -5 -4 17 -1 22 1 32 4 23 2
-10 2 -28 0 -40z m-366 6 c32 -9 65 -24 73 -33 15 -17 106 -224 106 -242 0 -5
-11 -9 -25 -9 -34 0 -90 87 -100 156 -12 80 -21 93 -77 119 -62 29 -56 31 23
9z"/>
<path d="M1340 600 c0 -32 23 -42 34 -14 11 29 6 44 -14 44 -16 0 -20 -7 -20
-30z"/>
<path d="M1143 1683 c-4 -32 -8 -139 -8 -238 1 -198 14 -287 66 -429 37 -101
56 -133 178 -296 123 -164 217 -343 284 -546 26 -78 47 -149 47 -158 0 -15 51
-16 595 -16 l595 0 0 870 0 870 -874 0 -875 0 -8 -57z m1117 -98 l0 -35 -90 0
-90 0 0 -30 0 -30 80 0 80 0 0 -35 0 -35 -80 0 -80 0 0 -35 0 -35 96 0 95 0
-3 -32 -3 -33 -130 0 -130 0 -3 168 -2 167 130 0 130 0 0 -35z m310 0 l0 -35
-50 0 -50 0 0 -135 0 -135 -40 0 -40 0 0 135 0 135 -50 0 -50 0 0 35 0 35 140
0 140 0 0 -35z m120 -100 l0 -135 70 0 70 0 0 -35 0 -35 -110 0 -110 0 0 170
0 170 40 0 40 0 0 -135z m-560 -445 l0 -110 -25 0 -25 0 0 110 0 110 25 0 25
0 0 -110z m-627 80 c14 -11 31 -36 37 -55 10 -30 9 -41 -7 -72 -23 -48 -53
-63 -130 -63 l-63 0 0 105 0 105 69 0 c53 0 74 -4 94 -20z m197 -52 c11 -12
20 -34 20 -50 0 -27 -1 -28 -56 -28 -38 0 -53 -3 -48 -11 4 -7 21 -9 45 -5 24
4 40 2 45 -5 11 -18 -26 -39 -68 -39 -51 0 -78 27 -78 80 0 53 27 80 80 80 27
0 45 -6 60 -22z m88 -33 l15 -50 17 50 c14 41 21 51 43 53 l27 3 -29 -78 c-26
-72 -31 -78 -57 -78 -25 0 -30 6 -51 60 -39 100 -38 97 -7 93 23 -3 29 -10 42
-53z m242 33 c11 -12 20 -34 20 -50 0 -27 -1 -28 -56 -28 -38 0 -53 -3 -48
-11 4 -7 21 -9 45 -5 24 4 40 2 45 -5 11 -18 -26 -39 -68 -39 -51 0 -78 27
-78 80 0 53 27 80 80 80 27 0 45 -6 60 -22z m275 -3 c52 -51 15 -135 -60 -135
-48 0 -70 13 -85 50 -14 34 0 83 29 100 32 19 90 11 116 -15z m205 3 c27 -29
27 -87 -1 -117 -17 -18 -30 -22 -60 -19 -38 3 -39 3 -39 -29 0 -29 -3 -33 -25
-33 l-25 0 0 109 0 109 65 1 c54 0 68 -3 85 -21z m174 3 c9 -10 18 -31 19 -47
2 -28 0 -29 -53 -34 -39 -4 -50 -8 -37 -14 9 -5 28 -5 41 -2 15 4 28 0 36 -8
28 -35 -81 -50 -121 -17 -18 14 -24 29 -24 61 0 32 6 47 24 61 31 25 92 25
115 0z m96 7 c0 -9 3 -9 12 0 18 18 38 14 38 -8 0 -11 -4 -20 -9 -20 -23 0
-41 -34 -41 -76 0 -40 -2 -44 -25 -44 -25 0 -25 1 -25 80 0 79 0 80 25 80 14
0 25 -5 25 -12z m-350 -338 c0 -18 -7 -20 -75 -20 -68 0 -75 2 -75 20 0 18 7
20 75 20 68 0 75 -2 75 -20z m-252 -157 l-3 -38 -112 -3 c-96 -2 -113 0 -113
13 0 12 14 15 70 15 56 0 70 3 70 15 0 12 -13 15 -67 13 l-68 -1 65 -7 65 -7
-65 1 c-53 1 -65 4 -68 19 -3 15 7 17 113 17 l116 0 -3 -37z m2 -88 l0 -35
-82 0 c-46 0 -90 5 -98 10 -11 7 0 10 38 10 39 0 52 4 52 15 0 14 -50 21 -127
18 -7 -1 -13 3 -13 8 0 5 52 9 115 9 l115 0 0 -35z m-240 14 c0 -6 6 -9 14 -6
8 3 17 3 20 -1 4 -3 30 -5 59 -5 l52 1 -49 -7 c-27 -3 -51 -12 -54 -18 -2 -7
1 -13 7 -13 6 0 11 -7 11 -15 0 -8 -4 -15 -9 -15 -5 0 -8 -10 -8 -22 2 -21 6
-23 54 -20 37 3 53 8 53 18 0 10 -12 14 -40 14 -29 0 -40 4 -40 15 0 13 14 15
83 13 l82 -3 3 -38 3 -38 -115 2 c-63 1 -113 6 -110 11 3 4 0 8 -5 8 -6 0 -11
-4 -11 -10 0 -5 -7 -10 -15 -10 -8 0 -15 5 -15 10 0 6 -7 10 -16 10 -10 0 -14
6 -10 15 3 8 1 15 -4 15 -6 0 -10 11 -10 25 0 14 5 25 10 25 6 0 9 3 8 8 -4
11 25 41 40 42 6 0 12 -5 12 -11z m486 -25 c-5 -13 -10 -14 -18 -6 -6 6 -8 18
-4 28 5 13 10 14 18 6 6 -6 8 -18 4 -28z m-119 11 c0 -8 -6 -15 -12 -15 -6 0
-12 7 -12 15 0 8 6 15 12 15 6 0 12 -7 12 -15z m71 -2 c-10 -2 -28 -2 -40 0
-13 2 -5 4 17 4 22 1 32 -1 23 -4z m-315 -90 c-13 -2 -33 -2 -45 0 -13 2 -3 4
22 4 25 0 35 -2 23 -4z m367 -153 c0 -18 -7 -20 -75 -20 -68 0 -75 2 -75 20 0
18 7 20 75 20 68 0 75 -2 75 -20z m-158 -95 c-35 -15 -46 -42 -33 -79 14 -34
19 -33 13 3 -3 24 2 32 32 50 20 13 36 27 36 32 0 5 7 9 15 9 27 0 16 -25 -17
-38 -21 -8 -29 -15 -21 -20 6 -4 13 -23 16 -42 3 -30 4 -28 5 13 2 52 22 66
22 15 0 -24 3 -29 9 -18 6 8 8 17 5 21 -2 4 0 10 6 14 18 11 10 -41 -10 -62
-28 -31 -55 -36 -89 -18 -35 17 -48 55 -35 94 10 27 51 54 67 44 5 -3 -4 -11
-21 -18z m168 -20 c7 -8 18 -15 24 -15 8 0 11 -11 8 -30 -5 -36 -22 -40 -22
-5 0 23 -2 24 -20 13 -11 -7 -20 -18 -20 -25 0 -7 -4 -13 -10 -13 -5 0 -10 20
-10 45 0 37 3 45 19 45 10 0 24 -7 31 -15z m125 5 c3 -5 1 -10 -4 -10 -6 0
-11 5 -11 10 0 6 2 10 4 10 3 0 8 -4 11 -10z m205 -5 c8 -10 27 -15 52 -13 26
1 43 -3 49 -13 12 -19 11 -25 -7 -40 -19 -16 -50 0 -48 25 1 9 -2 16 -7 16 -5
0 -9 -11 -9 -25 0 -14 -4 -25 -10 -25 -5 0 -10 11 -10 25 0 23 -2 24 -20 13
-11 -7 -20 -18 -20 -25 0 -7 -11 -13 -25 -13 -20 0 -25 5 -25 25 0 18 -5 25
-20 25 -25 0 -27 -37 -2 -43 12 -4 11 -5 -6 -6 -12 0 -25 6 -28 14 -4 8 -15
15 -25 15 -24 0 -25 -17 -1 -23 13 -4 12 -5 -5 -6 -12 0 -24 5 -26 12 -4 7 -6
6 -6 -4 -1 -9 -9 -23 -18 -30 -15 -12 -16 -12 -10 4 4 10 7 32 7 49 0 21 4 29
13 25 8 -3 20 -1 28 3 8 5 18 5 26 -1 7 -7 18 -7 30 -1 10 5 24 7 31 5 6 -3
12 1 12 7 0 10 3 10 14 1 10 -9 15 -8 20 4 7 19 30 19 46 0z m-232 -44 c-2
-20 -8 -26 -28 -26 -30 0 -40 33 -15 51 25 19 47 6 43 -25z"/>
<path d="M1400 1035 c0 -61 1 -65 23 -65 39 0 67 27 67 65 0 38 -28 65 -67 65
-22 0 -23 -4 -23 -65z"/>
<path d="M1615 1040 c-4 -6 7 -10 24 -10 17 0 31 5 31 10 0 6 -11 10 -24 10
-14 0 -28 -4 -31 -10z"/>
<path d="M1945 1040 c-4 -6 7 -10 24 -10 17 0 31 5 31 10 0 6 -11 10 -24 10
-14 0 -28 -4 -31 -10z"/>
<path d="M2214 1036 c-12 -31 0 -61 25 -61 31 0 50 28 35 53 -14 22 -52 28
-60 8z"/>
<path d="M2414 1036 c-11 -28 1 -61 22 -64 28 -4 48 22 40 53 -5 18 -13 25
-32 25 -13 0 -27 -6 -30 -14z"/>
<path d="M2600 1040 c0 -5 14 -10 31 -10 17 0 28 4 24 10 -3 6 -17 10 -31 10
-13 0 -24 -4 -24 -10z"/>
<path d="M2126 593 c-11 -11 -6 -23 9 -23 8 0 15 4 15 9 0 13 -16 22 -24 14z"/>
<path d="M2127 504 c-8 -8 1 -24 14 -24 5 0 9 7 9 15 0 15 -12 20 -23 9z"/>
<path d="M1900 446 c0 -29 28 -42 48 -22 20 20 8 46 -23 46 -20 0 -25 -5 -25
-24z m43 -1 c1 -5 -6 -11 -15 -13 -11 -2 -18 3 -18 13 0 17 30 18 33 0z"/>
<path d="M2127 414 c-8 -8 1 -24 14 -24 5 0 9 7 9 15 0 15 -12 20 -23 9z"/>
<path d="M2310 250 c0 -5 20 -10 45 -10 25 0 45 5 45 10 0 6 -20 10 -45 10
-25 0 -45 -4 -45 -10z"/>
<path d="M2265 100 c-3 -5 -1 -10 6 -10 7 0 9 -10 7 -25 -3 -14 -1 -25 3 -25
5 0 9 16 9 35 0 34 -12 46 -25 25z"/>
<path d="M2410 120 c0 -5 5 -10 10 -10 6 0 10 5 10 10 0 6 -4 10 -10 10 -5 0
-10 -4 -10 -10z"/>
<path d="M2740 120 c0 -5 5 -10 10 -10 6 0 10 5 10 10 0 6 -4 10 -10 10 -5 0
-10 -4 -10 -10z"/>
<path d="M2700 96 c0 -8 5 -18 10 -21 6 -3 10 3 10 14 0 12 -4 21 -10 21 -5 0
-10 -6 -10 -14z"/>
<path d="M2832 94 c4 -21 22 -23 26 -1 2 10 -3 17 -13 17 -10 0 -15 -6 -13
-16z"/>
<path d="M2500 90 c0 -13 5 -20 13 -17 6 2 12 10 12 17 0 7 -6 15 -12 18 -8 2
-13 -5 -13 -18z"/>
</g>
</svg>
